# This file uses centimeters as units for non-parametric coordinates.

mtllib battery.mtl
g default
v 2.638842 31.465708 -1.523536
v 1.523536 31.465708 -2.638842
v 0.000000 31.465708 -3.047073
v -1.523536 31.465708 -2.638842
v -2.638842 31.465708 -1.523536
v -3.047073 31.465708 0.000000
v -2.638842 31.465708 1.523536
v -1.523536 31.465708 2.638842
v 0.000000 31.465708 3.047073
v 1.523536 31.465708 2.638842
v 2.638842 31.465708 1.523536
v 3.047073 31.465708 0.000000
v 2.638842 41.677890 -1.523536
v 1.523536 41.677890 -2.638842
v 0.000000 41.677890 -3.047073
v -1.523536 41.677890 -2.638842
v -2.638842 41.677890 -1.523536
v -3.047073 41.677890 0.000000
v -2.638842 41.677890 1.523536
v -1.523536 41.677890 2.638842
v 0.000000 41.677890 3.047073
v 1.523536 41.677890 2.638842
v 2.638842 41.677890 1.523536
v 3.047073 41.677890 0.000000
v 0.000000 31.465708 0.000000
v 0.000000 42.023964 0.000000
vt 0.601253 0.418617
vt 0.683477 0.336419
vt 0.488933 0.224135
vt 0.488933 0.448703
vt 0.376613 0.418617
vt 0.294389 0.336419
vt 0.264293 0.224135
vt 0.294389 0.111851
vt 0.376613 0.029653
vt 0.488933 -0.000433
vt 0.601253 0.029653
vt 0.683477 0.111851
vt -0.232739 0.466667
vt -0.110616 0.466667
vt 0.011507 0.466667
vt 0.133630 0.466667
vt 0.255754 0.466667
vt 0.377877 0.466667
vt 0.500000 0.466667
vt 0.622123 0.466667
vt 0.744247 0.466667
vt 0.866370 0.466667
vt 0.988493 0.466667
vt 1.110616 0.466667
vt 1.232739 0.466667
vt -0.232739 0.999318
vt -0.110616 0.999318
vt 0.011507 0.999318
vt 0.133630 0.999318
vt 0.255754 0.999318
vt 0.377877 0.999318
vt 0.500000 0.999318
vt 0.622123 0.999318
vt 0.744247 0.999318
vt 0.866370 0.999318
vt 0.988493 0.999318
vt 1.110616 0.999318
vt 1.232739 0.999318
vt 0.713573 0.224135
vt 0.683477 0.336419
vt 0.601253 0.418617
vt 0.488933 0.224135
vt 0.488933 0.448703
vt 0.376613 0.418617
vt 0.294389 0.336419
vt 0.264293 0.224135
vt 0.294389 0.111851
vt 0.376613 0.029653
vt 0.488933 -0.000433
vt 0.601253 0.029653
vt 0.683477 0.111851
vt 0.713573 0.224135
vn 0.866025 0.000000 -0.500000
vn 0.500000 0.000000 -0.866025
vn 0.500000 0.000000 -0.866025
vn 0.866025 0.000000 -0.500000
vn 0.000000 0.000000 -1.000000
vn 0.000000 0.000000 -1.000000
vn -0.500000 0.000000 -0.866025
vn -0.500000 0.000000 -0.866025
vn -0.866025 0.000000 -0.500000
vn -0.866025 0.000000 -0.500000
vn -1.000000 0.000000 0.000000
vn -1.000000 0.000000 0.000000
vn -0.866025 0.000000 0.500000
vn -0.866025 0.000000 0.500000
vn -0.500000 0.000000 0.866025
vn -0.500000 0.000000 0.866025
vn 0.000000 0.000000 1.000000
vn 0.000000 0.000000 1.000000
vn 0.500000 0.000000 0.866025
vn 0.500000 0.000000 0.866025
vn 0.866025 0.000000 0.500000
vn 0.866025 0.000000 0.500000
vn 1.000000 0.000000 0.000000
vn 1.000000 0.000000 0.000000
vn 0.000000 -1.000000 0.000000
vn 0.000000 -1.000000 0.000000
vn 0.000000 -1.000000 0.000000
vn 0.000000 -1.000000 0.000000
vn 0.000000 -1.000000 0.000000
vn 0.000000 -1.000000 0.000000
vn 0.000000 -1.000000 0.000000
vn 0.000000 -1.000000 0.000000
vn 0.000000 -1.000000 0.000000
vn 0.000000 -1.000000 0.000000
vn 0.000000 -1.000000 0.000000
vn 0.000000 -1.000000 0.000000
vn 0.000000 -1.000000 0.000000
vn 0.097731 0.993612 -0.056425
vn 0.056425 0.993612 -0.097731
vn -0.000000 1.000000 0.000000
vn 0.000000 0.993612 -0.112850
vn -0.056425 0.993612 -0.097731
vn -0.097731 0.993612 -0.056425
vn -0.112851 0.993612 0.000000
vn -0.097731 0.993612 0.056425
vn -0.056425 0.993612 0.097731
vn 0.000000 0.993612 0.112850
vn 0.056425 0.993612 0.097731
vn 0.097731 0.993612 0.056425
vn 0.112851 0.993612 0.000000
s 1
g pCylinder54
usemtl battery
f 1/13/1 2/14/2 14/27/3 13/26/4
f 2/14/2 3/15/5 15/28/6 14/27/3
f 3/15/5 4/16/7 16/29/8 15/28/6
f 4/16/7 5/17/9 17/30/10 16/29/8
f 5/17/9 6/18/11 18/31/12 17/30/10
f 6/18/11 7/19/13 19/32/14 18/31/12
f 7/19/13 8/20/15 20/33/16 19/32/14
f 8/20/15 9/21/17 21/34/18 20/33/16
f 9/21/17 10/22/19 22/35/20 21/34/18
f 10/22/19 11/23/21 23/36/22 22/35/20
f 11/23/21 12/24/23 24/37/24 23/36/22
f 12/24/23 1/25/1 13/38/4 24/37/24
s 2
f 2/1/25 1/2/26 25/3/27
f 3/4/28 2/1/25 25/3/27
f 4/5/29 3/4/28 25/3/27
f 5/6/30 4/5/29 25/3/27
f 6/7/31 5/6/30 25/3/27
f 7/8/32 6/7/31 25/3/27
f 8/9/33 7/8/32 25/3/27
f 9/10/34 8/9/33 25/3/27
f 10/11/35 9/10/34 25/3/27
f 11/12/36 10/11/35 25/3/27
f 12/39/37 11/12/36 25/3/27
f 1/2/26 12/39/37 25/3/27
s 3
f 13/40/38 14/41/39 26/42/40
f 14/41/39 15/43/41 26/42/40
f 15/43/41 16/44/42 26/42/40
f 16/44/42 17/45/43 26/42/40
f 17/45/43 18/46/44 26/42/40
f 18/46/44 19/47/45 26/42/40
f 19/47/45 20/48/46 26/42/40
f 20/48/46 21/49/47 26/42/40
f 21/49/47 22/50/48 26/42/40
f 22/50/48 23/51/49 26/42/40
f 23/51/49 24/52/50 26/42/40
f 24/52/50 13/40/38 26/42/40
g default
v 1.115919 41.636969 -1.115919
v 0.000000 41.636969 -1.578149
v -1.115919 41.636969 -1.115919
v -1.578149 41.636969 0.000000
v -1.115919 41.636969 1.115919
v 0.000000 41.636969 1.578149
v 1.115920 41.636969 1.115920
v 1.578149 41.636969 0.000000
v 0.994091 42.289733 -0.994091
v 0.000000 42.289733 -1.405857
v -0.994091 42.289733 -0.994091
v -1.405857 42.289733 0.000000
v -0.994091 42.289733 0.994091
v 0.000000 42.289733 1.405857
v 0.994091 42.289733 0.994091
v 1.405857 42.289733 0.000000
v 0.000000 41.636969 0.000000
v 0.000000 42.289733 0.000000
vt 0.535698 0.241875
vt 0.489608 0.316812
vt 0.553151 0.290491
vt 0.535698 0.288833
vt 0.426065 0.290491
vt 0.359244 0.226948
vt 0.399744 0.226948
vt 0.397427 0.134767
vt 0.426065 0.163405
vt 0.489608 0.096584
vt 0.489608 0.137084
vt 0.581789 0.134767
vt 0.553151 0.163405
vt 0.619971 0.226948
vt 0.579471 0.226948
vt 0.489608 0.226948
vt 0.489608 0.226948
vt 0.490855 0.288833
vt 0.489348 0.241875
vt 0.489348 0.288833
vt 0.442999 0.241875
vt 0.442999 0.288833
vt 0.490734 0.241875
vt 0.490734 0.288833
vt 0.537191 0.241875
vt 0.537191 0.288833
vt 0.488760 0.241875
vt 0.488760 0.288833
vt 0.444693 0.288833
vt 0.442999 0.241875
vt 0.537017 0.241875
vt 0.537017 0.288833
vt 0.490855 0.241875
vt 0.629341 0.241875
vt 0.444693 0.241875
vn 0.683693 0.255202 -0.683693
vn 0.000000 0.255202 -0.966888
vn 0.000000 0.255202 -0.966888
vn 0.683693 0.255202 -0.683693
vn -0.683693 0.255202 -0.683693
vn -0.683693 0.255202 -0.683693
vn -0.966888 0.255202 -0.000000
vn -0.966888 0.255202 -0.000000
vn -0.683693 0.255202 0.683693
vn -0.683693 0.255202 0.683693
vn -0.000000 0.255202 0.966888
vn -0.000000 0.255202 0.966888
vn 0.683693 0.255202 0.683693
vn 0.683693 0.255202 0.683693
vn 0.966888 0.255202 -0.000000
vn 0.966888 0.255202 -0.000000
vn 0.000000 -1.000000 0.000000
vn 0.000000 -1.000000 0.000000
vn 0.000000 -1.000000 -0.000000
vn 0.000000 -1.000000 0.000000
vn 0.000000 -1.000000 -0.000000
vn 0.000000 -1.000000 -0.000000
vn 0.000000 -1.000000 0.000000
vn 0.000000 -1.000000 0.000000
vn 0.000000 -1.000000 0.000000
vn 0.000000 1.000000 0.000000
vn 0.000000 1.000000 0.000000
vn 0.000000 1.000000 0.000000
vn 0.000000 1.000000 0.000000
vn 0.000000 1.000000 0.000000
vn 0.000000 1.000000 0.000000
vn 0.000000 1.000000 0.000000
vn 0.000000 1.000000 0.000000
vn 0.000000 1.000000 0.000000
s 1
g pCylinder54 pCylinder55
usemtl battery
f 27/85/51 28/83/52 36/84/53 35/70/54
f 28/53/52 29/71/55 37/72/56 36/56/53
f 29/71/55 30/73/57 38/74/58 37/72/56
f 30/73/57 31/75/59 39/76/60 38/74/58
f 31/75/59 32/77/61 40/78/62 39/76/60
f 32/77/61 33/79/63 41/80/64 40/78/62
f 33/79/63 34/87/65 42/81/66 41/80/64
f 34/87/65 27/85/51 35/70/54 42/81/66
s 2
f 28/83/67 27/85/68 43/86/69
f 29/71/70 28/53/67 43/82/69
f 30/73/71 29/71/70 43/82/69
f 31/60/72 30/58/71 43/68/69
f 32/62/73 31/60/72 43/68/69
f 33/64/74 32/62/73 43/68/69
f 34/66/75 33/64/74 43/68/69
f 27/85/68 34/87/75 43/86/69
s 3
f 35/55/76 36/54/77 44/69/78
f 36/54/77 37/57/79 44/69/78
f 37/57/79 38/59/80 44/69/78
f 38/59/80 39/61/81 44/69/78
f 39/61/81 40/63/82 44/69/78
f 40/63/82 41/65/83 44/69/78
f 41/65/83 42/67/84 44/69/78
f 42/67/84 35/55/76 44/69/78
