# This file uses centimeters as units for non-parametric coordinates.

mtllib constructor_unit_plating.mtl
g default
v -47.281235 16.287216 5.107313
v -47.852694 16.661359 6.881476
v -55.530200 16.260877 1.614843
v -55.232695 16.633053 2.938463
v -53.668838 19.686626 3.042290
v -53.783352 19.316536 4.052249
v -44.600862 20.672661 7.554935
v -45.807604 20.300991 8.488242
v -50.919877 16.274307 3.225601
v -50.429593 16.648986 5.182941
v -49.568211 20.665907 5.277753
v -49.409784 20.284980 6.583778
v -25.218300 16.870767 -3.922737
v -25.056443 17.946408 -3.118253
v -23.924902 17.814020 1.412833
v -24.344631 18.901120 1.075660
v -28.295605 19.710495 1.412833
v -27.594438 20.362761 1.075660
v -28.426503 18.932715 -3.323317
v -27.725336 19.584981 -2.903907
v -28.450547 18.941946 -9.436910
v -27.770367 19.602354 -9.856812
v -28.327511 19.722775 -14.173153
v -27.646339 20.382798 -13.836377
v -23.907620 17.797280 -14.177016
v -24.401213 18.913034 -13.839368
v -25.220528 16.852345 -8.841449
v -25.061839 17.925991 -9.645457
v -18.764806 14.021246 1.356493
v -17.928977 14.626141 0.881972
v -24.552190 17.924809 1.356493
v -23.272815 18.502322 0.881972
v -25.454076 16.409119 -6.165480
v -24.174700 16.986631 -6.057281
v -21.004272 14.021246 -6.165480
v -20.168443 14.626142 -6.057281
v -29.887056 19.350278 -21.320004
v -28.304265 19.804320 -20.507331
v -20.408910 14.038390 -19.445105
v -19.131072 14.593164 -18.948406
v -20.401883 14.032941 -14.613849
v -19.125628 14.588946 -15.207500
v -29.878172 19.347261 -14.606552
v -28.297383 19.801984 -15.201125
v -23.743748 16.915238 -20.676216
v -23.411407 17.911386 -20.101824
v -23.743748 16.915238 -14.610842
v -23.411406 17.911386 -15.204279
v -20.403195 14.033959 6.522430
v -19.126079 14.589294 6.026191
v -29.879838 19.347828 8.404626
v -28.297958 19.802179 7.591394
v -29.879838 19.347828 2.001142
v -28.297958 19.802179 2.488084
v -20.403195 14.033959 2.001142
v -19.126079 14.589294 2.488084
v -23.743748 16.915238 7.756544
v -23.411406 17.911386 7.182932
v -23.743748 16.915238 2.001142
v -23.411406 17.911386 2.488084
v -24.555435 17.927416 -14.125179
v -23.275649 18.504599 -13.651098
v -18.768054 14.023856 -14.132156
v -17.931815 14.628421 -13.657194
v -21.001023 14.018627 -6.611229
v -20.165288 14.623598 -6.720508
v -25.450825 16.406497 -6.604252
v -24.171544 16.984086 -6.714412
v -41.102565 19.606888 -23.744815
v -39.742874 19.068868 -24.932195
v -40.132084 13.481652 -22.835861
v -38.771194 14.004296 -23.798747
v -26.597327 14.180500 -19.234018
v -26.957390 14.487339 -20.194199
v -29.810205 18.890029 -20.805110
v -29.953150 18.583357 -21.799954
v -32.667917 13.507136 -22.356698
v -32.667917 14.018147 -23.299306
v -32.667917 19.325169 -22.746917
v -32.667917 18.981447 -23.973577
v -41.102563 19.606892 11.011191
v -39.742873 19.068872 12.198573
v -40.132084 13.481654 10.102238
v -38.771192 14.004295 11.065125
v -26.597325 14.180500 6.500396
v -26.957389 14.487339 7.460577
v -29.810202 18.890029 8.071486
v -29.953145 18.583356 9.066330
v -32.667916 13.507137 9.623076
v -32.667917 14.018147 10.565684
v -32.667916 19.325170 10.013295
v -32.667917 18.981448 11.239955
v -55.580869 16.175479 -14.356497
v -55.296268 16.524240 -15.680155
v -47.367796 16.196525 -17.850092
v -47.951124 16.547908 -19.624255
v -44.692711 20.591466 -20.297714
v -45.930187 20.166743 -21.231021
v -53.712621 19.612638 -15.785420
v -53.858017 19.186972 -16.795160
v -50.999525 16.185766 -15.968380
v -50.521751 16.537835 -17.925720
v -49.642583 20.586903 -18.020532
v -49.513422 20.153080 -19.326557
vt 0.131511 0.532466
vt 0.131511 0.532466
vt 0.131511 0.998006
vt 0.131511 0.998006
vt 1.005758 0.998006
vt 1.005758 0.998006
vt 1.005758 0.532466
vt 1.005758 0.532466
vt 0.136908 0.514646
vt 0.136908 0.439124
vt 0.999047 0.439124
vt 0.999047 0.514646
vt 0.996661 0.052642
vt 0.996661 0.102357
vt 0.000645 0.102357
vt 0.000645 0.052642
vt 0.136908 0.515844
vt 0.136908 0.440322
vt 0.999047 0.440322
vt 0.999047 0.515844
vt 0.996661 0.052493
vt 0.996661 0.102208
vt 0.000645 0.102208
vt 0.000645 0.052493
vt 0.131511 0.724314
vt 0.492194 0.514646
vt 0.572508 0.439124
vt 0.131511 0.767682
vt 1.005758 0.724314
vt 0.643761 0.515844
vt 0.563448 0.440322
vt 1.005758 0.767682
vt 0.136908 0.514646
vt 0.136908 0.439124
vt 0.999047 0.439124
vt 0.999047 0.514646
vt 0.996661 0.052642
vt 0.996661 0.102357
vt 0.000645 0.102357
vt 0.000645 0.052642
vt 0.136908 0.515844
vt 0.136908 0.440322
vt 0.999047 0.440322
vt 0.999047 0.515844
vt 0.996661 0.052493
vt 0.996661 0.102208
vt 0.000645 0.102208
vt 0.000645 0.052493
vt 0.131511 0.532466
vt 1.005758 0.532466
vt 1.005758 0.998006
vt 0.131511 0.998006
vt 1.005758 0.532466
vt 0.131511 0.532466
vt 0.131511 0.998006
vt 1.005758 0.998006
vt 0.136908 0.514646
vt 0.136908 0.439124
vt 0.999047 0.439124
vt 0.999047 0.514646
vt 0.996661 0.052642
vt 0.996661 0.102357
vt 0.000645 0.102357
vt 0.000645 0.052642
vt 0.136908 0.515844
vt 0.136908 0.440322
vt 0.999047 0.440322
vt 0.999047 0.515844
vt 0.996661 0.052493
vt 0.996661 0.102208
vt 0.000645 0.102208
vt 0.000645 0.052493
vt 0.135110 0.998006
vt 1.002159 0.998006
vt 1.002159 0.532466
vt 0.135110 0.532466
vt 1.002159 0.998006
vt 0.135110 0.998006
vt 0.135110 0.532466
vt 1.002159 0.532466
vt 0.136908 0.514646
vt 0.136908 0.439124
vt 0.999047 0.439124
vt 0.999047 0.514646
vt 0.996661 0.052642
vt 0.996661 0.102357
vt 0.000645 0.102357
vt 0.000645 0.052642
vt 0.136908 0.515844
vt 0.136908 0.440322
vt 0.999047 0.440322
vt 0.999047 0.515844
vt 0.996661 0.052493
vt 0.996661 0.102208
vt 0.000645 0.102208
vt 0.000645 0.052493
vt 0.131511 0.532466
vt 1.005758 0.532466
vt 1.005758 0.998006
vt 0.131511 0.998006
vt 1.005758 0.532466
vt 0.131511 0.532466
vt 0.131511 0.998006
vt 1.005758 0.998006
vt 0.136908 0.514646
vt 0.136908 0.439124
vt 0.563955 0.439124
vt 0.644269 0.514646
vt 0.996661 0.052642
vt 0.996661 0.102357
vt 0.000645 0.102357
vt 0.000645 0.052642
vt 0.136908 0.515844
vt 0.136908 0.440322
vt 0.572554 0.440322
vt 0.492311 0.515844
vt 0.996661 0.052493
vt 0.996661 0.102208
vt 0.000645 0.102208
vt 0.000645 0.052493
vt 0.131511 0.532466
vt 1.005758 0.532466
vt 1.005758 0.762765
vt 0.131511 0.763064
vt 1.005758 0.532466
vt 0.131511 0.532466
vt 0.131511 0.806432
vt 1.005758 0.806095
vt 0.999047 0.439124
vt 0.999047 0.514646
vt 0.999047 0.440322
vt 0.999047 0.515844
vt 1.005758 0.998006
vt 0.131511 0.998006
vt 0.131511 0.998006
vt 1.005758 0.998006
vt 0.136908 0.514646
vt 0.136908 0.439124
vt 0.572508 0.439124
vt 0.492194 0.514646
vt 0.996661 0.052642
vt 0.996661 0.102357
vt 0.000645 0.102357
vt 0.000645 0.052642
vt 0.136908 0.515844
vt 0.136908 0.440322
vt 0.563448 0.440322
vt 0.643761 0.515844
vt 0.996661 0.052493
vt 0.996661 0.102208
vt 0.000645 0.102208
vt 0.000645 0.052493
vt 0.131511 0.532466
vt 1.005758 0.532466
vt 1.005758 0.767682
vt 0.131511 0.767682
vt 1.005758 0.532466
vt 0.131511 0.532466
vt 0.131511 0.724314
vt 1.005758 0.724314
vt 0.999047 0.439124
vt 0.999047 0.514646
vt 0.999047 0.440322
vt 0.999047 0.515844
vt 1.005758 0.998006
vt 0.131511 0.998006
vt 0.131511 0.998006
vt 1.005758 0.998006
vt 0.136908 0.514646
vt 0.136908 0.439124
vt 0.999047 0.439124
vt 0.999047 0.514646
vt 0.996661 0.052642
vt 0.996661 0.102357
vt 0.000645 0.102357
vt 0.000645 0.052642
vt 0.136908 0.515844
vt 0.136908 0.440322
vt 0.999047 0.440322
vt 0.999047 0.515844
vt 0.996661 0.052493
vt 0.996661 0.102208
vt 0.000645 0.102208
vt 0.000645 0.052493
vt 0.135110 0.998006
vt 1.002159 0.998006
vt 1.002159 0.532466
vt 0.135110 0.532466
vt 1.002159 0.998006
vt 0.135110 0.998006
vt 0.135110 0.532466
vt 1.002159 0.532466
vt 0.136908 0.514646
vt 0.136908 0.439124
vt 0.999047 0.439124
vt 0.999047 0.514646
vt 0.996661 0.052642
vt 0.996661 0.102357
vt 0.482097 0.102357
vt 0.447377 0.052642
vt 0.136908 0.515844
vt 0.136908 0.440322
vt 0.999047 0.440322
vt 0.999047 0.515844
vt 0.996661 0.052493
vt 0.996661 0.102208
vt 0.720458 0.102208
vt 0.744603 0.052493
vt 0.131511 0.532466
vt 0.763323 0.532466
vt 0.583167 0.998006
vt 0.131511 0.998006
vt 1.005758 0.532466
vt 0.784516 0.532466
vt 0.613642 0.998006
vt 1.005758 0.998006
vt 0.000645 0.102357
vt 0.000645 0.052642
vt 0.000645 0.102208
vt 0.000645 0.052493
vt 1.005758 0.532466
vt 1.005758 0.998006
vt 0.131511 0.532466
vt 0.131511 0.998006
vt 0.136908 0.514646
vt 0.136908 0.439124
vt 0.999047 0.439124
vt 0.999047 0.514646
vt 0.996661 0.052642
vt 0.996661 0.102357
vt 0.482097 0.102357
vt 0.447377 0.052642
vt 0.136908 0.515844
vt 0.136908 0.440322
vt 0.999047 0.440322
vt 0.999047 0.515844
vt 0.996661 0.052493
vt 0.996661 0.102208
vt 0.720458 0.102208
vt 0.744603 0.052493
vt 0.135110 0.998006
vt 0.761719 0.998006
vt 0.583047 0.532466
vt 0.135110 0.532466
vt 1.002159 0.998006
vt 0.782738 0.998006
vt 0.613271 0.532466
vt 1.002159 0.532466
vt 0.000645 0.102357
vt 0.000645 0.052642
vt 0.000645 0.102208
vt 0.000645 0.052493
vt 1.002159 0.998006
vt 1.002159 0.532466
vt 0.135110 0.998006
vt 0.135110 0.532466
vt 0.136908 0.514646
vt 0.136908 0.439124
vt 0.563955 0.439124
vt 0.644269 0.514646
vt 0.996661 0.052642
vt 0.996661 0.102357
vt 0.000645 0.102357
vt 0.000645 0.052642
vt 0.136908 0.515844
vt 0.136908 0.440322
vt 0.572554 0.440322
vt 0.492311 0.515844
vt 0.996661 0.052493
vt 0.996661 0.102208
vt 0.000645 0.102208
vt 0.000645 0.052493
vt 0.131511 0.532466
vt 1.005758 0.532466
vt 1.005758 0.762765
vt 0.131511 0.763064
vt 1.005758 0.532466
vt 0.131511 0.532466
vt 0.131511 0.806432
vt 1.005758 0.806095
vt 0.999047 0.439124
vt 0.999047 0.514646
vt 0.999047 0.440322
vt 0.999047 0.515844
vt 1.005758 0.998006
vt 0.131511 0.998006
vt 0.131511 0.998006
vt 1.005758 0.998006
vn -0.107416 -0.975229 0.193368
vn -0.107416 -0.975229 0.193368
vn -0.101973 -0.970562 0.218199
vn -0.101973 -0.970562 0.218199
vn -0.888878 0.452873 0.069298
vn -0.888878 0.452873 0.069298
vn -0.888878 0.452873 0.069298
vn -0.888878 0.452873 0.069298
vn -0.367744 0.882512 0.293149
vn -0.367744 0.882512 0.293149
vn -0.250750 0.926926 0.279165
vn -0.250750 0.926926 0.279165
vn 0.662144 -0.609885 0.435437
vn 0.662144 -0.609885 0.435437
vn 0.662144 -0.609885 0.435437
vn 0.662144 -0.609885 0.435437
vn -0.497995 -0.143734 0.855185
vn -0.497995 -0.143734 0.855185
vn -0.468844 -0.161377 0.868414
vn -0.468844 -0.161377 0.868414
vn 0.420429 0.253500 -0.871193
vn 0.420429 0.253500 -0.871193
vn 0.394147 0.250820 -0.884159
vn 0.394147 0.250820 -0.884159
vn -0.096461 -0.965248 0.242884
vn -0.096461 -0.965248 0.242884
vn -0.129781 0.956642 0.260755
vn -0.129781 0.956642 0.260755
vn -0.439067 -0.178805 0.880482
vn -0.439067 -0.178805 0.880482
vn 0.367524 0.247924 -0.896359
vn 0.367524 0.247924 -0.896359
vn 0.958047 0.164886 -0.234434
vn 0.958047 0.164886 -0.234434
vn 0.958047 0.164886 -0.234434
vn 0.958047 0.164886 -0.234434
vn 0.148299 0.336532 0.929921
vn 0.148299 0.336532 0.929921
vn 0.148299 0.336532 0.929921
vn 0.148299 0.336532 0.929921
vn -0.673490 0.730932 -0.110225
vn -0.673490 0.730932 -0.110225
vn -0.673490 0.730932 -0.110225
vn -0.673490 0.730932 -0.110225
vn 0.197403 0.499064 -0.843782
vn 0.197403 0.499064 -0.843782
vn 0.197403 0.499064 -0.843782
vn 0.197403 0.499064 -0.843782
vn 0.445099 0.865608 -0.229370
vn 0.445099 0.865608 -0.229370
vn 0.445099 0.865608 -0.229370
vn 0.445099 0.865608 -0.229370
vn -0.439314 -0.873124 0.211323
vn -0.439314 -0.873124 0.211323
vn -0.439314 -0.873124 0.211323
vn -0.439314 -0.873124 0.211323
vn -0.688662 0.716860 0.108890
vn -0.688662 0.716860 0.108890
vn -0.688662 0.716860 0.108890
vn -0.688662 0.716860 0.108890
vn 0.148599 0.337348 -0.929578
vn 0.148599 0.337348 -0.929578
vn 0.148599 0.337348 -0.929578
vn 0.148599 0.337348 -0.929578
vn 0.951581 0.196002 0.236807
vn 0.951581 0.196002 0.236807
vn 0.951581 0.196002 0.236807
vn 0.951581 0.196002 0.236807
vn 0.201217 0.498010 0.843503
vn 0.201217 0.498010 0.843503
vn 0.201217 0.498010 0.843503
vn 0.201217 0.498010 0.843503
vn 0.448406 0.863775 0.229835
vn 0.448406 0.863775 0.229835
vn 0.448406 0.863775 0.229835
vn 0.448406 0.863775 0.229835
vn -0.441216 -0.871926 -0.212305
vn -0.441216 -0.871926 -0.212305
vn -0.441216 -0.871926 -0.212305
vn -0.441216 -0.871926 -0.212305
vn 0.228585 0.327057 0.916942
vn 0.228585 0.327057 0.916942
vn 0.228585 0.327057 0.916942
vn 0.228585 0.327057 0.916942
vn -0.423647 0.895723 -0.134921
vn -0.423647 0.895723 -0.134921
vn -0.423647 0.895723 -0.134921
vn -0.423647 0.895723 -0.134921
vn 0.050990 0.090805 -0.994563
vn 0.050990 0.090805 -0.994563
vn 0.050990 0.090805 -0.994563
vn 0.050990 0.090805 -0.994563
vn 0.552731 -0.815587 -0.171192
vn 0.552731 -0.815587 -0.171192
vn 0.552731 -0.815587 -0.171192
vn 0.552731 -0.815587 -0.171192
vn 0.542342 0.813086 -0.211555
vn 0.542342 0.813086 -0.211555
vn 0.542342 0.813086 -0.211555
vn 0.542342 0.813086 -0.211555
vn -0.513896 -0.836192 0.191555
vn -0.513896 -0.836192 0.191555
vn -0.513896 -0.836192 0.191555
vn -0.513896 -0.836192 0.191555
vn 0.262200 0.463374 -0.846484
vn 0.262200 0.463374 -0.846484
vn 0.346821 0.324286 -0.880087
vn 0.346821 0.324286 -0.880087
vn 0.398766 -0.917051 -0.001614
vn 0.398766 -0.917051 -0.001614
vn 0.398766 -0.917051 -0.001614
vn 0.398766 -0.917051 -0.001614
vn 0.298049 0.365513 0.881798
vn 0.298049 0.365513 0.881798
vn 0.241514 0.417226 0.876124
vn 0.241514 0.417226 0.876124
vn -0.276143 0.961116 0.000790
vn -0.276143 0.961116 0.000790
vn -0.276143 0.961116 0.000790
vn -0.276143 0.961116 0.000790
vn 0.360844 0.932626 -0.000030
vn 0.360844 0.932626 -0.000030
vn 0.491936 0.870632 -0.000015
vn 0.491936 0.870632 -0.000015
vn -0.368517 -0.929621 0.000037
vn -0.368517 -0.929621 0.000037
vn -0.518062 -0.855343 0.000040
vn -0.518062 -0.855343 0.000040
vn 0.421858 0.176236 -0.889369
vn 0.421858 0.176236 -0.889369
vn 0.183555 0.466476 0.865279
vn 0.183555 0.466476 0.865279
vn 0.612683 0.790329 -0.000000
vn 0.612683 0.790329 -0.000000
vn -0.653163 -0.757217 0.000043
vn -0.653163 -0.757217 0.000043
vn 0.421836 0.175753 0.889475
vn 0.421836 0.175753 0.889475
vn 0.347046 0.323752 0.880195
vn 0.347046 0.323752 0.880195
vn -0.276061 0.961140 0.000000
vn -0.276061 0.961140 0.000000
vn -0.276061 0.961140 0.000000
vn -0.276061 0.961140 0.000000
vn 0.156728 0.399585 -0.903199
vn 0.156728 0.399585 -0.903199
vn 0.205601 0.356430 -0.911420
vn 0.205601 0.356430 -0.911420
vn 0.398767 -0.917052 0.000000
vn 0.398767 -0.917052 0.000000
vn 0.398767 -0.917052 0.000000
vn 0.398767 -0.917052 0.000000
vn 0.612683 0.790329 0.000000
vn 0.612683 0.790329 0.000000
vn 0.491946 0.870626 0.000000
vn 0.491946 0.870626 0.000000
vn -0.653134 -0.757243 0.000000
vn -0.653134 -0.757243 0.000000
vn -0.518054 -0.855348 0.000000
vn -0.518054 -0.855348 0.000000
vn 0.262683 0.462821 0.846637
vn 0.262683 0.462821 0.846637
vn 0.253586 0.311736 -0.915705
vn 0.253586 0.311736 -0.915705
vn 0.360865 0.932618 0.000000
vn 0.360865 0.932618 0.000000
vn -0.368536 -0.929614 0.000000
vn -0.368536 -0.929614 0.000000
vn 0.228073 0.327866 -0.916781
vn 0.228073 0.327866 -0.916781
vn 0.228073 0.327866 -0.916781
vn 0.228073 0.327866 -0.916781
vn 0.552861 -0.815700 0.170230
vn 0.552861 -0.815700 0.170230
vn 0.552861 -0.815700 0.170230
vn 0.552861 -0.815700 0.170230
vn 0.052469 0.090701 0.994495
vn 0.052469 0.090701 0.994495
vn 0.052469 0.090701 0.994495
vn 0.052469 0.090701 0.994495
vn -0.423489 0.895643 0.135946
vn -0.423489 0.895643 0.135946
vn -0.423489 0.895643 0.135946
vn -0.423489 0.895643 0.135946
vn 0.542510 0.812924 0.211751
vn 0.542510 0.812924 0.211751
vn 0.542510 0.812924 0.211751
vn 0.542510 0.812924 0.211751
vn -0.514067 -0.836045 -0.191739
vn -0.514067 -0.836045 -0.191739
vn -0.514067 -0.836045 -0.191739
vn -0.514067 -0.836045 -0.191739
vn -0.602288 -0.243308 -0.760296
vn -0.602288 -0.243308 -0.760296
vn -0.602288 -0.243308 -0.760296
vn -0.602288 -0.243308 -0.760296
vn 0.035525 -0.888860 -0.456800
vn 0.035525 -0.888860 -0.456800
vn 0.172862 -0.878801 -0.444777
vn 0.172862 -0.878801 -0.444777
vn 0.833028 0.510045 -0.214286
vn 0.833028 0.510045 -0.214286
vn 0.833028 0.510045 -0.214286
vn 0.833028 0.510045 -0.214286
vn 0.343696 0.895056 -0.284163
vn 0.343696 0.895056 -0.284163
vn 0.204917 0.931357 -0.300971
vn 0.204917 0.931357 -0.300971
vn 0.107522 -0.166281 -0.980199
vn 0.328031 -0.104759 -0.938841
vn 0.328031 -0.104759 -0.938841
vn 0.107522 -0.166281 -0.980199
vn -0.493587 0.011376 0.869622
vn -0.299013 0.057245 0.952531
vn -0.299013 0.057245 0.952531
vn -0.493587 0.011376 0.869622
vn 0.306896 -0.851951 -0.424257
vn 0.306896 -0.851951 -0.424257
vn 0.061864 0.948230 -0.311502
vn 0.061864 0.948230 -0.311502
vn 0.530786 -0.037567 -0.846673
vn 0.530786 -0.037567 -0.846673
vn -0.090433 0.100432 0.990826
vn -0.090433 0.100432 0.990826
vn 0.602290 0.243308 -0.760295
vn 0.602290 0.243308 -0.760295
vn 0.602290 0.243308 -0.760295
vn 0.602290 0.243308 -0.760295
vn -0.035525 0.888861 -0.456798
vn -0.035525 0.888861 -0.456798
vn -0.172862 0.878802 -0.444776
vn -0.172862 0.878802 -0.444776
vn -0.833029 -0.510044 -0.214286
vn -0.833029 -0.510044 -0.214286
vn -0.833029 -0.510044 -0.214286
vn -0.833029 -0.510044 -0.214286
vn -0.343697 -0.895055 -0.284163
vn -0.343697 -0.895055 -0.284163
vn -0.204918 -0.931357 -0.300971
vn -0.204918 -0.931357 -0.300971
vn -0.107522 0.166281 -0.980199
vn -0.328030 0.104759 -0.938841
vn -0.328030 0.104759 -0.938841
vn -0.107522 0.166281 -0.980199
vn 0.493587 -0.011376 0.869622
vn 0.299012 -0.057245 0.952531
vn 0.299012 -0.057245 0.952531
vn 0.493587 -0.011376 0.869622
vn -0.306896 0.851952 -0.424256
vn -0.306896 0.851952 -0.424256
vn -0.061864 -0.948230 -0.311501
vn -0.061864 -0.948230 -0.311501
vn -0.530786 0.037567 -0.846673
vn -0.530786 0.037567 -0.846673
vn 0.090433 -0.100432 0.990826
vn 0.090433 -0.100432 0.990826
vn -0.091669 -0.969257 -0.228336
vn -0.091669 -0.969257 -0.228336
vn -0.096612 -0.973984 -0.204991
vn -0.096612 -0.973984 -0.204991
vn 0.666006 -0.608539 -0.431412
vn 0.666006 -0.608539 -0.431412
vn 0.666006 -0.608539 -0.431412
vn 0.666006 -0.608539 -0.431412
vn -0.144627 0.945727 -0.291005
vn -0.144627 0.945727 -0.291005
vn -0.264893 0.913898 -0.307607
vn -0.264893 0.913898 -0.307607
vn -0.888716 0.453393 -0.067962
vn -0.888716 0.453393 -0.067962
vn -0.888716 0.453393 -0.067962
vn -0.888716 0.453393 -0.067962
vn -0.441141 -0.180384 -0.879122
vn -0.441141 -0.180384 -0.879122
vn -0.470593 -0.163254 -0.867117
vn -0.470593 -0.163254 -0.867117
vn 0.370424 0.245440 0.895849
vn 0.370424 0.245440 0.895849
vn 0.396196 0.248961 0.883769
vn 0.396196 0.248961 0.883769
vn -0.101498 -0.978135 -0.181524
vn -0.101498 -0.978135 -0.181524
vn -0.380986 0.867673 -0.319363
vn -0.380986 0.867673 -0.319363
vn -0.499430 -0.145910 -0.853979
vn -0.499430 -0.145910 -0.853979
vn 0.421643 0.252278 0.870961
vn 0.421643 0.252278 0.870961
s 1
g polySurface45
usemtl platewall2
f 1/9/1 2/10/2 10/27/3 9/26/4
s off
f 3/13/5 4/14/6 6/15/7 5/16/8
s 2
f 5/17/9 6/18/10 12/31/11 11/30/12
s off
f 7/21/13 8/22/14 2/23/15 1/24/16
s 3
f 2/2/17 8/7/18 12/32/19 10/28/20
s 4
f 7/8/21 1/1/22 9/25/23 11/29/24
s 1
f 9/26/4 10/27/3 4/11/25 3/12/26
s 2
f 11/30/12 12/31/11 8/19/27 7/20/28
s 3
f 10/28/20 12/32/19 6/5/29 4/3/30
s 4
f 11/29/24 9/25/23 3/4/31 5/6/32
s off
f 13/33/33 14/34/34 16/35/35 15/36/36
f 15/37/37 16/38/38 18/39/39 17/40/40
f 17/41/41 18/42/42 20/43/43 19/44/44
f 19/45/45 20/46/46 14/47/47 13/48/48
f 14/49/49 20/50/50 18/51/51 16/52/52
f 19/53/53 13/54/54 15/55/55 17/56/56
f 21/57/57 22/58/58 24/59/59 23/60/60
f 23/61/61 24/62/62 26/63/63 25/64/64
f 25/65/65 26/66/66 28/67/67 27/68/68
f 27/69/69 28/70/70 22/71/71 21/72/72
f 22/73/73 28/74/74 26/75/75 24/76/76
f 27/77/77 21/78/78 23/79/79 25/80/80
f 29/81/81 30/82/82 32/83/83 31/84/84
f 31/85/85 32/86/86 34/87/87 33/88/88
f 33/89/89 34/90/90 36/91/91 35/92/92
f 35/93/93 36/94/94 30/95/95 29/96/96
f 30/97/97 36/98/98 34/99/99 32/100/100
f 35/101/101 29/102/102 31/103/103 33/104/104
s 5
f 37/105/105 38/106/106 46/107/107 45/108/108
s off
f 39/109/109 40/110/110 42/111/111 41/112/112
s 6
f 41/113/113 42/114/114 48/115/115 47/116/116
s off
f 43/117/117 44/118/118 38/119/119 37/120/120
s 7
f 38/121/121 44/122/122 48/123/123 46/124/124
s 8
f 43/125/125 37/126/126 45/127/127 47/128/128
s 5
f 45/108/108 46/107/107 40/129/129 39/130/130
s 6
f 47/116/116 48/115/115 44/131/131 43/132/132
s 7
f 46/124/124 48/123/123 42/133/133 40/134/134
s 8
f 47/128/128 45/127/127 39/135/135 41/136/136
s 9
f 49/137/137 50/138/138 58/139/139 57/140/140
s off
f 51/141/141 52/142/142 54/143/143 53/144/144
s 10
f 53/145/145 54/146/146 60/147/147 59/148/148
s off
f 55/149/149 56/150/150 50/151/151 49/152/152
s 11
f 50/153/153 56/154/154 60/155/155 58/156/156
s 12
f 55/157/157 49/158/158 57/159/159 59/160/160
s 9
f 57/140/140 58/139/139 52/161/161 51/162/162
s 10
f 59/148/148 60/147/147 56/163/163 55/164/164
s 11
f 58/156/156 60/155/155 54/165/165 52/166/166
s 12
f 59/160/160 57/159/159 51/167/167 53/168/168
s off
f 61/169/169 62/170/170 64/171/171 63/172/172
f 63/173/173 64/174/174 66/175/175 65/176/176
f 65/177/177 66/178/178 68/179/179 67/180/180
f 67/181/181 68/182/182 62/183/183 61/184/184
f 62/185/185 68/186/186 66/187/187 64/188/188
f 67/189/189 61/190/190 63/191/191 65/192/192
f 69/193/193 70/194/194 72/195/195 71/196/196
s 13
f 71/197/197 72/198/198 78/199/199 77/200/200
s off
f 73/201/201 74/202/202 76/203/203 75/204/204
s 14
f 75/205/205 76/206/206 80/207/207 79/208/208
s 15
f 70/209/209 80/210/210 78/211/211 72/212/212
s 16
f 75/213/213 79/214/214 77/215/215 73/216/216
s 13
f 77/200/200 78/199/199 74/217/217 73/218/218
s 14
f 79/208/208 80/207/207 70/219/219 69/220/220
s 15
f 78/211/211 80/210/210 76/221/221 74/222/222
s 16
f 77/215/215 79/214/214 69/223/223 71/224/224
s off
f 81/225/225 82/226/226 84/227/227 83/228/228
s 17
f 83/229/229 84/230/230 90/231/231 89/232/232
s off
f 85/233/233 86/234/234 88/235/235 87/236/236
s 18
f 87/237/237 88/238/238 92/239/239 91/240/240
s 19
f 82/241/241 92/242/242 90/243/243 84/244/244
s 20
f 87/245/245 91/246/246 89/247/247 85/248/248
s 17
f 89/232/232 90/231/231 86/249/249 85/250/250
s 18
f 91/240/240 92/239/239 82/251/251 81/252/252
s 19
f 90/243/243 92/242/242 88/253/253 86/254/254
s 20
f 89/247/247 91/246/246 81/255/255 83/256/256
s 21
f 93/257/257 94/258/258 102/259/259 101/260/260
s off
f 95/261/261 96/262/262 98/263/263 97/264/264
s 22
f 97/265/265 98/266/266 104/267/267 103/268/268
s off
f 99/269/269 100/270/270 94/271/271 93/272/272
s 23
f 94/273/273 100/274/274 104/275/275 102/276/276
s 24
f 99/277/277 93/278/278 101/279/279 103/280/280
s 21
f 101/260/260 102/259/259 96/281/281 95/282/282
s 22
f 103/268/268 104/267/267 100/283/283 99/284/284
s 23
f 102/276/276 104/275/275 98/285/285 96/286/286
s 24
f 103/280/280 101/279/279 95/287/287 97/288/288
