# This file uses centimeters as units for non-parametric coordinates.

mtllib constructor_unit_regenerating.mtl
g default
v -42.906117 -1.706930 19.188694
v -56.919036 -1.706930 12.785844
v -68.301020 -1.706930 18.183515
v -76.956231 -1.706930 20.250452
v -76.956231 -1.706930 36.209939
v -68.301023 -1.706930 38.276876
v -56.919039 -1.706930 43.674547
v -42.906117 -1.706930 37.271700
v -40.030261 0.111788 16.416906
v -53.655367 0.111788 8.051183
v -71.564691 0.111788 15.103577
v -82.188185 0.111788 17.804162
v -82.188185 0.111788 38.656231
v -71.564691 0.111788 41.356814
v -53.655367 0.111788 48.409208
v -40.030261 0.111788 40.043485
v -39.020400 3.030891 15.443585
v -52.509320 3.030891 6.388584
v -72.710740 3.030891 14.022044
v -84.025395 3.030891 16.945135
v -84.025393 3.030891 39.515253
v -72.710742 3.030891 42.438347
v -52.509320 3.030891 50.071809
v -39.020400 3.030891 41.016812
v -40.030261 7.818828 16.416906
v -53.655367 7.818828 8.051183
v -71.564691 7.818828 15.103577
v -82.188185 7.818828 17.804162
v -82.188185 7.818828 38.656231
v -71.564691 7.818828 41.356814
v -53.655367 7.818828 48.409208
v -40.030261 7.818828 40.043485
v -42.906117 11.509279 19.188694
v -56.919036 11.509279 12.785844
v -68.301020 11.509279 18.183515
v -76.956231 11.509279 20.250452
v -76.956231 11.509279 36.209939
v -68.301023 11.509279 38.276876
v -56.919039 11.509279 43.674547
v -42.906117 11.509279 37.271700
v -63.518995 -1.706930 12.062141
v -63.518996 -1.706930 44.398250
v -63.518994 0.111788 7.105621
v -63.518994 0.111788 49.354770
v -63.518995 3.030891 5.365120
v -63.518993 3.030891 51.095272
v -63.518994 7.818828 7.105621
v -63.518994 7.818828 49.354770
v -63.518995 11.509279 12.062141
v -63.518996 11.509279 44.398250
v -79.792038 -1.706930 28.240884
v -42.151381 -1.706930 28.244709
v -85.238797 0.111788 28.240883
v -39.157454 0.111788 28.244710
v -87.151434 3.030891 28.240884
v -38.106133 3.030891 28.244710
v -85.238797 7.818828 28.240883
v -39.157454 7.818828 28.244710
v -79.792038 11.509279 28.240884
v -42.151381 11.509279 28.244709
v -41.197398 9.682658 17.659240
v -55.114234 9.682658 10.173284
v -70.097964 9.682658 16.484024
v -80.064845 9.682658 18.900606
v -80.064845 9.682658 37.559786
v -70.097964 9.682658 39.976368
v -55.114234 9.682658 46.287105
v -41.197398 9.682658 38.801151
v -63.514687 9.682658 9.327161
v -63.514688 9.682658 47.133230
v -83.028281 9.682658 28.241045
v -40.372511 9.682658 28.244929
v -39.123004 5.634121 15.691796
v -52.796580 5.634121 6.812574
v -72.413483 5.634121 14.297851
v -83.838732 5.634121 17.164199
v -83.838732 5.634121 39.296189
v -72.413485 5.634121 42.162540
v -52.796580 5.634121 49.647819
v -39.123004 5.634121 40.768598
v -63.513517 5.634121 5.808969
v -63.513517 5.634121 50.651422
v -86.957100 5.634121 28.241089
v -38.212950 5.634121 28.244989
vt 1.226151 0.086430
vt 1.127908 0.086430
vt -0.233795 0.086430
vt -0.127844 0.086430
vt 0.127908 0.086430
vt 0.233858 0.086430
vt 0.773913 0.086430
vt 0.872156 0.086430
vt 1.227033 0.380403
vt 1.141571 0.380403
vt -0.232868 0.380403
vt -0.141507 0.380403
vt 0.141571 0.380403
vt 0.232932 0.380403
vt 0.773030 0.380403
vt 0.858493 0.380403
vt 1.227253 0.560274
vt 1.145396 0.560274
vt -0.232639 0.560274
vt -0.145332 0.560274
vt 0.145396 0.560274
vt 0.232703 0.560274
vt 0.772810 0.560274
vt 0.854668 0.560274
vt 1.227033 0.735625
vt 1.141571 0.735625
vt -0.232868 0.735625
vt -0.141507 0.735625
vt 0.141571 0.735625
vt 0.232932 0.735625
vt 0.773030 0.735625
vt 0.858493 0.735625
vt 1.226151 0.953524
vt 1.127908 0.953524
vt -0.233795 0.953524
vt -0.127844 0.953524
vt 0.127908 0.953524
vt 0.233858 0.953524
vt 0.773913 0.953524
vt 0.872156 0.953524
vt 1.766205 0.086430
vt 1.767132 0.380403
vt 1.767361 0.560274
vt 1.767132 0.735625
vt 1.766205 0.953524
vt 1.495546 0.086430
vt 0.504518 0.086430
vt 1.496599 0.380403
vt 0.503465 0.380403
vt 1.496860 0.560274
vt 0.503204 0.560274
vt 1.496599 0.735625
vt 0.503465 0.735625
vt 1.495546 0.953524
vt 0.504518 0.953524
vt 0.000203 0.086430
vt 0.999861 0.086430
vt 0.000177 0.380403
vt 0.999887 0.380403
vt 0.000170 0.560274
vt 0.999894 0.560274
vt 0.000177 0.735625
vt 0.999887 0.735625
vt 0.000203 0.953524
vt 0.999861 0.953524
vt 1.134670 0.853018
vt 1.226588 0.853018
vt 1.766664 0.853018
vt -0.233336 0.853018
vt -0.134607 0.853018
vt 0.134670 0.853018
vt 0.233400 0.853018
vt 0.773476 0.853018
vt 0.865393 0.853018
vt 1.496067 0.853018
vt 0.503997 0.853018
vt 0.000190 0.853018
vt 0.999874 0.853018
vt 1.143491 0.647623
vt 1.227144 0.647623
vt 1.767246 0.647623
vt -0.232753 0.647623
vt -0.143427 0.647623
vt 0.143491 0.647623
vt 0.232817 0.647623
vt 0.772920 0.647623
vt 0.856573 0.647623
vt 1.496730 0.647623
vt 0.503334 0.647623
vt 0.000173 0.647623
vt 0.999890 0.647623
vn 0.349313 -0.919147 -0.182069
vn 0.101674 -0.938935 -0.328729
vn 0.201351 -0.774307 -0.599922
vn 0.587143 -0.741831 -0.323961
vn -0.141014 -0.937793 -0.317269
vn -0.228009 -0.774995 -0.589401
vn -0.210691 -0.909370 -0.358687
vn -0.207437 -0.941048 -0.267204
vn -0.404627 -0.789932 -0.460743
vn -0.343595 -0.716791 -0.606757
vn -0.302504 -0.953148 0.000104
vn -0.593365 -0.804934 0.000168
vn -0.207408 -0.941026 0.267305
vn -0.210691 -0.909370 0.358687
vn -0.343595 -0.716791 0.606757
vn -0.404558 -0.789881 0.460892
vn -0.141014 -0.937793 0.317269
vn -0.228009 -0.774996 0.589401
vn 0.101674 -0.938935 0.328729
vn 0.349288 -0.919146 0.182123
vn 0.587113 -0.741825 0.324029
vn 0.201351 -0.774307 0.599922
vn 0.513020 -0.858377 0.000054
vn 0.770369 -0.637599 0.000071
vn 0.323939 -0.191157 -0.926565
vn 0.851481 -0.188627 -0.489285
vn -0.328187 -0.185681 -0.926184
vn -0.671872 -0.229469 -0.704224
vn -0.478123 -0.159148 -0.863754
vn -0.966516 -0.256607 0.000246
vn -0.478123 -0.159148 0.863754
vn -0.671704 -0.229437 0.704395
vn -0.328187 -0.185681 0.926184
vn 0.851439 -0.188626 0.489359
vn 0.323939 -0.191157 0.926565
vn 0.988277 -0.152670 0.000083
vn 0.307240 0.349969 -0.884944
vn 0.822262 0.310708 -0.476809
vn -0.314130 0.345762 -0.884178
vn -0.638514 0.359501 -0.680484
vn -0.464032 0.288247 -0.837608
vn -0.926532 0.376216 0.000239
vn -0.464032 0.288247 0.837608
vn -0.638361 0.359449 0.680655
vn -0.314130 0.345762 0.884178
vn 0.822221 0.310704 0.476882
vn 0.307240 0.349970 0.884943
vn 0.974256 0.225446 0.000083
vn 0.693354 0.605278 -0.391022
vn 0.239717 0.653471 -0.717991
vn 0.177479 0.800272 -0.572770
vn 0.568942 0.756639 -0.322184
vn -0.271064 0.647705 -0.712042
vn -0.234653 0.798894 -0.553810
vn -0.402729 0.570838 -0.715509
vn -0.487193 0.675901 -0.552992
vn -0.375750 0.807083 -0.455444
vn -0.346003 0.730503 -0.588767
vn -0.703759 0.710439 0.000201
vn -0.550777 0.834653 0.000188
vn -0.487094 0.675836 0.553159
vn -0.402729 0.570838 0.715509
vn -0.346003 0.730503 0.588767
vn -0.375677 0.807023 0.455610
vn -0.271064 0.647705 0.712042
vn -0.234653 0.798894 0.553810
vn 0.239717 0.653471 0.717991
vn 0.693317 0.605273 0.391097
vn 0.568905 0.756633 0.322262
vn 0.177479 0.800272 0.572770
vn 0.878177 0.478336 0.000081
vn 0.775691 0.631112 0.000083
vn -0.228546 0.830351 -0.508217
vn -0.332409 0.768829 -0.546265
vn -0.228546 0.830351 0.508217
vn 0.156340 0.831838 0.532543
vn -0.473423 0.880835 0.000182
vn -0.326140 0.846841 0.420111
vn 0.711229 0.702961 0.000084
vn 0.509870 0.806242 -0.300010
vn 0.156340 0.831838 -0.532543
vn -0.326207 0.846897 -0.419947
vn -0.332409 0.768829 0.546265
vn 0.509831 0.806237 0.300090
s 1
g pSphere5
usemtl forcefield
f 1/2/1 2/1/2 10/9/3 9/10/4
f 2/1/2 41/46/5 43/48/6 10/9/3
f 3/3/7 4/4/8 12/12/9 11/11/10
f 4/4/8 51/56/11 53/58/12 12/12/9
f 5/5/13 6/6/14 14/14/15 13/13/16
f 6/6/14 42/47/17 44/49/18 14/14/15
f 7/7/19 8/8/20 16/16/21 15/15/22
f 8/8/20 52/57/23 54/59/24 16/16/21
f 9/10/4 10/9/3 18/17/25 17/18/26
f 10/9/3 43/48/6 45/50/27 18/17/25
f 11/11/10 12/12/9 20/20/28 19/19/29
f 12/12/9 53/58/12 55/60/30 20/20/28
f 13/13/16 14/14/15 22/22/31 21/21/32
f 14/14/15 44/49/18 46/51/33 22/22/31
f 15/15/22 16/16/21 24/24/34 23/23/35
f 16/16/21 54/59/24 56/61/36 24/24/34
f 17/18/26 18/17/25 74/80/37 73/79/38
f 18/17/25 45/50/27 81/88/39 74/80/37
f 19/19/29 20/20/28 76/83/40 75/82/41
f 20/20/28 55/60/30 83/90/42 76/83/40
f 21/21/32 22/22/31 78/85/43 77/84/44
f 22/22/31 46/51/33 82/89/45 78/85/43
f 23/23/35 24/24/34 80/87/46 79/86/47
f 24/24/34 56/61/36 84/91/48 80/87/46
f 25/26/49 26/25/50 62/67/51 61/66/52
f 26/25/50 47/52/53 69/75/54 62/67/51
f 27/27/55 28/28/56 64/70/57 63/69/58
f 28/28/56 57/62/59 71/77/60 64/70/57
f 29/29/61 30/30/62 66/72/63 65/71/64
f 30/30/62 48/53/65 70/76/66 66/72/63
f 31/31/67 32/32/68 68/74/69 67/73/70
f 32/32/68 58/63/71 72/78/72 68/74/69
f 43/48/6 41/46/5 3/41/7 11/42/10
f 44/49/18 42/47/17 7/7/19 15/15/22
f 45/50/27 43/48/6 11/42/10 19/43/29
f 46/51/33 44/49/18 15/15/22 23/23/35
f 47/52/53 81/88/39 75/81/41 27/44/55
f 48/53/65 82/89/45 79/86/47 31/31/67
f 49/54/73 69/75/54 63/68/58 35/45/74
f 50/55/75 70/76/66 67/73/70 39/39/76
f 53/58/12 51/56/11 5/5/13 13/13/16
f 54/59/24 52/57/23 1/2/1 9/10/4
f 55/60/30 53/58/12 13/13/16 21/21/32
f 56/61/36 54/59/24 9/10/4 17/18/26
f 57/62/59 83/90/42 77/84/44 29/29/61
f 58/63/71 84/91/48 73/79/38 25/26/49
f 59/64/77 71/77/60 65/71/64 37/37/78
f 60/65/79 72/78/72 61/66/52 33/34/80
f 61/66/52 62/67/51 34/33/81 33/34/80
f 62/67/51 69/75/54 49/54/73 34/33/81
f 63/69/58 64/70/57 36/36/82 35/35/74
f 64/70/57 71/77/60 59/64/77 36/36/82
f 65/71/64 66/72/63 38/38/83 37/37/78
f 66/72/63 70/76/66 50/55/75 38/38/83
f 67/73/70 68/74/69 40/40/84 39/39/76
f 68/74/69 72/78/72 60/65/79 40/40/84
f 63/68/58 69/75/54 47/52/53 27/44/55
f 67/73/70 70/76/66 48/53/65 31/31/67
f 65/71/64 71/77/60 57/62/59 29/29/61
f 61/66/52 72/78/72 58/63/71 25/26/49
f 73/79/38 74/80/37 26/25/50 25/26/49
f 74/80/37 81/88/39 47/52/53 26/25/50
f 75/82/41 76/83/40 28/28/56 27/27/55
f 76/83/40 83/90/42 57/62/59 28/28/56
f 77/84/44 78/85/43 30/30/62 29/29/61
f 78/85/43 82/89/45 48/53/65 30/30/62
f 79/86/47 80/87/46 32/32/68 31/31/67
f 80/87/46 84/91/48 58/63/71 32/32/68
f 75/81/41 81/88/39 45/50/27 19/43/29
f 79/86/47 82/89/45 46/51/33 23/23/35
f 77/84/44 83/90/42 55/60/30 21/21/32
f 73/79/38 84/91/48 56/61/36 17/18/26
