# This file uses centimeters as units for non-parametric coordinates.

mtllib flying_unit_plasma.mtl
g default
v 21.124016 -2.716796 -7.926030
v 14.368086 -2.716796 -12.032162
v -9.786783 -2.716796 -10.395729
v -16.648052 -2.716796 -8.256981
v -16.648052 -2.716796 8.256981
v -9.786786 -2.716796 10.395729
v 14.368083 -2.716796 12.032162
v 21.124016 -2.716796 7.926032
v 24.099785 -0.882829 -10.355855
v 17.745144 -0.882829 -15.720776
v -13.163843 -0.882829 -13.582672
v -22.061779 -0.882829 -10.788261
v -22.061779 -0.882829 10.788263
v -13.163843 -0.882829 13.582672
v 17.745144 -0.882829 15.720774
v 24.099785 -0.882829 10.355856
v 25.144732 2.060748 -11.209095
v 18.931007 2.060748 -17.016047
v -14.349709 2.060748 -14.701780
v -23.962818 2.060748 -11.677134
v -23.962818 2.060748 11.677130
v -14.349711 2.060748 14.701780
v 18.931007 2.060748 17.016048
v 25.144732 2.060748 11.209101
v 24.099785 6.888829 -10.355855
v 17.745144 6.888829 -15.720776
v -13.163843 6.888829 -13.582672
v -22.061779 6.888829 -10.788261
v -22.061779 6.888829 10.788263
v -13.163843 6.888829 13.582672
v 17.745144 6.888829 15.720774
v 24.099785 6.888829 10.355856
v 21.124016 10.610223 -7.926030
v 14.368086 10.610223 -12.032162
v -9.786783 10.610223 -10.395729
v -16.648052 10.610223 -8.256981
v -16.648052 10.610223 8.256981
v -9.786786 10.610223 10.395729
v 14.368083 10.610223 12.032162
v 21.124016 10.610223 7.926032
v 1.445318 -2.716796 -15.810480
v 1.445318 -2.716796 15.810480
v 1.445318 -0.882829 -20.657383
v 1.445318 -0.882829 20.657383
v 1.445318 2.060748 -22.359390
v 1.445320 2.060748 22.359390
v 1.445318 6.888829 -20.657383
v 1.445318 6.888829 20.657383
v 1.445318 10.610223 -15.810480
v 1.445318 10.610223 15.810480
v -19.582386 -2.716796 0.011059
v 22.158867 -2.716796 0.012723
v -25.218376 -0.882829 0.011059
v 25.256811 -0.882829 0.012724
v -27.197464 2.060748 0.011060
v 26.344658 2.060748 0.012724
v -25.218376 6.888829 0.011059
v 25.256811 6.888829 0.012724
v -19.582386 10.610223 0.011059
v 22.158867 10.610223 0.012723
v 22.892099 8.768286 -9.266791
v 16.235592 8.768286 -14.067516
v -11.646157 8.768286 -12.154264
v -19.864670 8.768286 -9.653725
v -19.864670 8.768286 9.653725
v -11.646157 8.768286 12.154264
v 16.235592 8.768286 14.067516
v 22.892099 8.768286 9.266792
v 1.449775 8.768286 -18.484972
v 1.449775 8.768286 18.484972
v -22.931063 8.768286 0.011226
v 23.999542 8.768286 0.012916
v 25.038563 4.685805 -10.991507
v 18.633766 4.685805 -16.685732
v -14.042126 4.685805 -14.416390
v -23.769670 4.685805 -11.450458
v -23.769672 4.685805 11.450455
v -14.042127 4.685805 14.416390
v 18.633766 4.685805 16.685732
v 25.038563 4.685805 10.991510
v 1.450986 4.685805 -21.925356
v 1.450987 4.685805 21.925356
v -26.996380 4.685805 0.011272
v 26.234131 4.685805 0.012969
vt 1.226151 0.001763
vt 1.127908 0.001763
vt -0.233795 0.001763
vt -0.127844 0.001763
vt 0.127908 0.001763
vt 0.233858 0.001763
vt 0.773913 0.001763
vt 0.872156 0.001763
vt 1.227033 0.380403
vt 1.141571 0.380403
vt -0.232868 0.380403
vt -0.141507 0.380403
vt 0.141571 0.380403
vt 0.232932 0.380403
vt 0.773030 0.380403
vt 0.858493 0.380403
vt 1.227253 0.560274
vt 1.145396 0.560274
vt -0.232639 0.560274
vt -0.145332 0.560274
vt 0.145396 0.560274
vt 0.232703 0.560274
vt 0.772810 0.560274
vt 0.854668 0.560274
vt 1.227033 0.735625
vt 1.141571 0.735625
vt -0.232868 0.735625
vt -0.141507 0.735625
vt 0.141571 0.735625
vt 0.232932 0.735625
vt 0.773030 0.735625
vt 0.858493 0.735625
vt 1.226151 0.999723
vt 1.127908 0.999723
vt -0.233795 0.999723
vt -0.127844 0.999723
vt 0.127908 0.999723
vt 0.233858 0.999723
vt 0.773913 0.999723
vt 0.872156 0.999723
vt 1.766205 0.001763
vt 1.767132 0.380403
vt 1.767361 0.560274
vt 1.767132 0.735625
vt 1.766205 0.999723
vt 1.495546 0.001763
vt 0.504518 0.001763
vt 1.496599 0.380403
vt 0.503465 0.380403
vt 1.496860 0.560274
vt 0.503204 0.560274
vt 1.496599 0.735625
vt 0.503465 0.735625
vt 1.495546 0.999723
vt 0.504518 0.999723
vt 0.000203 0.001763
vt 0.999861 0.001763
vt 0.000177 0.380403
vt 0.999887 0.380403
vt 0.000170 0.560274
vt 0.999894 0.560274
vt 0.000177 0.735625
vt 0.999887 0.735625
vt 0.000203 0.999723
vt 0.999861 0.999723
vt 1.134670 0.853018
vt 1.226588 0.853018
vt 1.766664 0.853018
vt -0.233336 0.853018
vt -0.134607 0.853018
vt 0.134670 0.853018
vt 0.233400 0.853018
vt 0.773476 0.853018
vt 0.865393 0.853018
vt 1.496067 0.853018
vt 0.503997 0.853018
vt 0.000190 0.853018
vt 0.999874 0.853018
vt 1.143491 0.647623
vt 1.227144 0.647623
vt 1.767246 0.647623
vt -0.232753 0.647623
vt -0.143427 0.647623
vt 0.143491 0.647623
vt 0.232817 0.647623
vt 0.772920 0.647623
vt 0.856573 0.647623
vt 1.496730 0.647623
vt 0.503334 0.647623
vt 0.000173 0.647623
vt 0.999890 0.647623
vn 0.369798 -0.909264 -0.191021
vn 0.167512 -0.926543 -0.336836
vn 0.315861 -0.748708 -0.582810
vn 0.620104 -0.718727 -0.314487
vn -0.031608 -0.933717 -0.356613
vn -0.053193 -0.764367 -0.642583
vn -0.146301 -0.916546 -0.372208
vn -0.212051 -0.945283 -0.247942
vn -0.414404 -0.797056 -0.439284
vn -0.252787 -0.726106 -0.639428
vn -0.295479 -0.955349 0.000102
vn -0.585566 -0.810625 0.000166
vn -0.212022 -0.945263 0.248041
vn -0.146301 -0.916546 0.372208
vn -0.252787 -0.726106 0.639428
vn -0.414338 -0.797009 0.439433
vn -0.031608 -0.933717 0.356613
vn -0.053193 -0.764367 0.642583
vn 0.167512 -0.926543 0.336836
vn 0.369766 -0.909260 0.191099
vn 0.620063 -0.718719 0.314588
vn 0.315860 -0.748708 0.582810
vn 0.499293 -0.866433 0.000080
vn 0.761374 -0.648314 0.000106
vn 0.484829 -0.178283 -0.856245
vn 0.878706 -0.177682 -0.443063
vn -0.077465 -0.180223 -0.980571
vn -0.690118 -0.234952 -0.684495
vn -0.362656 -0.164549 -0.917281
vn -0.965206 -0.261492 0.000246
vn -0.362656 -0.164549 0.917281
vn -0.689955 -0.234921 0.684671
vn -0.077465 -0.180223 0.980571
vn 0.878649 -0.177680 0.443176
vn 0.484829 -0.178283 0.856246
vn 0.987551 -0.157298 0.000124
vn 0.463680 0.321403 -0.825652
vn 0.853065 0.288081 -0.435075
vn -0.074331 0.334489 -0.939464
vn -0.654754 0.368203 -0.660094
vn -0.350089 0.297966 -0.888062
vn -0.923667 0.383196 0.000238
vn -0.350089 0.297965 0.888062
vn -0.654605 0.368153 0.660270
vn -0.074331 0.334489 0.939464
vn 0.853010 0.288076 0.435186
vn 0.463680 0.321403 0.825652
vn 0.972589 0.232531 0.000123
vn 0.726456 0.576126 -0.374621
vn 0.373190 0.617170 -0.692698
vn 0.284430 0.769378 -0.571977
vn 0.599179 0.731634 -0.325108
vn -0.063371 0.633668 -0.771005
vn -0.052737 0.787406 -0.614175
vn -0.296447 0.585896 -0.754218
vn -0.497536 0.687535 -0.528917
vn -0.384253 0.817092 -0.429779
vn -0.242762 0.745997 -0.620125
vn -0.694748 0.719254 0.000198
vn -0.541051 0.840990 0.000184
vn -0.497441 0.687475 0.529085
vn -0.296447 0.585896 0.754218
vn -0.242762 0.745997 0.620125
vn -0.384182 0.817038 0.429945
vn -0.063371 0.633668 0.771005
vn -0.052737 0.787406 0.614175
vn 0.373189 0.617170 0.692698
vn 0.726404 0.576118 0.374733
vn 0.599128 0.731624 0.325226
vn 0.284430 0.769378 0.571977
vn 0.871033 0.491224 0.000121
vn 0.764445 0.644689 0.000124
vn -0.049953 0.819880 -0.570352
vn -0.225681 0.784741 -0.577278
vn -0.049953 0.819880 0.570352
vn 0.252507 0.804480 0.537635
vn -0.463986 0.885842 0.000178
vn -0.334503 0.856216 0.393704
vn 0.698338 0.715768 0.000126
vn 0.537118 0.785126 -0.308354
vn 0.252507 0.804480 -0.537636
vn -0.334567 0.856266 -0.393541
vn -0.225681 0.784741 0.577278
vn 0.537063 0.785116 0.308473
s 1
g pSphere9
usemtl forcefield1
f 1/2/1 2/1/2 10/9/3 9/10/4
f 2/1/2 41/46/5 43/48/6 10/9/3
f 3/3/7 4/4/8 12/12/9 11/11/10
f 4/4/8 51/56/11 53/58/12 12/12/9
f 5/5/13 6/6/14 14/14/15 13/13/16
f 6/6/14 42/47/17 44/49/18 14/14/15
f 7/7/19 8/8/20 16/16/21 15/15/22
f 8/8/20 52/57/23 54/59/24 16/16/21
f 9/10/4 10/9/3 18/17/25 17/18/26
f 10/9/3 43/48/6 45/50/27 18/17/25
f 11/11/10 12/12/9 20/20/28 19/19/29
f 12/12/9 53/58/12 55/60/30 20/20/28
f 13/13/16 14/14/15 22/22/31 21/21/32
f 14/14/15 44/49/18 46/51/33 22/22/31
f 15/15/22 16/16/21 24/24/34 23/23/35
f 16/16/21 54/59/24 56/61/36 24/24/34
f 17/18/26 18/17/25 74/80/37 73/79/38
f 18/17/25 45/50/27 81/88/39 74/80/37
f 19/19/29 20/20/28 76/83/40 75/82/41
f 20/20/28 55/60/30 83/90/42 76/83/40
f 21/21/32 22/22/31 78/85/43 77/84/44
f 22/22/31 46/51/33 82/89/45 78/85/43
f 23/23/35 24/24/34 80/87/46 79/86/47
f 24/24/34 56/61/36 84/91/48 80/87/46
f 25/26/49 26/25/50 62/67/51 61/66/52
f 26/25/50 47/52/53 69/75/54 62/67/51
f 27/27/55 28/28/56 64/70/57 63/69/58
f 28/28/56 57/62/59 71/77/60 64/70/57
f 29/29/61 30/30/62 66/72/63 65/71/64
f 30/30/62 48/53/65 70/76/66 66/72/63
f 31/31/67 32/32/68 68/74/69 67/73/70
f 32/32/68 58/63/71 72/78/72 68/74/69
f 43/48/6 41/46/5 3/41/7 11/42/10
f 44/49/18 42/47/17 7/7/19 15/15/22
f 45/50/27 43/48/6 11/42/10 19/43/29
f 46/51/33 44/49/18 15/15/22 23/23/35
f 47/52/53 81/88/39 75/81/41 27/44/55
f 48/53/65 82/89/45 79/86/47 31/31/67
f 49/54/73 69/75/54 63/68/58 35/45/74
f 50/55/75 70/76/66 67/73/70 39/39/76
f 53/58/12 51/56/11 5/5/13 13/13/16
f 54/59/24 52/57/23 1/2/1 9/10/4
f 55/60/30 53/58/12 13/13/16 21/21/32
f 56/61/36 54/59/24 9/10/4 17/18/26
f 57/62/59 83/90/42 77/84/44 29/29/61
f 58/63/71 84/91/48 73/79/38 25/26/49
f 59/64/77 71/77/60 65/71/64 37/37/78
f 60/65/79 72/78/72 61/66/52 33/34/80
f 61/66/52 62/67/51 34/33/81 33/34/80
f 62/67/51 69/75/54 49/54/73 34/33/81
f 63/69/58 64/70/57 36/36/82 35/35/74
f 64/70/57 71/77/60 59/64/77 36/36/82
f 65/71/64 66/72/63 38/38/83 37/37/78
f 66/72/63 70/76/66 50/55/75 38/38/83
f 67/73/70 68/74/69 40/40/84 39/39/76
f 68/74/69 72/78/72 60/65/79 40/40/84
f 63/68/58 69/75/54 47/52/53 27/44/55
f 67/73/70 70/76/66 48/53/65 31/31/67
f 65/71/64 71/77/60 57/62/59 29/29/61
f 61/66/52 72/78/72 58/63/71 25/26/49
f 73/79/38 74/80/37 26/25/50 25/26/49
f 74/80/37 81/88/39 47/52/53 26/25/50
f 75/82/41 76/83/40 28/28/56 27/27/55
f 76/83/40 83/90/42 57/62/59 28/28/56
f 77/84/44 78/85/43 30/30/62 29/29/61
f 78/85/43 82/89/45 48/53/65 30/30/62
f 79/86/47 80/87/46 32/32/68 31/31/67
f 80/87/46 84/91/48 58/63/71 32/32/68
f 75/81/41 81/88/39 45/50/27 19/43/29
f 79/86/47 82/89/45 46/51/33 23/23/35
f 77/84/44 83/90/42 55/60/30 21/21/32
f 73/79/38 84/91/48 56/61/36 17/18/26
