# This file uses centimeters as units for non-parametric coordinates.

mtllib flying_unit_regenerating.mtl
g default
v 20.462414 -2.124036 -7.659904
v 13.933325 -2.124036 -11.628169
v -9.410519 -2.124036 -10.046680
v -16.041414 -2.124036 -7.979744
v -16.041414 -2.124036 7.979743
v -9.410522 -2.124036 10.046680
v 13.933321 -2.124036 11.628168
v 20.462414 -2.124036 7.659907
v 23.338272 -0.498488 -10.008146
v 17.196993 -0.498488 -15.192932
v -12.674191 -0.498488 -13.126618
v -21.273369 -0.498488 -10.426034
v -21.273369 -0.498488 10.426035
v -12.674191 -0.498488 13.126618
v 17.196993 -0.498488 15.192932
v 23.338272 -0.498488 10.008146
v 24.348133 2.110570 -10.832737
v 18.343040 2.110570 -16.444714
v -13.820238 2.110570 -14.208152
v -23.110579 2.110570 -11.285061
v -23.110577 2.110570 11.285057
v -13.820242 2.110570 14.208152
v 18.343040 2.110570 16.444715
v 24.348133 2.110570 10.832743
v 23.338272 6.389970 -10.008146
v 17.196993 6.389970 -15.192932
v -12.674191 6.389970 -13.126618
v -21.273369 6.389970 -10.426034
v -21.273369 6.389970 10.426035
v -12.674191 6.389970 13.126618
v 17.196993 6.389970 15.192932
v 23.338272 6.389970 10.008146
v 20.462414 9.688451 -7.659904
v 13.933325 9.688451 -11.628169
v -9.410519 9.688451 -10.046680
v -16.041414 9.688451 -7.979744
v -16.041414 9.688451 7.979743
v -9.410522 9.688451 10.046680
v 13.933321 9.688451 11.628168
v 20.462414 9.688451 7.659907
v 1.444452 -2.124036 -15.279626
v 1.444452 -2.124036 15.279626
v 1.444453 -0.498488 -19.963789
v 1.444453 -0.498488 19.963789
v 1.444452 2.110570 -21.608650
v 1.444454 2.110570 21.608650
v 1.444453 6.389970 -19.963789
v 1.444453 6.389970 19.963789
v 1.444452 9.688451 -15.279626
v 1.444452 9.688451 15.279626
v -18.877222 -2.124036 0.010688
v 21.462521 -2.124036 0.012296
v -24.323980 -0.498488 0.010688
v 24.456448 -0.498488 0.012297
v -26.236618 2.110570 0.010688
v 25.507771 2.110570 0.012297
v -24.323980 6.389970 0.010688
v 24.456448 6.389970 0.012297
v -18.877222 9.688451 0.010688
v 21.462521 9.688451 0.012296
v 22.171135 8.055839 -8.955648
v 15.738126 8.055839 -13.595184
v -11.207462 8.055839 -11.746172
v -19.150028 8.055839 -9.329590
v -19.150028 8.055839 9.329591
v -11.207462 8.055839 11.746172
v 15.738126 8.055839 13.595184
v 22.171135 8.055839 8.955649
v 1.448760 8.055839 -17.864319
v 1.448759 8.055839 17.864319
v -22.113464 8.055839 0.010850
v 23.241394 8.055839 0.012483
v 24.245529 4.437306 -10.622456
v 18.055780 4.437306 -16.125490
v -13.522984 4.437306 -13.932344
v -22.923916 4.437306 -11.065996
v -22.923916 4.437306 11.065993
v -13.522985 4.437306 13.932344
v 18.055780 4.437306 16.125490
v 24.245529 4.437306 10.622458
v 1.449929 4.437306 -21.189188
v 1.449930 4.437306 21.189188
v -26.042284 4.437306 0.010894
v 25.400953 4.437306 0.012533
vt 1.226151 0.086430
vt 1.127908 0.086430
vt -0.233795 0.086430
vt -0.127844 0.086430
vt 0.127908 0.086430
vt 0.233858 0.086430
vt 0.773913 0.086430
vt 0.872156 0.086430
vt 1.227033 0.380403
vt 1.141571 0.380403
vt -0.232868 0.380403
vt -0.141507 0.380403
vt 0.141571 0.380403
vt 0.232932 0.380403
vt 0.773030 0.380403
vt 0.858493 0.380403
vt 1.227253 0.560274
vt 1.145396 0.560274
vt -0.232639 0.560274
vt -0.145332 0.560274
vt 0.145396 0.560274
vt 0.232703 0.560274
vt 0.772810 0.560274
vt 0.854668 0.560274
vt 1.227033 0.735625
vt 1.141571 0.735625
vt -0.232868 0.735625
vt -0.141507 0.735625
vt 0.141571 0.735625
vt 0.232932 0.735625
vt 0.773030 0.735625
vt 0.858493 0.735625
vt 1.226151 0.953524
vt 1.127908 0.953524
vt -0.233795 0.953524
vt -0.127844 0.953524
vt 0.127908 0.953524
vt 0.233858 0.953524
vt 0.773913 0.953524
vt 0.872156 0.953524
vt 1.766205 0.086430
vt 1.767132 0.380403
vt 1.767361 0.560274
vt 1.767132 0.735625
vt 1.766205 0.953524
vt 1.495546 0.086430
vt 0.504518 0.086430
vt 1.496599 0.380403
vt 0.503465 0.380403
vt 1.496860 0.560274
vt 0.503204 0.560274
vt 1.496599 0.735625
vt 0.503465 0.735625
vt 1.495546 0.953524
vt 0.504518 0.953524
vt 0.000203 0.086430
vt 0.999861 0.086430
vt 0.000177 0.380403
vt 0.999887 0.380403
vt 0.000170 0.560274
vt 0.999894 0.560274
vt 0.000177 0.735625
vt 0.999887 0.735625
vt 0.000203 0.953524
vt 0.999861 0.953524
vt 1.134670 0.853018
vt 1.226588 0.853018
vt 1.766664 0.853018
vt -0.233336 0.853018
vt -0.134607 0.853018
vt 0.134670 0.853018
vt 0.233400 0.853018
vt 0.773476 0.853018
vt 0.865393 0.853018
vt 1.496067 0.853018
vt 0.503997 0.853018
vt 0.000190 0.853018
vt 0.999874 0.853018
vt 1.143491 0.647623
vt 1.227144 0.647623
vt 1.767246 0.647623
vt -0.232753 0.647623
vt -0.143427 0.647623
vt 0.143491 0.647623
vt 0.232817 0.647623
vt 0.772920 0.647623
vt 0.856573 0.647623
vt 1.496730 0.647623
vt 0.503334 0.647623
vt 0.000173 0.647623
vt 0.999890 0.647623
vn 0.344459 -0.921934 -0.177160
vn 0.155420 -0.937133 -0.312451
vn 0.304266 -0.770245 -0.560486
vn 0.599134 -0.741305 -0.302500
vn -0.029354 -0.943368 -0.330447
vn -0.051212 -0.785050 -0.617312
vn -0.135901 -0.928411 -0.345809
vn -0.195904 -0.953322 -0.229781
vn -0.395925 -0.815962 -0.421248
vn -0.243776 -0.748496 -0.616707
vn -0.272897 -0.962043 0.000094
vn -0.559215 -0.829023 0.000158
vn -0.195879 -0.953305 0.229872
vn -0.135901 -0.928411 0.345809
vn -0.243776 -0.748495 0.616707
vn -0.395863 -0.815918 0.421391
vn -0.029354 -0.943368 0.330447
vn -0.051212 -0.785050 0.617312
vn 0.155420 -0.937133 0.312451
vn 0.344429 -0.921931 0.177234
vn 0.599094 -0.741297 0.302598
vn 0.304266 -0.770245 0.560486
vn 0.467272 -0.884114 0.000075
vn 0.739510 -0.673146 0.000102
vn 0.483815 -0.190478 -0.854190
vn 0.876899 -0.190833 -0.441171
vn -0.077429 -0.192452 -0.978247
vn -0.686580 -0.250441 -0.682560
vn -0.361865 -0.176163 -0.915434
vn -0.960580 -0.278005 0.000245
vn -0.361865 -0.176163 0.915434
vn -0.686418 -0.250408 0.682734
vn -0.077429 -0.192451 0.978247
vn 0.876842 -0.190831 0.441284
vn 0.483815 -0.190478 0.854190
vn 0.985469 -0.169854 0.000123
vn 0.459627 0.345286 -0.818242
vn 0.847301 0.309798 -0.431399
vn -0.073754 0.359287 -0.930308
vn -0.646561 0.392595 -0.654086
vn -0.347349 0.320709 -0.881189
vn -0.913509 0.406819 0.000235
vn -0.347349 0.320709 0.881189
vn -0.646416 0.392544 0.654259
vn -0.073754 0.359287 0.930308
vn 0.847247 0.309793 0.431511
vn 0.459627 0.345287 0.818242
vn 0.968060 0.250720 0.000123
vn 0.706444 0.607982 -0.362347
vn 0.361275 0.648348 -0.670168
vn 0.270023 0.795415 -0.542588
vn 0.572764 0.759470 -0.308459
vn -0.061473 0.664353 -0.744886
vn -0.050138 0.812147 -0.581294
vn -0.287699 0.617424 -0.732132
vn -0.475791 0.716810 -0.509712
vn -0.361408 0.839020 -0.406730
vn -0.230952 0.773532 -0.590177
vn -0.663839 0.747875 0.000190
vn -0.508691 0.860949 0.000173
vn -0.475704 0.716752 0.509875
vn -0.287699 0.617424 0.732132
vn -0.230952 0.773532 0.590177
vn -0.361345 0.838971 0.406888
vn -0.061473 0.664353 0.744886
vn -0.050138 0.812147 0.581294
vn 0.361275 0.648348 0.670168
vn 0.706394 0.607974 0.362457
vn 0.572715 0.759461 0.308572
vn 0.270023 0.795415 0.542588
vn 0.852181 0.523248 0.000118
vn 0.736658 0.676266 0.000119
vn -0.047260 0.842089 -0.537265
vn -0.213557 0.809827 -0.546418
vn -0.047260 0.842089 0.537265
vn 0.238432 0.828010 0.507494
vn -0.433013 0.901388 0.000166
vn -0.312600 0.874633 0.370538
vn 0.666827 0.745212 0.000120
vn 0.509292 0.809988 -0.290761
vn 0.238432 0.828010 -0.507493
vn -0.312657 0.874678 -0.370384
vn -0.213557 0.809827 0.546418
vn 0.509241 0.809978 0.290875
s 1
g pSphere4
usemtl forcefield
f 1/2/1 2/1/2 10/9/3 9/10/4
f 2/1/2 41/46/5 43/48/6 10/9/3
f 3/3/7 4/4/8 12/12/9 11/11/10
f 4/4/8 51/56/11 53/58/12 12/12/9
f 5/5/13 6/6/14 14/14/15 13/13/16
f 6/6/14 42/47/17 44/49/18 14/14/15
f 7/7/19 8/8/20 16/16/21 15/15/22
f 8/8/20 52/57/23 54/59/24 16/16/21
f 9/10/4 10/9/3 18/17/25 17/18/26
f 10/9/3 43/48/6 45/50/27 18/17/25
f 11/11/10 12/12/9 20/20/28 19/19/29
f 12/12/9 53/58/12 55/60/30 20/20/28
f 13/13/16 14/14/15 22/22/31 21/21/32
f 14/14/15 44/49/18 46/51/33 22/22/31
f 15/15/22 16/16/21 24/24/34 23/23/35
f 16/16/21 54/59/24 56/61/36 24/24/34
f 17/18/26 18/17/25 74/80/37 73/79/38
f 18/17/25 45/50/27 81/88/39 74/80/37
f 19/19/29 20/20/28 76/83/40 75/82/41
f 20/20/28 55/60/30 83/90/42 76/83/40
f 21/21/32 22/22/31 78/85/43 77/84/44
f 22/22/31 46/51/33 82/89/45 78/85/43
f 23/23/35 24/24/34 80/87/46 79/86/47
f 24/24/34 56/61/36 84/91/48 80/87/46
f 25/26/49 26/25/50 62/67/51 61/66/52
f 26/25/50 47/52/53 69/75/54 62/67/51
f 27/27/55 28/28/56 64/70/57 63/69/58
f 28/28/56 57/62/59 71/77/60 64/70/57
f 29/29/61 30/30/62 66/72/63 65/71/64
f 30/30/62 48/53/65 70/76/66 66/72/63
f 31/31/67 32/32/68 68/74/69 67/73/70
f 32/32/68 58/63/71 72/78/72 68/74/69
f 43/48/6 41/46/5 3/41/7 11/42/10
f 44/49/18 42/47/17 7/7/19 15/15/22
f 45/50/27 43/48/6 11/42/10 19/43/29
f 46/51/33 44/49/18 15/15/22 23/23/35
f 47/52/53 81/88/39 75/81/41 27/44/55
f 48/53/65 82/89/45 79/86/47 31/31/67
f 49/54/73 69/75/54 63/68/58 35/45/74
f 50/55/75 70/76/66 67/73/70 39/39/76
f 53/58/12 51/56/11 5/5/13 13/13/16
f 54/59/24 52/57/23 1/2/1 9/10/4
f 55/60/30 53/58/12 13/13/16 21/21/32
f 56/61/36 54/59/24 9/10/4 17/18/26
f 57/62/59 83/90/42 77/84/44 29/29/61
f 58/63/71 84/91/48 73/79/38 25/26/49
f 59/64/77 71/77/60 65/71/64 37/37/78
f 60/65/79 72/78/72 61/66/52 33/34/80
f 61/66/52 62/67/51 34/33/81 33/34/80
f 62/67/51 69/75/54 49/54/73 34/33/81
f 63/69/58 64/70/57 36/36/82 35/35/74
f 64/70/57 71/77/60 59/64/77 36/36/82
f 65/71/64 66/72/63 38/38/83 37/37/78
f 66/72/63 70/76/66 50/55/75 38/38/83
f 67/73/70 68/74/69 40/40/84 39/39/76
f 68/74/69 72/78/72 60/65/79 40/40/84
f 63/68/58 69/75/54 47/52/53 27/44/55
f 67/73/70 70/76/66 48/53/65 31/31/67
f 65/71/64 71/77/60 57/62/59 29/29/61
f 61/66/52 72/78/72 58/63/71 25/26/49
f 73/79/38 74/80/37 26/25/50 25/26/49
f 74/80/37 81/88/39 47/52/53 26/25/50
f 75/82/41 76/83/40 28/28/56 27/27/55
f 76/83/40 83/90/42 57/62/59 28/28/56
f 77/84/44 78/85/43 30/30/62 29/29/61
f 78/85/43 82/89/45 48/53/65 30/30/62
f 79/86/47 80/87/46 32/32/68 31/31/67
f 80/87/46 84/91/48 58/63/71 32/32/68
f 75/81/41 81/88/39 45/50/27 19/43/29
f 79/86/47 82/89/45 46/51/33 23/23/35
f 77/84/44 83/90/42 55/60/30 21/21/32
f 73/79/38 84/91/48 56/61/36 17/18/26
