# This file uses centimeters as units for non-parametric coordinates.

mtllib flying_unit_iron.mtl
g default
v 23.052998 16.809255 33.198408
v 23.797743 18.452212 33.549542
v 23.052998 16.657236 38.754910
v 23.497869 17.636642 38.403776
v 18.994423 19.648691 39.943405
v 19.856737 19.988888 39.530558
v 18.994423 20.959561 33.198408
v 19.856737 21.339669 33.549542
v 18.974932 20.974481 30.786693
v 19.820723 21.368197 30.435147
v 18.968742 19.666606 24.041701
v 19.815313 20.018406 24.454060
v 23.067240 16.645724 25.226172
v 23.294712 17.744746 25.577801
v 23.073429 16.781548 30.782671
v 23.626392 18.565478 30.432032
v -3.148043 18.682336 44.451476
v -2.181921 19.493459 44.036761
v -5.235156 21.981760 42.306000
v -4.509737 22.854124 41.962828
v -3.575406 21.981760 36.866141
v -2.849987 22.854124 36.944391
v -1.488292 18.682336 37.574662
v -0.522170 19.493459 37.664343
v -3.452076 21.022431 43.256113
v -2.368635 21.631313 43.071139
v -1.792325 21.022431 37.179907
v -0.708884 21.631313 37.329133
v -5.238532 21.983360 21.723406
v -4.512688 22.855521 22.066259
v -3.150858 18.684797 19.571833
v -2.184381 19.495608 19.986932
v -1.485481 18.679866 26.447683
v -0.519441 19.491061 26.357108
v -3.572024 21.980148 27.162508
v -2.846705 22.852560 27.082841
v -3.451908 21.022477 20.769173
v -2.368640 21.631313 20.953844
v -1.792505 21.022385 26.846425
v -0.708889 21.631313 26.695485
v 9.708684 20.199769 19.904900
v 10.654066 19.646720 18.642841
v 10.383451 13.903426 18.738952
v 11.329667 14.440670 17.590848
v 21.060558 15.405318 24.390486
v 20.431936 15.720729 23.418649
v 17.560171 19.462884 23.029494
v 17.460783 19.147645 21.972081
v 15.573227 13.929622 19.310282
v 15.573227 14.454908 18.186361
v 15.573227 19.910180 20.965559
v 15.573227 19.556856 19.661750
v 9.708685 20.199773 44.117305
v 10.654067 19.646723 45.379365
v 10.383451 13.903428 45.283253
v 11.329669 14.440669 46.431356
v 21.060558 15.405318 39.631718
v 20.431936 15.720729 40.603555
v 17.560173 19.462884 40.992709
v 17.460787 19.147644 42.050123
v 15.573227 13.929623 44.711923
v 15.573227 14.454907 45.835844
v 15.573227 19.910181 43.056646
v 15.573227 19.556856 44.360455
vt 0.136908 0.514646
vt 0.136908 0.439124
vt 0.999047 0.439124
vt 0.999047 0.514646
vt 0.996661 0.052642
vt 0.996661 0.102357
vt 0.000645 0.102357
vt 0.000645 0.052642
vt 0.136908 0.515844
vt 0.136908 0.440322
vt 0.999047 0.440322
vt 0.999047 0.515844
vt 0.996661 0.052493
vt 0.996661 0.102208
vt 0.000645 0.102208
vt 0.000645 0.052493
vt 0.131511 0.532466
vt 1.005758 0.532466
vt 1.005758 0.998006
vt 0.131511 0.998006
vt 1.005758 0.532466
vt 0.131511 0.532466
vt 0.131511 0.998006
vt 1.005758 0.998006
vt 0.136908 0.514646
vt 0.136908 0.439124
vt 0.999047 0.439124
vt 0.999047 0.514646
vt 0.996661 0.052642
vt 0.996661 0.102357
vt 0.000645 0.102357
vt 0.000645 0.052642
vt 0.136908 0.515844
vt 0.136908 0.440322
vt 0.999047 0.440322
vt 0.999047 0.515844
vt 0.996661 0.052493
vt 0.996661 0.102208
vt 0.000645 0.102208
vt 0.000645 0.052493
vt 0.135110 0.998006
vt 1.002159 0.998006
vt 1.002159 0.532466
vt 0.135110 0.532466
vt 1.002159 0.998006
vt 0.135110 0.998006
vt 0.135110 0.532466
vt 1.002159 0.532466
vt 0.136908 0.514646
vt 0.136908 0.439124
vt 0.538320 0.439124
vt 0.617253 0.514646
vt 0.996661 0.052642
vt 0.996661 0.102357
vt 0.000645 0.102357
vt 0.000645 0.052642
vt 0.136908 0.515844
vt 0.136908 0.440322
vt 0.597635 0.440322
vt 0.518702 0.515844
vt 0.996661 0.052493
vt 0.996661 0.102208
vt 0.000645 0.102208
vt 0.000645 0.052493
vt 0.131511 0.532466
vt 1.005758 0.532466
vt 1.005758 0.749221
vt 0.131511 0.749221
vt 1.005758 0.532466
vt 0.131511 0.532466
vt 0.131511 0.791844
vt 1.005758 0.791844
vt 0.999047 0.439124
vt 0.999047 0.514646
vt 0.999047 0.440322
vt 0.999047 0.515844
vt 1.005758 0.998006
vt 0.131511 0.998006
vt 0.131511 0.998006
vt 1.005758 0.998006
vt 0.136908 0.514646
vt 0.136908 0.439124
vt 0.598142 0.439124
vt 0.519271 0.514646
vt 0.996661 0.052642
vt 0.996661 0.102357
vt 0.000645 0.102357
vt 0.000645 0.052642
vt 0.136908 0.515844
vt 0.136908 0.440322
vt 0.538886 0.440322
vt 0.617824 0.515844
vt 0.996661 0.052493
vt 0.996661 0.102208
vt 0.000645 0.102208
vt 0.000645 0.052493
vt 0.135110 0.998006
vt 1.002159 0.998006
vt 1.002159 0.749527
vt 0.135110 0.748948
vt 1.002159 0.998006
vt 0.135110 0.998006
vt 0.135110 0.791537
vt 1.002159 0.792152
vt 0.999047 0.439124
vt 0.999047 0.514646
vt 0.999047 0.440322
vt 0.999047 0.515844
vt 1.002159 0.532466
vt 0.135110 0.532466
vt 0.135110 0.532466
vt 1.002159 0.532466
vt 0.136908 0.514646
vt 0.136908 0.439124
vt 0.999047 0.439124
vt 0.999047 0.514646
vt 0.996661 0.052642
vt 0.996661 0.102357
vt 0.482097 0.102357
vt 0.447377 0.052642
vt 0.136908 0.515844
vt 0.136908 0.440322
vt 0.999047 0.440322
vt 0.999047 0.515844
vt 0.996661 0.052493
vt 0.996661 0.102208
vt 0.720458 0.102208
vt 0.744603 0.052493
vt 0.131511 0.532466
vt 0.763323 0.532466
vt 0.583167 0.998006
vt 0.131511 0.998006
vt 1.005758 0.532466
vt 0.784516 0.532466
vt 0.613642 0.998006
vt 1.005758 0.998006
vt 0.000645 0.102357
vt 0.000645 0.052642
vt 0.000645 0.102208
vt 0.000645 0.052493
vt 1.005758 0.532466
vt 1.005758 0.998006
vt 0.131511 0.532466
vt 0.131511 0.998006
vt 0.136908 0.514646
vt 0.136908 0.439124
vt 0.999047 0.439124
vt 0.999047 0.514646
vt 0.996661 0.052642
vt 0.996661 0.102357
vt 0.482097 0.102357
vt 0.447377 0.052642
vt 0.136908 0.515844
vt 0.136908 0.440322
vt 0.999047 0.440322
vt 0.999047 0.515844
vt 0.996661 0.052493
vt 0.996661 0.102208
vt 0.720458 0.102208
vt 0.744603 0.052493
vt 0.135110 0.998006
vt 0.761719 0.998006
vt 0.583047 0.532466
vt 0.135110 0.532466
vt 1.002159 0.998006
vt 0.782738 0.998006
vt 0.613271 0.532466
vt 1.002159 0.532466
vt 0.000645 0.102357
vt 0.000645 0.052642
vt 0.000645 0.102208
vt 0.000645 0.052493
vt 1.002159 0.998006
vt 1.002159 0.532466
vt 0.135110 0.998006
vt 0.135110 0.532466
vn 0.910608 -0.413092 -0.012164
vn 0.910608 -0.413092 -0.012164
vn 0.910608 -0.413092 -0.012164
vn 0.910608 -0.413092 -0.012164
vn 0.379860 0.151989 0.912472
vn 0.379860 0.151989 0.912472
vn 0.379860 0.151989 0.912472
vn 0.379860 0.151989 0.912472
vn -0.372580 0.908345 0.189981
vn -0.372580 0.908345 0.189981
vn -0.372580 0.908345 0.189981
vn -0.372580 0.908345 0.189981
vn 0.173455 0.197161 -0.964905
vn 0.173455 0.197161 -0.964905
vn 0.173455 0.197161 -0.964905
vn 0.173455 0.197161 -0.964905
vn 0.577210 0.797530 0.175429
vn 0.577210 0.797530 0.175429
vn 0.577210 0.797530 0.175429
vn 0.577210 0.797530 0.175429
vn -0.665231 -0.741413 -0.088169
vn -0.665231 -0.741413 -0.088169
vn -0.665231 -0.741413 -0.088169
vn -0.665231 -0.741413 -0.088169
vn -0.390295 0.901318 -0.187872
vn -0.390295 0.901318 -0.187872
vn -0.390295 0.901318 -0.187872
vn -0.390295 0.901318 -0.187872
vn 0.398719 0.178513 -0.899531
vn 0.398719 0.178513 -0.899531
vn 0.398719 0.178513 -0.899531
vn 0.398719 0.178513 -0.899531
vn 0.965232 -0.261291 -0.007318
vn 0.965232 -0.261291 -0.007318
vn 0.965232 -0.261291 -0.007318
vn 0.965232 -0.261291 -0.007318
vn 0.176009 0.197884 0.964294
vn 0.176009 0.197884 0.964294
vn 0.176009 0.197884 0.964294
vn 0.176009 0.197884 0.964294
vn 0.580866 0.794474 -0.177219
vn 0.580866 0.794474 -0.177219
vn 0.580866 0.794474 -0.177219
vn 0.580866 0.794474 -0.177219
vn -0.665193 -0.741504 0.087692
vn -0.665193 -0.741504 0.087692
vn -0.665193 -0.741504 0.087692
vn -0.665193 -0.741504 0.087692
vn -0.034989 0.431242 0.901558
vn -0.034989 0.431242 0.901558
vn -0.100205 0.468898 0.877550
vn -0.100205 0.468898 0.877550
vn -0.763738 0.598281 -0.242413
vn -0.763738 0.598281 -0.242413
vn -0.763738 0.598281 -0.242413
vn -0.763738 0.598281 -0.242413
vn 0.154867 -0.037511 -0.987223
vn 0.154867 -0.037511 -0.987223
vn 0.181067 -0.086546 -0.979655
vn 0.181067 -0.086546 -0.979655
vn 0.650337 -0.741966 0.162937
vn 0.650337 -0.741966 0.162937
vn 0.650337 -0.741966 0.162937
vn 0.650337 -0.741966 0.162937
vn 0.951638 0.162446 0.260760
vn 0.951638 0.162446 0.260760
vn 0.782898 0.580720 0.223239
vn 0.782898 0.580720 0.223239
vn -0.947980 -0.205705 -0.242941
vn -0.947980 -0.205705 -0.242941
vn -0.766915 -0.608377 -0.204255
vn -0.766915 -0.608377 -0.204255
vn -0.164796 0.503624 0.848060
vn -0.164796 0.503624 0.848060
vn 0.206697 -0.135308 -0.969004
vn 0.206697 -0.135308 -0.969004
vn 0.453793 0.880042 0.139991
vn 0.453793 0.880042 0.139991
vn -0.435208 -0.891547 -0.125449
vn -0.435208 -0.891547 -0.125449
vn -0.165470 0.504064 -0.847667
vn -0.165470 0.504064 -0.847667
vn -0.100849 0.469548 -0.877128
vn -0.100849 0.469548 -0.877128
vn 0.650196 -0.741854 -0.164003
vn 0.650196 -0.741854 -0.164003
vn 0.650196 -0.741854 -0.164003
vn 0.650196 -0.741854 -0.164003
vn 0.208466 -0.136167 0.968504
vn 0.208466 -0.136167 0.968504
vn 0.182744 -0.086915 0.979311
vn 0.182744 -0.086915 0.979311
vn -0.763379 0.598232 0.243661
vn -0.763379 0.598232 0.243661
vn -0.763379 0.598232 0.243661
vn -0.763379 0.598232 0.243661
vn 0.453626 0.880129 -0.139989
vn 0.453626 0.880129 -0.139989
vn 0.782663 0.580966 -0.223423
vn 0.782663 0.580966 -0.223423
vn -0.435050 -0.891633 0.125386
vn -0.435050 -0.891633 0.125386
vn -0.766705 -0.608606 0.204358
vn -0.766705 -0.608606 0.204358
vn -0.035600 0.432105 -0.901120
vn -0.035600 0.432105 -0.901120
vn 0.156437 -0.037385 0.986980
vn 0.156437 -0.037385 0.986980
vn 0.951469 0.162865 -0.261117
vn 0.951469 0.162865 -0.261117
vn -0.947828 -0.206087 0.243207
vn -0.947828 -0.206087 0.243207
vn -0.786286 0.026719 -0.617285
vn -0.786286 0.026719 -0.617285
vn -0.786286 0.026719 -0.617285
vn -0.786286 0.026719 -0.617285
vn 0.053945 -0.912953 -0.404484
vn 0.053945 -0.912953 -0.404484
vn 0.352510 -0.822082 -0.447122
vn 0.352510 -0.822082 -0.447122
vn 0.775749 0.566380 -0.278258
vn 0.775749 0.566380 -0.278258
vn 0.775749 0.566380 -0.278258
vn 0.775749 0.566380 -0.278258
vn 0.476985 0.840199 -0.257973
vn 0.476985 0.840199 -0.257973
vn 0.290212 0.913350 -0.285601
vn 0.290212 0.913350 -0.285601
vn 0.170188 0.245167 -0.954426
vn 0.461091 0.259429 -0.848582
vn 0.461091 0.259429 -0.848582
vn 0.170188 0.245167 -0.954426
vn -0.651293 -0.248135 0.717109
vn -0.416075 -0.248635 0.874678
vn -0.416075 -0.248635 0.874678
vn -0.651293 -0.248135 0.717109
vn 0.616100 -0.649647 -0.445399
vn 0.616100 -0.649647 -0.445399
vn 0.091541 0.949056 -0.301519
vn 0.091541 0.949056 -0.301519
vn 0.707715 0.248778 -0.661248
vn 0.707715 0.248778 -0.661248
vn -0.147505 -0.229206 0.962137
vn -0.147505 -0.229206 0.962137
vn 0.786285 -0.026719 -0.617286
vn 0.786285 -0.026719 -0.617286
vn 0.786285 -0.026719 -0.617286
vn 0.786285 -0.026719 -0.617286
vn -0.053945 0.912954 -0.404482
vn -0.053945 0.912954 -0.404482
vn -0.352510 0.822082 -0.447121
vn -0.352510 0.822082 -0.447121
vn -0.775749 -0.566380 -0.278258
vn -0.775749 -0.566380 -0.278258
vn -0.775749 -0.566380 -0.278258
vn -0.775749 -0.566380 -0.278258
vn -0.476986 -0.840199 -0.257974
vn -0.476986 -0.840199 -0.257974
vn -0.290213 -0.913350 -0.285601
vn -0.290213 -0.913350 -0.285601
vn -0.170188 -0.245167 -0.954426
vn -0.461091 -0.259429 -0.848582
vn -0.461091 -0.259429 -0.848582
vn -0.170188 -0.245167 -0.954426
vn 0.651294 0.248135 0.717109
vn 0.416075 0.248635 0.874678
vn 0.416075 0.248635 0.874678
vn 0.651294 0.248135 0.717109
vn -0.616100 0.649647 -0.445399
vn -0.616100 0.649647 -0.445399
vn -0.091542 -0.949056 -0.301518
vn -0.091542 -0.949056 -0.301518
vn -0.707715 -0.248778 -0.661248
vn -0.707715 -0.248778 -0.661248
vn 0.147505 0.229206 0.962137
vn 0.147505 0.229206 0.962137
s off
g polySurface44
usemtl iron
f 1/1/1 2/2/2 4/3/3 3/4/4
f 3/5/5 4/6/6 6/7/7 5/8/8
f 5/9/9 6/10/10 8/11/11 7/12/12
f 7/13/13 8/14/14 2/15/15 1/16/16
f 2/17/17 8/18/18 6/19/19 4/20/20
f 7/21/21 1/22/22 3/23/23 5/24/24
f 9/25/25 10/26/26 12/27/27 11/28/28
f 11/29/29 12/30/30 14/31/31 13/32/32
f 13/33/33 14/34/34 16/35/35 15/36/36
f 15/37/37 16/38/38 10/39/39 9/40/40
f 10/41/41 16/42/42 14/43/43 12/44/44
f 15/45/45 9/46/46 11/47/47 13/48/48
s 1
f 17/49/49 18/50/50 26/51/51 25/52/52
s off
f 19/53/53 20/54/54 22/55/55 21/56/56
s 2
f 21/57/57 22/58/58 28/59/59 27/60/60
s off
f 23/61/61 24/62/62 18/63/63 17/64/64
s 3
f 18/65/65 24/66/66 28/67/67 26/68/68
s 4
f 23/69/69 17/70/70 25/71/71 27/72/72
s 1
f 25/52/52 26/51/51 20/73/73 19/74/74
s 2
f 27/60/60 28/59/59 24/75/75 23/76/76
s 3
f 26/68/68 28/67/67 22/77/77 20/78/78
s 4
f 27/72/72 25/71/71 19/79/79 21/80/80
s 5
f 29/81/81 30/82/82 38/83/83 37/84/84
s off
f 31/85/85 32/86/86 34/87/87 33/88/88
s 6
f 33/89/89 34/90/90 40/91/91 39/92/92
s off
f 35/93/93 36/94/94 30/95/95 29/96/96
s 7
f 30/97/97 36/98/98 40/99/99 38/100/100
s 8
f 35/101/101 29/102/102 37/103/103 39/104/104
s 5
f 37/84/84 38/83/83 32/105/105 31/106/106
s 6
f 39/92/92 40/91/91 36/107/107 35/108/108
s 7
f 38/100/100 40/99/99 34/109/109 32/110/110
s 8
f 39/104/104 37/103/103 31/111/111 33/112/112
s off
f 41/113/113 42/114/114 44/115/115 43/116/116
s 9
f 43/117/117 44/118/118 50/119/119 49/120/120
s off
f 45/121/121 46/122/122 48/123/123 47/124/124
s 10
f 47/125/125 48/126/126 52/127/127 51/128/128
s 11
f 42/129/129 52/130/130 50/131/131 44/132/132
s 12
f 47/133/133 51/134/134 49/135/135 45/136/136
s 9
f 49/120/120 50/119/119 46/137/137 45/138/138
s 10
f 51/128/128 52/127/127 42/139/139 41/140/140
s 11
f 50/131/131 52/130/130 48/141/141 46/142/142
s 12
f 49/135/135 51/134/134 41/143/143 43/144/144
s off
f 53/145/145 54/146/146 56/147/147 55/148/148
s 13
f 55/149/149 56/150/150 62/151/151 61/152/152
s off
f 57/153/153 58/154/154 60/155/155 59/156/156
s 14
f 59/157/157 60/158/158 64/159/159 63/160/160
s 15
f 54/161/161 64/162/162 62/163/163 56/164/164
s 16
f 59/165/165 63/166/166 61/167/167 57/168/168
s 13
f 61/152/152 62/151/151 58/169/169 57/170/170
s 14
f 63/160/160 64/159/159 54/171/171 53/172/172
s 15
f 62/163/163 64/162/162 60/173/173 58/174/174
s 16
f 61/167/167 63/166/166 53/175/175 55/176/176
