# This file uses centimeters as units for non-parametric coordinates.

mtllib heavy_unit_hardened.mtl
g default
v 33.423226 -132.490557 9.713311
v 34.575516 -132.211923 8.917302
v 34.073191 -129.173757 9.713311
v 35.077260 -129.047594 8.917302
v 31.083688 -124.585770 9.500092
v 32.646210 -124.932814 8.721556
v 31.083688 -124.585770 -9.500092
v 32.646210 -124.932814 -8.721556
v 34.073191 -129.173757 -9.713311
v 35.077260 -129.047594 -8.917302
v 33.423226 -132.490557 -9.713311
v 34.575516 -132.211923 -8.917302
v 28.383155 -124.637036 2.893135
v 29.945679 -124.984079 2.893135
v 30.662083 -132.490557 2.958068
v 31.814376 -132.211923 2.958068
v 32.316117 -129.047594 2.958068
v 31.312051 -129.173757 2.958068
v 30.662083 -132.490557 -2.840216
v 31.814376 -132.211923 -2.840216
v 32.316117 -129.047594 -2.840216
v 31.312051 -129.173757 -2.840216
v 28.383158 -124.637036 -2.777870
v 29.945679 -124.984079 -2.777871
v 27.900389 -132.053238 17.619282
v 29.217862 -131.809996 17.911224
v 28.406480 -129.157732 18.111198
v 29.608538 -129.047595 18.290956
v 27.867371 -124.615715 14.165133
v 29.153832 -124.701471 14.553253
v 32.164271 -125.244355 9.847538
v 32.664780 -125.330111 11.100110
v 34.158885 -129.157732 10.170030
v 34.520447 -129.047595 11.510091
v 33.652795 -132.053238 10.141635
v 34.129771 -131.809996 11.665899
v 28.833083 -127.009367 15.103795
v 29.893956 -126.606463 15.272648
v 33.130646 -127.009367 10.005524
v 33.404910 -126.606463 11.262878
v 28.295586 -125.435731 9.748043
v 28.697938 -124.217254 9.794388
v 25.136128 -122.927160 9.748043
v 25.992890 -122.055310 9.794388
v 23.075095 -122.142016 9.748043
v 24.105105 -121.336164 9.794388
v 23.075095 -122.142016 -9.748043
v 24.105105 -121.336164 -9.794388
v 25.136128 -122.927160 -9.748043
v 25.992890 -122.055310 -9.794388
v 28.295586 -125.435731 -9.748043
v 28.697938 -124.217254 -9.794388
v 23.688255 -120.793706 3.365224
v 24.677390 -120.077737 3.685987
v 27.699261 -122.660623 3.722111
v 28.029715 -121.511640 3.722111
v 26.565173 -120.796883 3.685987
v 25.735961 -121.573769 3.634600
v 27.699261 -122.660623 -3.756763
v 28.029715 -121.511640 -3.756763
v 26.565173 -120.796883 -3.823304
v 25.735961 -121.573769 -3.771917
v 23.688257 -120.793701 -3.502543
v 24.677390 -120.077737 -3.823304
v 24.780925 -124.426564 13.575408
v 25.924765 -123.422512 13.033729
v 24.780925 -124.426564 -13.575408
v 25.924765 -123.422512 -13.033729
v 27.766656 -121.239488 3.685987
v 26.969943 -121.906090 3.664161
v 26.969943 -121.906090 -3.801479
v 27.766656 -121.239488 -3.823304
v 23.688255 -120.793706 7.025857
v 24.677390 -120.077737 7.557962
v 29.374049 -124.393307 7.557962
v 29.704501 -123.244323 7.557962
v 26.565173 -120.796883 7.557962
v 25.735961 -121.573769 7.557963
v 27.766656 -121.239488 7.557962
v 26.969943 -121.906090 7.557963
v 29.374049 -124.393306 -7.519281
v 29.704501 -123.244323 -7.519281
v 26.565173 -120.796883 -7.519282
v 25.735961 -121.573769 -7.519282
v 23.688258 -120.793701 -6.987175
v 24.677390 -120.077737 -7.519282
v 26.969943 -121.906090 -7.519281
v 27.766656 -121.239488 -7.519282
v 33.687804 -132.053238 -10.150346
v 34.164780 -131.809996 -11.674612
v 34.193896 -129.157732 -10.178739
v 34.555457 -129.047595 -11.518803
v 32.200984 -125.244355 -9.856247
v 32.699794 -125.330111 -11.108822
v 27.902383 -124.615715 -14.173844
v 29.188842 -124.701471 -14.561963
v 28.441493 -129.157732 -18.119909
v 29.643548 -129.047595 -18.299669
v 27.935401 -132.053238 -17.627993
v 29.252873 -131.809996 -17.919935
v 33.166032 -127.009367 -10.014234
v 33.439919 -126.606463 -11.271589
v 28.868094 -127.009367 -15.112506
v 29.928969 -126.606463 -15.281359
vt 0.046811 0.047269
vt 0.047258 0.045850
vt 0.047258 0.232298
vt 0.046811 0.232582
vt 0.047258 0.512068
vt 0.046811 0.510649
vt 0.952742 0.512068
vt 0.953189 0.510649
vt 0.952742 0.232298
vt 0.953189 0.232582
vt 0.952742 0.045850
vt 0.953189 0.047269
vt 0.051724 0.581360
vt 0.051961 0.520959
vt 0.219488 0.520959
vt 0.219460 0.581360
vt 0.535002 0.520959
vt 0.534968 0.581360
vt 0.051724 0.581381
vt 0.051966 0.520964
vt 0.949797 0.520964
vt 0.949859 0.581380
vt 0.051724 0.581326
vt 0.051961 0.520952
vt 0.349019 0.520953
vt 0.349085 0.581326
vt 0.535002 0.520953
vt 0.534968 0.581326
vt 0.051724 0.581365
vt 0.051966 0.520961
vt 0.949797 0.520961
vt 0.949859 0.581365
vt 0.361987 0.510649
vt 0.364033 0.581381
vt 0.351966 0.520964
vt 0.349815 0.512068
vt 0.361987 0.047269
vt 0.637549 0.581365
vt 0.649797 0.520961
vt 0.349816 0.045850
vt 0.349816 0.232298
vt 0.361987 0.232582
vt 0.632515 0.047269
vt 0.369482 0.581365
vt 0.357899 0.520961
vt 0.644201 0.045850
vt 0.644201 0.232298
vt 0.632515 0.232582
vt 0.632515 0.510649
vt 0.632101 0.581381
vt 0.643864 0.520964
vt 0.644201 0.512068
vt 0.051301 0.580873
vt 0.051701 0.520254
vt 0.414671 0.520255
vt 0.400775 0.580873
vt 0.644498 0.520255
vt 0.615733 0.580872
vt 0.051301 0.580897
vt 0.051709 0.520283
vt 0.947190 0.520283
vt 0.947238 0.580896
vt 0.051301 0.580865
vt 0.051701 0.520246
vt 0.351665 0.520246
vt 0.380108 0.580865
vt 0.593320 0.580865
vt 0.579424 0.520246
vt 0.947186 0.520246
vt 0.947233 0.580865
vt 0.051301 0.580932
vt 0.051709 0.520324
vt 0.947190 0.520324
vt 0.947238 0.580932
vt 0.045056 0.078779
vt 0.505647 0.078779
vt 0.505647 0.251800
vt 0.045056 0.251800
vt 0.505647 0.363849
vt 0.045056 0.363849
vt 0.506155 0.078751
vt 0.044549 0.078751
vt 0.044549 0.251794
vt 0.506155 0.251794
vt 0.044549 0.353933
vt 0.506155 0.353933
vt 0.947186 0.520254
vt 0.947232 0.580872
vt 0.505647 0.511421
vt 0.045056 0.511421
vt 0.044549 0.511448
vt 0.506155 0.511448
vt 0.051724 0.581350
vt 0.051961 0.520957
vt 0.219478 0.520957
vt 0.219495 0.581350
vt 0.305714 0.581350
vt 0.305144 0.520957
vt 0.431974 0.520957
vt 0.431384 0.581350
vt 0.051724 0.581362
vt 0.051966 0.520960
vt 0.219314 0.520960
vt 0.219314 0.581362
vt 0.051724 0.581349
vt 0.051961 0.520957
vt 0.219294 0.520957
vt 0.219199 0.581349
vt 0.219430 0.520957
vt 0.219413 0.581349
vt 0.051724 0.581188
vt 0.051966 0.520925
vt 0.219319 0.520925
vt 0.219319 0.581188
vt 0.136691 0.590127
vt 0.238545 0.590127
vt 0.244270 0.798544
vt -0.006075 0.798543
vt 0.136691 0.842550
vt 0.244270 0.842550
vt 0.244270 0.991369
vt 0.136691 0.991369
vt 0.848855 0.589618
vt 0.743662 0.589618
vt 0.739040 0.798544
vt 0.991159 0.798728
vt 0.848900 0.842703
vt 0.739040 0.842547
vt 0.719435 0.991878
vt 0.848855 0.991878
vt 0.361683 0.581362
vt 0.361683 0.520960
vt 0.648185 0.520960
vt 0.648185 0.581362
vt 0.051961 0.581317
vt 0.051724 0.520951
vt 0.219253 0.520951
vt 0.219391 0.581317
vt 0.371332 0.842550
vt 0.371332 0.798544
vt 0.620617 0.798544
vt 0.617754 0.842550
vt 0.371332 0.991369
vt 0.617754 0.991369
vt 0.371332 0.842547
vt 0.371332 0.798544
vt 0.244270 0.798544
vt 0.244270 0.842547
vt 0.380942 0.991878
vt 0.263976 0.991878
vt 0.051724 0.581318
vt 0.051724 0.520951
vt 0.337316 0.520951
vt 0.337316 0.581318
vt 0.617754 0.842547
vt 0.620617 0.798544
vt 0.607786 0.991878
vt 0.789198 0.520960
vt 0.789198 0.581362
vt 0.739040 0.798544
vt 0.739040 0.842550
vt 0.739040 0.991369
vt 0.431974 0.520957
vt 0.431384 0.581349
vt 0.370146 0.770251
vt 0.618433 0.770251
vt -0.006579 0.798728
vt 0.236776 0.589618
vt 0.135725 0.589618
vt 0.619312 0.770619
vt 0.369275 0.770619
vt 0.990654 0.798543
vt 0.741903 0.590127
vt 0.847888 0.590127
vt 0.051724 0.581256
vt 0.051724 0.520939
vt 0.219173 0.520939
vt 0.219314 0.581255
vt 0.135680 0.842703
vt 0.135725 0.991878
vt 0.051724 0.581230
vt 0.051961 0.520933
vt 0.219391 0.520933
vt 0.219253 0.581230
vt 0.949797 0.520960
vt 0.949859 0.581362
vt 0.847888 0.842550
vt 0.847888 0.991369
vt 0.051301 0.580873
vt 0.051701 0.520254
vt 0.414671 0.520255
vt 0.400775 0.580873
vt 0.644498 0.520255
vt 0.615733 0.580872
vt 0.051301 0.580897
vt 0.051709 0.520283
vt 0.947190 0.520283
vt 0.947238 0.580896
vt 0.051301 0.580865
vt 0.051701 0.520246
vt 0.351665 0.520246
vt 0.380108 0.580865
vt 0.593320 0.580865
vt 0.579424 0.520246
vt 0.947186 0.520246
vt 0.947233 0.580865
vt 0.051301 0.580932
vt 0.051709 0.520324
vt 0.947190 0.520324
vt 0.947238 0.580932
vt 0.045056 0.078779
vt 0.505647 0.078779
vt 0.505647 0.251800
vt 0.045056 0.251800
vt 0.505647 0.363849
vt 0.045056 0.363849
vt 0.506155 0.078751
vt 0.044549 0.078751
vt 0.044549 0.251794
vt 0.506155 0.251794
vt 0.044549 0.353933
vt 0.506155 0.353933
vt 0.947186 0.520254
vt 0.947232 0.580872
vt 0.505647 0.511421
vt 0.045056 0.511421
vt 0.044549 0.511448
vt 0.506155 0.511448
vn 0.603479 -0.107239 0.790134
vn 0.603479 -0.107239 0.790134
vn 0.603479 -0.107239 0.790134
vn 0.603479 -0.107239 0.790134
vn 0.510867 0.354989 0.782942
vn 0.510867 0.354989 0.782942
vn 0.510867 0.354989 0.782942
vn 0.510867 0.354989 0.782942
vn 0.193931 0.976665 -0.092283
vn 0.193931 0.976665 -0.092283
vn 0.205609 0.977544 -0.046193
vn 0.205609 0.977544 -0.046193
vn 0.510867 0.354989 -0.782942
vn 0.510867 0.354989 -0.782942
vn 0.510867 0.354989 -0.782942
vn 0.510867 0.354989 -0.782942
vn 0.603479 -0.107239 -0.790134
vn 0.603479 -0.107239 -0.790134
vn 0.603479 -0.107239 -0.790134
vn 0.603479 -0.107239 -0.790134
vn 0.205441 -0.974741 0.087605
vn 0.205441 -0.974741 0.087605
vn 0.220474 -0.974407 0.043850
vn 0.220474 -0.974407 0.043850
vn 0.898090 -0.142403 -0.416120
vn 0.965009 -0.153014 -0.212944
vn 0.965009 -0.153014 -0.212944
vn 0.898090 -0.142403 -0.416120
vn 0.804656 0.460467 -0.374831
vn 0.849856 0.491214 -0.190929
vn 0.849856 0.491214 -0.190929
vn 0.804656 0.460467 -0.374831
vn -0.912951 0.178904 -0.366762
vn -0.964088 0.188925 -0.186661
vn -0.964088 0.188925 -0.186661
vn -0.912951 0.178904 -0.366762
vn -0.798510 -0.508178 -0.322703
vn -0.830507 -0.532454 -0.163555
vn -0.830507 -0.532454 -0.163555
vn -0.798510 -0.508178 -0.322703
vn 0.205797 0.977539 0.045435
vn 0.205797 0.977539 0.045435
vn 0.220235 -0.974429 -0.044557
vn 0.220235 -0.974429 -0.044557
vn 0.204949 -0.974717 -0.089015
vn 0.204949 -0.974717 -0.089015
vn 0.965776 -0.153135 0.209346
vn 0.965776 -0.153135 0.209346
vn 0.850340 0.491665 0.187581
vn 0.850340 0.491665 0.187581
vn -0.963539 0.188817 0.189578
vn -0.963539 0.188817 0.189578
vn -0.910797 0.178482 0.372280
vn -0.910797 0.178482 0.372280
vn -0.830194 -0.532124 0.166200
vn -0.830194 -0.532124 0.166200
vn -0.797157 -0.507055 0.327776
vn -0.797157 -0.507055 0.327776
vn 0.194323 0.976729 0.090771
vn 0.194323 0.976729 0.090771
vn 0.901092 -0.142879 0.409414
vn 0.901092 -0.142879 0.409414
vn 0.806706 0.461989 0.368500
vn 0.806706 0.461989 0.368500
vn -0.165697 -0.124451 0.978293
vn -0.165697 -0.124451 0.978293
vn -0.165697 -0.124451 0.978293
vn -0.165697 -0.124451 0.978293
vn -0.264254 0.782047 0.564422
vn -0.264254 0.782047 0.564422
vn -0.264254 0.782047 0.564422
vn -0.264254 0.782047 0.564422
vn 0.126105 0.991444 -0.033706
vn 0.126105 0.991444 -0.033706
vn 0.126105 0.991444 -0.033706
vn 0.126105 0.991444 -0.033706
vn 0.841442 0.438892 -0.315196
vn 0.841442 0.438892 -0.315196
vn 0.841442 0.438892 -0.315196
vn 0.841442 0.438892 -0.315196
vn 0.952888 -0.156876 -0.259606
vn 0.952888 -0.156876 -0.259606
vn 0.952888 -0.156876 -0.259606
vn 0.952888 -0.156876 -0.259606
vn 0.149022 -0.982029 0.115807
vn 0.149022 -0.982029 0.115807
vn 0.149022 -0.982029 0.115807
vn 0.149022 -0.982029 0.115807
vn 0.790980 -0.136044 0.596525
vn 0.790980 -0.136044 0.596525
vn 0.790980 -0.136044 0.596525
vn 0.790980 -0.136044 0.596525
vn 0.691993 0.478940 0.540150
vn 0.691993 0.478940 0.540150
vn 0.691993 0.478940 0.540150
vn 0.691993 0.478940 0.540150
vn -0.786835 0.190277 -0.587100
vn -0.786835 0.190277 -0.587100
vn -0.786835 0.190277 -0.587100
vn -0.786835 0.190277 -0.587100
vn -0.690608 -0.489635 -0.532277
vn -0.690608 -0.489635 -0.532277
vn -0.690608 -0.489635 -0.532277
vn -0.690608 -0.489635 -0.532277
vn -0.255903 0.257817 0.931689
vn -0.255903 0.257817 0.931689
vn -0.255903 0.257817 0.931689
vn -0.255903 0.257817 0.931689
vn 0.876721 0.383473 -0.290358
vn 0.876721 0.383473 -0.290358
vn 0.876721 0.383473 -0.290358
vn 0.876721 0.383473 -0.290358
vn 0.662273 0.469963 0.583549
vn 0.662273 0.469963 0.583549
vn 0.662273 0.469963 0.583549
vn 0.662273 0.469963 0.583549
vn -0.669473 -0.464003 -0.580092
vn -0.669473 -0.464003 -0.580092
vn -0.669473 -0.464003 -0.580092
vn -0.669473 -0.464003 -0.580092
vn 0.667944 -0.314340 0.674567
vn 0.667944 -0.314340 0.674567
vn 0.667944 -0.314340 0.674567
vn 0.667944 -0.314340 0.674567
vn -0.014722 -0.038645 0.999145
vn -0.014722 -0.038645 0.999145
vn -0.014722 -0.038645 0.999145
vn -0.014722 -0.038645 0.999145
vn -0.627199 0.741076 0.239640
vn -0.627199 0.741076 0.239640
vn -0.627199 0.741076 0.239640
vn -0.627199 0.741076 0.239640
vn -0.014722 -0.038645 -0.999145
vn -0.014722 -0.038645 -0.999145
vn -0.014722 -0.038645 -0.999145
vn -0.014722 -0.038645 -0.999145
vn -0.625139 0.735600 -0.260947
vn -0.625139 0.735600 -0.260947
vn -0.625139 0.735600 -0.260947
vn -0.625139 0.735600 -0.260947
vn 0.911662 -0.287928 -0.293206
vn 0.911662 -0.287928 -0.293206
vn 0.911662 -0.287928 -0.293206
vn 0.911662 -0.287928 -0.293206
vn 0.667946 0.569081 0.479579
vn 0.667946 0.569081 0.479579
vn 0.667946 0.569081 0.479579
vn 0.667946 0.569081 0.479579
vn 0.302974 0.795317 0.525050
vn 0.302974 0.795317 0.525050
vn 0.302974 0.795317 0.525050
vn 0.302974 0.795317 0.525050
vn -0.656872 -0.563236 0.501283
vn -0.656872 -0.563236 0.501283
vn -0.656872 -0.563236 0.501283
vn -0.656872 -0.563236 0.501283
vn -0.248650 -0.825155 0.507240
vn -0.248650 -0.825155 0.507240
vn -0.248650 -0.825155 0.507240
vn -0.248650 -0.825155 0.507240
vn -0.586347 0.810060 0.000000
vn -0.586347 0.810060 0.000000
vn -0.586347 0.810060 0.000000
vn -0.586347 0.810060 0.000000
vn 0.844049 -0.242753 -0.478176
vn 0.844049 -0.242753 -0.478176
vn 0.844049 -0.242753 -0.478176
vn 0.844049 -0.242753 -0.478176
vn 0.345673 0.938355 0.000000
vn 0.345673 0.938355 0.000000
vn 0.345673 0.938355 0.000000
vn 0.345673 0.938355 0.000000
vn 0.355991 0.934489 0.000000
vn 0.355991 0.934489 0.000000
vn 0.355991 0.934489 0.000000
vn 0.355991 0.934489 0.000000
vn -0.260042 -0.965597 0.000000
vn -0.260042 -0.965597 0.000000
vn -0.260042 -0.965597 0.000000
vn -0.260042 -0.965597 0.000000
vn -0.355989 -0.934490 0.000000
vn -0.355989 -0.934490 0.000000
vn -0.355989 -0.934490 0.000000
vn -0.355989 -0.934490 0.000000
vn 0.961042 -0.276402 0.000000
vn 0.961042 -0.276402 0.000000
vn 0.961042 -0.276402 0.000000
vn 0.961042 -0.276402 0.000000
vn -0.260042 -0.965597 0.000000
vn -0.260042 -0.965597 0.000000
vn -0.260042 -0.965597 0.000000
vn -0.260042 -0.965597 0.000000
vn -0.355990 -0.934490 -0.000000
vn -0.355990 -0.934490 -0.000000
vn -0.355990 -0.934490 -0.000000
vn -0.355990 -0.934490 -0.000000
vn -0.586347 0.810060 -0.000000
vn -0.586347 0.810060 -0.000000
vn -0.586347 0.810060 -0.000000
vn -0.586347 0.810060 -0.000000
vn 0.345673 0.938355 0.000000
vn 0.345673 0.938355 0.000000
vn 0.345673 0.938355 0.000000
vn 0.345673 0.938355 0.000000
vn 0.355991 0.934489 0.000000
vn 0.355991 0.934489 0.000000
vn 0.355991 0.934489 0.000000
vn 0.355991 0.934489 0.000000
vn -0.625139 0.735600 0.260947
vn -0.625139 0.735600 0.260947
vn -0.625139 0.735600 0.260947
vn -0.625139 0.735600 0.260947
vn 0.667944 -0.314340 -0.674568
vn 0.667944 -0.314340 -0.674568
vn 0.667944 -0.314340 -0.674568
vn 0.667944 -0.314340 -0.674568
vn 0.150060 0.884532 0.441684
vn 0.150060 0.884532 0.441684
vn 0.150060 0.884532 0.441684
vn 0.150060 0.884532 0.441684
vn -0.017558 -0.903445 0.428344
vn -0.017558 -0.903445 0.428344
vn -0.017558 -0.903445 0.428344
vn -0.017558 -0.903445 0.428344
vn 0.719016 0.694993 0.000000
vn 0.719016 0.694993 0.000000
vn 0.719016 0.694993 0.000000
vn 0.719016 0.694993 0.000000
vn -0.657108 -0.559930 -0.504666
vn -0.657108 -0.559930 -0.504666
vn -0.657108 -0.559930 -0.504666
vn -0.657108 -0.559930 -0.504666
vn -0.719019 -0.694990 0.000000
vn -0.719019 -0.694990 0.000000
vn -0.719019 -0.694990 0.000000
vn -0.719019 -0.694990 0.000000
vn 0.667551 0.572493 -0.476054
vn 0.667551 0.572493 -0.476054
vn 0.667551 0.572493 -0.476054
vn 0.667551 0.572493 -0.476054
vn -0.586348 0.810059 0.000000
vn -0.586348 0.810059 0.000000
vn -0.586348 0.810059 0.000000
vn -0.586348 0.810059 0.000000
vn 0.719017 0.694993 0.000000
vn 0.719017 0.694993 0.000000
vn 0.719017 0.694993 0.000000
vn 0.719017 0.694993 0.000000
vn 0.355991 0.934489 0.000000
vn 0.355991 0.934489 0.000000
vn 0.355991 0.934489 0.000000
vn 0.355991 0.934489 0.000000
vn 0.910270 -0.287588 0.297830
vn 0.910270 -0.287588 0.297830
vn 0.910270 -0.287588 0.297830
vn 0.910270 -0.287588 0.297830
vn -0.010460 -0.902904 -0.429715
vn -0.010460 -0.902904 -0.429715
vn -0.010460 -0.902904 -0.429715
vn -0.010460 -0.902904 -0.429715
vn -0.246734 -0.822113 -0.513081
vn -0.246734 -0.822113 -0.513081
vn -0.246734 -0.822113 -0.513081
vn -0.246734 -0.822113 -0.513081
vn 0.345673 0.938355 0.000000
vn 0.345673 0.938355 0.000000
vn 0.345673 0.938355 0.000000
vn 0.345673 0.938355 0.000000
vn -0.719018 -0.694991 0.000000
vn -0.719018 -0.694991 0.000000
vn -0.719018 -0.694991 0.000000
vn -0.719018 -0.694991 0.000000
vn 0.840276 -0.241668 0.485317
vn 0.840276 -0.241668 0.485317
vn 0.840276 -0.241668 0.485317
vn 0.840276 -0.241668 0.485317
vn -0.719018 -0.694992 -0.000001
vn -0.719018 -0.694992 -0.000001
vn -0.719018 -0.694992 -0.000001
vn -0.719018 -0.694992 -0.000001
vn -0.355992 -0.934489 0.000000
vn -0.355992 -0.934489 0.000000
vn -0.355992 -0.934489 0.000000
vn -0.355992 -0.934489 0.000000
vn -0.627114 0.742146 -0.236533
vn -0.627114 0.742146 -0.236533
vn -0.627114 0.742146 -0.236533
vn -0.627114 0.742146 -0.236533
vn 0.156708 0.884537 -0.439360
vn 0.156708 0.884537 -0.439360
vn 0.156708 0.884537 -0.439360
vn 0.156708 0.884537 -0.439360
vn 0.304392 0.799039 -0.518538
vn 0.304392 0.799039 -0.518538
vn 0.304392 0.799039 -0.518538
vn 0.304392 0.799039 -0.518538
vn -0.260042 -0.965597 0.000000
vn -0.260042 -0.965597 0.000000
vn -0.260042 -0.965597 0.000000
vn -0.260042 -0.965597 0.000000
vn 0.719017 0.694993 0.000000
vn 0.719017 0.694993 0.000000
vn 0.719017 0.694993 0.000000
vn 0.719017 0.694993 0.000000
vn 0.952888 -0.156878 0.259605
vn 0.952888 -0.156878 0.259605
vn 0.952888 -0.156878 0.259605
vn 0.952888 -0.156878 0.259605
vn 0.876777 0.383439 0.290237
vn 0.876777 0.383439 0.290237
vn 0.876777 0.383439 0.290237
vn 0.876777 0.383439 0.290237
vn 0.126154 0.991441 0.033629
vn 0.126154 0.991441 0.033629
vn 0.126154 0.991441 0.033629
vn 0.126154 0.991441 0.033629
vn -0.255903 0.257817 -0.931689
vn -0.255903 0.257817 -0.931689
vn -0.255903 0.257817 -0.931689
vn -0.255903 0.257817 -0.931689
vn -0.165699 -0.124452 -0.978292
vn -0.165699 -0.124452 -0.978292
vn -0.165699 -0.124452 -0.978292
vn -0.165699 -0.124452 -0.978292
vn 0.149022 -0.982029 -0.115807
vn 0.149022 -0.982029 -0.115807
vn 0.149022 -0.982029 -0.115807
vn 0.149022 -0.982029 -0.115807
vn 0.790981 -0.136043 -0.596525
vn 0.790981 -0.136043 -0.596525
vn 0.790981 -0.136043 -0.596525
vn 0.790981 -0.136043 -0.596525
vn 0.691993 0.478940 -0.540150
vn 0.691993 0.478940 -0.540150
vn 0.691993 0.478940 -0.540150
vn 0.691993 0.478940 -0.540150
vn -0.786835 0.190277 0.587100
vn -0.786835 0.190277 0.587100
vn -0.786835 0.190277 0.587100
vn -0.786835 0.190277 0.587100
vn -0.690616 -0.489595 0.532303
vn -0.690616 -0.489595 0.532303
vn -0.690616 -0.489595 0.532303
vn -0.690616 -0.489595 0.532303
vn 0.841745 0.438756 0.314576
vn 0.841745 0.438756 0.314576
vn 0.841745 0.438756 0.314576
vn 0.841745 0.438756 0.314576
vn -0.264254 0.782046 -0.564423
vn -0.264254 0.782046 -0.564423
vn -0.264254 0.782046 -0.564423
vn -0.264254 0.782046 -0.564423
vn 0.662273 0.469963 -0.583549
vn 0.662273 0.469963 -0.583549
vn 0.662273 0.469963 -0.583549
vn 0.662273 0.469963 -0.583549
vn -0.669465 -0.463826 0.580244
vn -0.669465 -0.463826 0.580244
vn -0.669465 -0.463826 0.580244
vn -0.669465 -0.463826 0.580244
s off
g polySurface10
usemtl hardened
f 1/13/1 2/14/2 4/15/3 3/16/4
f 3/16/5 4/15/6 6/17/7 5/18/8
s 1
f 5/19/9 6/20/10 14/35/11 13/34/12
s off
f 7/23/13 8/24/14 10/25/15 9/26/16
f 9/26/17 10/25/18 12/27/19 11/28/20
s 2
f 11/29/21 12/30/22 20/45/23 19/44/24
s 3
f 2/2/25 16/40/26 17/41/27 4/3/28
s 4
f 4/3/29 17/41/30 14/36/31 6/5/32
s 5
f 11/12/33 19/43/34 22/48/35 9/10/36
s 6
f 9/10/37 22/48/38 23/49/39 7/8/40
s 1
f 13/34/12 14/35/11 24/51/41 23/50/42
s 2
f 15/38/43 16/39/44 2/31/45 1/32/46
s 3
f 17/41/27 16/40/26 20/46/47 21/47/48
s 4
f 14/36/31 17/41/30 21/47/49 24/52/50
s 5
f 18/42/51 15/37/52 1/1/53 3/4/54
s 6
f 13/33/55 18/42/56 3/4/57 5/6/58
s 2
f 19/44/24 20/45/23 16/39/44 15/38/43
s 5
f 22/48/35 19/43/34 15/37/52 18/42/51
s 6
f 23/49/39 22/48/38 18/42/56 13/33/55
s 1
f 23/50/42 24/51/41 8/21/59 7/22/60
s 3
f 21/47/48 20/46/47 12/11/61 10/9/62
s 4
f 24/52/50 21/47/49 10/9/63 8/7/64
s off
f 25/53/65 26/54/66 28/55/67 27/56/68
f 27/56/69 28/55/70 38/57/71 37/58/72
f 29/59/73 30/60/74 32/61/75 31/62/76
f 31/63/77 32/64/78 40/65/79 39/66/80
f 33/67/81 34/68/82 36/69/83 35/70/84
f 35/71/85 36/72/86 26/73/87 25/74/88
f 26/75/89 36/76/90 34/77/91 28/78/92
f 28/78/93 34/77/94 40/79/95 38/80/96
f 35/81/97 25/82/98 27/83/99 33/84/100
f 33/84/101 27/83/102 37/85/103 39/86/104
f 37/58/105 38/57/106 30/87/107 29/88/108
f 39/66/109 40/65/110 34/68/111 33/67/112
f 38/80/113 40/79/114 32/89/115 30/90/116
f 39/86/117 37/85/118 29/91/119 31/92/120
f 41/93/121 42/94/122 66/95/123 65/96/124
f 43/97/125 44/98/126 46/99/127 45/100/128
f 45/101/129 46/102/130 74/103/131 73/104/132
f 47/105/133 48/106/134 50/107/135 49/108/136
f 49/108/137 50/107/138 68/109/139 67/110/140
f 51/111/141 52/112/142 82/113/143 81/114/144
f 42/115/145 76/116/146 79/117/147 66/118/148
f 44/119/149 77/120/150 74/121/151 46/122/152
f 51/123/153 81/124/154 87/125/155 67/126/156
f 49/127/157 84/128/158 85/129/159 47/130/160
f 53/131/161 54/132/162 64/133/163 63/134/164
f 55/135/165 56/136/166 76/137/167 75/138/168
f 57/139/169 69/140/170 72/141/171 61/142/172
f 54/143/173 57/139/174 61/142/175 64/144/176
f 58/145/177 70/146/178 80/147/179 78/148/180
f 53/149/181 58/145/182 78/148/183 73/150/184
f 59/151/185 60/152/186 56/153/187 55/154/188
f 62/155/189 71/156/190 70/146/191 58/145/192
f 63/157/193 62/155/194 58/145/195 53/149/196
f 63/134/197 64/133/198 86/158/199 85/159/200
f 61/142/201 72/141/202 88/160/203 83/161/204
f 64/144/205 61/142/206 83/161/207 86/162/208
f 65/96/209 66/95/210 44/98/211 43/97/212
f 67/110/213 68/109/214 52/163/215 51/164/216
f 66/118/217 79/117/218 77/120/219 44/119/220
f 67/126/221 87/125/222 84/128/223 49/127/224
f 72/141/225 69/140/226 56/165/227 60/166/228
f 65/167/229 80/147/230 75/168/231 41/169/232
f 70/146/233 71/156/234 59/170/235 55/171/236
f 68/172/237 88/160/238 82/173/239 52/174/240
f 73/104/241 74/103/242 54/132/243 53/131/244
f 79/117/245 76/116/246 56/165/247 69/140/248
f 74/121/249 77/120/250 57/139/251 54/143/252
f 75/175/253 76/176/254 42/177/255 41/178/256
f 78/148/257 80/147/258 65/167/259 43/179/260
f 73/150/261 78/148/262 43/179/263 45/180/264
f 77/120/265 79/117/266 69/140/267 57/139/268
f 75/168/269 80/147/270 70/146/271 55/171/272
f 81/181/273 82/182/274 60/183/275 59/184/276
f 87/125/277 81/124/278 59/170/279 71/156/280
f 85/129/281 84/128/282 62/155/283 63/157/284
f 85/159/285 86/158/286 48/185/287 47/186/288
f 83/161/289 88/160/290 68/172/291 50/187/292
f 86/162/293 83/161/294 50/187/295 48/188/296
f 84/128/297 87/125/298 71/156/299 62/155/300
f 82/173/301 88/160/302 72/141/303 60/166/304
f 89/189/305 90/190/306 92/191/307 91/192/308
f 91/192/309 92/191/310 102/193/311 101/194/312
f 93/195/313 94/196/314 96/197/315 95/198/316
f 95/199/317 96/200/318 104/201/319 103/202/320
f 97/203/321 98/204/322 100/205/323 99/206/324
f 99/207/325 100/208/326 90/209/327 89/210/328
f 90/211/329 100/212/330 98/213/331 92/214/332
f 92/214/333 98/213/334 104/215/335 102/216/336
f 99/217/337 89/218/338 91/219/339 97/220/340
f 97/220/341 91/219/342 101/221/343 103/222/344
f 101/194/345 102/193/346 94/223/347 93/224/348
f 103/202/349 104/201/350 98/204/351 97/203/352
f 102/216/353 104/215/354 96/225/355 94/226/356
f 103/222/357 101/221/358 93/227/359 95/228/360
