# This file uses centimeters as units for non-parametric coordinates.

mtllib heavy_unit_plasma.mtl
g default
v 23.201550 -146.221737 -10.745785
v 16.417866 -146.221737 -14.098368
v -12.130009 -146.221737 -13.171479
v -17.998371 -146.221737 -10.399951
v -17.998371 -146.221737 10.399948
v -12.130013 -146.221737 13.171479
v 16.417862 -146.221737 14.098367
v 23.201550 -146.221737 10.745787
v 26.577707 -143.879602 -14.040043
v 20.249302 -143.879602 -18.420403
v -15.961449 -143.879602 -17.209364
v -22.105335 -143.879602 -13.588185
v -22.105335 -143.879602 13.588185
v -15.961449 -143.879602 17.209364
v 20.249302 -143.879602 18.420401
v 26.577707 -143.879602 14.040043
v 27.763250 -140.120398 -15.196830
v 21.594723 -140.120398 -19.938103
v -17.306870 -140.120398 -18.627285
v -23.547501 -140.120398 -14.707748
v -23.547501 -140.120398 14.707744
v -17.306873 -140.120398 18.627285
v 21.594723 -140.120398 19.938105
v 27.763250 -140.120398 15.196836
v 26.577707 -133.954519 -14.040043
v 20.249302 -133.954519 -18.420403
v -15.961449 -133.954519 -17.209364
v -22.105335 -133.954519 -13.588185
v -22.105335 -133.954519 13.588185
v -15.961449 -133.954519 17.209364
v 20.249302 -133.954519 18.420401
v 26.577707 -133.954519 14.040043
v 23.201550 -129.201975 -10.745785
v 16.417866 -129.201975 -14.098368
v -12.130009 -129.201975 -13.171479
v -17.998371 -129.201975 -10.399951
v -17.998371 -129.201975 10.399948
v -12.130013 -129.201975 13.171479
v 16.417862 -129.201975 14.098367
v 23.201550 -129.201975 10.745787
v 1.782134 -146.221737 -14.070932
v 1.782133 -146.221737 14.070932
v 1.782134 -143.879602 -18.384556
v 1.782134 -143.879602 18.384556
v 1.782134 -140.120398 -19.899303
v 1.782136 -140.120398 19.899303
v 1.782134 -133.954519 -18.384556
v 1.782134 -133.954519 18.384556
v 1.782134 -129.201975 -14.070932
v 1.782133 -129.201975 14.070932
v -19.020596 -146.221737 0.013929
v 24.041880 -146.221737 0.014392
v -23.296175 -143.879602 0.013929
v 27.556646 -143.879602 0.014393
v -24.797548 -140.120398 0.013929
v 28.790863 -140.120398 0.014392
v -23.296175 -133.954519 0.013929
v 27.556646 -133.954519 0.014393
v -19.020596 -129.201975 0.013929
v 24.041880 -129.201975 0.014392
v 25.207527 -131.554288 -12.563534
v 18.536640 -131.554288 -16.483240
v -14.239559 -131.554288 -15.399560
v -20.438562 -131.554288 -12.159197
v -20.438562 -131.554288 12.159197
v -14.239559 -131.554288 15.399560
v 18.536640 -131.554288 16.483240
v 25.207527 -131.554288 12.563534
v 1.787190 -131.554288 -16.451164
v 1.787190 -131.554288 16.451164
v -21.560970 -131.554288 0.014140
v 26.130215 -131.554288 0.014610
v 27.642797 -136.767971 -14.901833
v 21.257488 -136.767971 -19.551064
v -16.957901 -136.767971 -18.265694
v -23.400974 -136.767971 -14.422243
v -23.400974 -136.767971 14.422240
v -16.957905 -136.767971 18.265694
v 21.257488 -136.767971 19.551067
v 27.642797 -136.767971 14.901836
v 1.788564 -136.767971 -19.513020
v 1.788565 -136.767971 19.513020
v -24.645008 -136.767971 0.014197
v 28.665466 -136.767971 0.014669
vt 1.226151 0.002997
vt 1.127908 0.002997
vt -0.233795 0.002997
vt -0.127844 0.002997
vt 0.127908 0.002997
vt 0.233858 0.002997
vt 0.773913 0.002997
vt 0.872156 0.002997
vt 1.227033 0.380403
vt 1.141571 0.380403
vt -0.232868 0.380403
vt -0.141507 0.380403
vt 0.141571 0.380403
vt 0.232932 0.380403
vt 0.773030 0.380403
vt 0.858493 0.380403
vt 1.227253 0.560274
vt 1.145396 0.560274
vt -0.232639 0.560274
vt -0.145332 0.560274
vt 0.145396 0.560274
vt 0.232703 0.560274
vt 0.772810 0.560274
vt 0.854668 0.560274
vt 1.227033 0.735625
vt 1.141571 0.735625
vt -0.232868 0.735625
vt -0.141507 0.735625
vt 0.141571 0.735625
vt 0.232932 0.735625
vt 0.773030 0.735625
vt 0.858493 0.735625
vt 1.226151 0.990795
vt 1.127908 0.990795
vt -0.233795 0.990795
vt -0.127844 0.990795
vt 0.127908 0.990795
vt 0.233858 0.990795
vt 0.773913 0.990795
vt 0.872156 0.990795
vt 1.766205 0.002997
vt 1.767132 0.380403
vt 1.767361 0.560274
vt 1.767132 0.735625
vt 1.766205 0.990795
vt 1.495546 0.002997
vt 0.504518 0.002997
vt 1.496599 0.380403
vt 0.503465 0.380403
vt 1.496860 0.560274
vt 0.503204 0.560274
vt 1.496599 0.735625
vt 0.503465 0.735625
vt 1.495546 0.990795
vt 0.504518 0.990795
vt 0.000203 0.002997
vt 0.999861 0.002997
vt 0.000177 0.380403
vt 0.999887 0.380403
vt 0.000170 0.560274
vt 0.999894 0.560274
vt 0.000177 0.735625
vt 0.999887 0.735625
vt 0.000203 0.990795
vt 0.999861 0.990795
vt 1.134670 0.853018
vt 1.226588 0.853018
vt 1.766664 0.853018
vt -0.233336 0.853018
vt -0.134607 0.853018
vt 0.134670 0.853018
vt 0.233400 0.853018
vt 0.773476 0.853018
vt 0.865393 0.853018
vt 1.496067 0.853018
vt 0.503997 0.853018
vt 0.000190 0.853018
vt 0.999874 0.853018
vt 1.143491 0.647623
vt 1.227144 0.647623
vt 1.767246 0.647623
vt -0.232753 0.647623
vt -0.143427 0.647623
vt 0.143491 0.647623
vt 0.232817 0.647623
vt 0.772920 0.647623
vt 0.856573 0.647623
vt 1.496730 0.647623
vt 0.503334 0.647623
vt 0.000173 0.647623
vt 0.999890 0.647623
vn 0.390998 -0.897210 -0.205266
vn 0.106160 -0.900754 -0.421155
vn 0.201190 -0.707277 -0.677703
vn 0.628986 -0.701686 -0.334684
vn -0.016121 -0.878427 -0.477605
vn -0.025398 -0.665046 -0.746370
vn -0.115001 -0.897049 -0.426707
vn -0.344115 -0.914585 -0.212414
vn -0.581981 -0.730987 -0.356310
vn -0.204580 -0.698320 -0.685927
vn -0.475060 -0.879954 0.000049
vn -0.744900 -0.667176 0.000068
vn -0.344096 -0.914581 0.212462
vn -0.115001 -0.897049 0.426707
vn -0.204580 -0.698320 0.685927
vn -0.581954 -0.730978 0.356373
vn -0.016121 -0.878427 0.477605
vn -0.025398 -0.665047 0.746370
vn 0.106160 -0.900754 0.421156
vn 0.390977 -0.897209 0.205311
vn 0.628962 -0.701682 0.334739
vn 0.201190 -0.707277 0.677703
vn 0.548937 -0.835864 0.000046
vn 0.792721 -0.609584 0.000058
vn 0.305842 -0.156814 -0.939079
vn 0.867889 -0.167073 -0.467820
vn -0.033879 -0.133533 -0.990465
vn -0.838001 -0.184298 -0.513603
vn -0.297246 -0.152482 -0.942547
vn -0.985909 -0.167281 0.000082
vn -0.297246 -0.152482 0.942547
vn -0.837958 -0.184295 0.513674
vn -0.033879 -0.133533 0.990465
vn 0.867857 -0.167073 0.467879
vn 0.305842 -0.156814 0.939079
vn 0.990125 -0.140190 0.000066
vn 0.293971 0.280339 -0.913778
vn 0.844883 0.272070 -0.460599
vn -0.033129 0.245160 -0.968916
vn -0.811546 0.296088 -0.503712
vn -0.286473 0.272705 -0.918458
vn -0.969139 0.246517 0.000081
vn -0.286474 0.272704 0.918458
vn -0.811504 0.296081 0.503783
vn -0.033129 0.245161 0.968916
vn 0.844851 0.272068 0.460657
vn 0.293971 0.280339 0.913778
vn 0.978286 0.207260 0.000066
vn 0.733076 0.550425 -0.399541
vn 0.236375 0.557473 -0.795833
vn 0.176727 0.713341 -0.678169
vn 0.614892 0.708317 -0.346693
vn -0.029375 0.504679 -0.862808
vn -0.025048 0.669654 -0.742251
vn -0.238323 0.547005 -0.802489
vn -0.687190 0.588183 -0.426392
vn -0.565981 0.741238 -0.360875
vn -0.187429 0.705347 -0.683635
vn -0.856683 0.515843 0.000078
vn -0.743668 0.668549 0.000078
vn -0.687154 0.588175 0.426463
vn -0.238323 0.547005 0.802489
vn -0.187429 0.705347 0.683635
vn -0.565947 0.741229 0.360948
vn -0.029375 0.504679 0.862807
vn -0.025048 0.669654 0.742251
vn 0.236375 0.557473 0.795833
vn 0.733045 0.550422 0.399601
vn 0.614861 0.708312 0.346756
vn 0.176727 0.713341 0.678169
vn 0.895688 0.444683 0.000065
vn 0.803191 0.595722 0.000068
vn -0.023589 0.710536 -0.703265
vn -0.168003 0.744723 -0.645882
vn -0.023589 0.710536 0.703265
vn 0.153580 0.751122 0.642051
vn -0.674617 0.738168 0.000078
vn -0.506872 0.793054 0.337854
vn 0.743480 0.668758 0.000069
vn 0.556016 0.763427 -0.328673
vn 0.153580 0.751121 -0.642051
vn -0.506906 0.793064 -0.337781
vn -0.168003 0.744723 0.645882
vn 0.555984 0.763422 0.328738
s 1
g pSphere7
usemtl forcefield1
f 1/2/1 2/1/2 10/9/3 9/10/4
f 2/1/2 41/46/5 43/48/6 10/9/3
f 3/3/7 4/4/8 12/12/9 11/11/10
f 4/4/8 51/56/11 53/58/12 12/12/9
f 5/5/13 6/6/14 14/14/15 13/13/16
f 6/6/14 42/47/17 44/49/18 14/14/15
f 7/7/19 8/8/20 16/16/21 15/15/22
f 8/8/20 52/57/23 54/59/24 16/16/21
f 9/10/4 10/9/3 18/17/25 17/18/26
f 10/9/3 43/48/6 45/50/27 18/17/25
f 11/11/10 12/12/9 20/20/28 19/19/29
f 12/12/9 53/58/12 55/60/30 20/20/28
f 13/13/16 14/14/15 22/22/31 21/21/32
f 14/14/15 44/49/18 46/51/33 22/22/31
f 15/15/22 16/16/21 24/24/34 23/23/35
f 16/16/21 54/59/24 56/61/36 24/24/34
f 17/18/26 18/17/25 74/80/37 73/79/38
f 18/17/25 45/50/27 81/88/39 74/80/37
f 19/19/29 20/20/28 76/83/40 75/82/41
f 20/20/28 55/60/30 83/90/42 76/83/40
f 21/21/32 22/22/31 78/85/43 77/84/44
f 22/22/31 46/51/33 82/89/45 78/85/43
f 23/23/35 24/24/34 80/87/46 79/86/47
f 24/24/34 56/61/36 84/91/48 80/87/46
f 25/26/49 26/25/50 62/67/51 61/66/52
f 26/25/50 47/52/53 69/75/54 62/67/51
f 27/27/55 28/28/56 64/70/57 63/69/58
f 28/28/56 57/62/59 71/77/60 64/70/57
f 29/29/61 30/30/62 66/72/63 65/71/64
f 30/30/62 48/53/65 70/76/66 66/72/63
f 31/31/67 32/32/68 68/74/69 67/73/70
f 32/32/68 58/63/71 72/78/72 68/74/69
f 43/48/6 41/46/5 3/41/7 11/42/10
f 44/49/18 42/47/17 7/7/19 15/15/22
f 45/50/27 43/48/6 11/42/10 19/43/29
f 46/51/33 44/49/18 15/15/22 23/23/35
f 47/52/53 81/88/39 75/81/41 27/44/55
f 48/53/65 82/89/45 79/86/47 31/31/67
f 49/54/73 69/75/54 63/68/58 35/45/74
f 50/55/75 70/76/66 67/73/70 39/39/76
f 53/58/12 51/56/11 5/5/13 13/13/16
f 54/59/24 52/57/23 1/2/1 9/10/4
f 55/60/30 53/58/12 13/13/16 21/21/32
f 56/61/36 54/59/24 9/10/4 17/18/26
f 57/62/59 83/90/42 77/84/44 29/29/61
f 58/63/71 84/91/48 73/79/38 25/26/49
f 59/64/77 71/77/60 65/71/64 37/37/78
f 60/65/79 72/78/72 61/66/52 33/34/80
f 61/66/52 62/67/51 34/33/81 33/34/80
f 62/67/51 69/75/54 49/54/73 34/33/81
f 63/69/58 64/70/57 36/36/82 35/35/74
f 64/70/57 71/77/60 59/64/77 36/36/82
f 65/71/64 66/72/63 38/38/83 37/37/78
f 66/72/63 70/76/66 50/55/75 38/38/83
f 67/73/70 68/74/69 40/40/84 39/39/76
f 68/74/69 72/78/72 60/65/79 40/40/84
f 63/68/58 69/75/54 47/52/53 27/44/55
f 67/73/70 70/76/66 48/53/65 31/31/67
f 65/71/64 71/77/60 57/62/59 29/29/61
f 61/66/52 72/78/72 58/63/71 25/26/49
f 73/79/38 74/80/37 26/25/50 25/26/49
f 74/80/37 81/88/39 47/52/53 26/25/50
f 75/82/41 76/83/40 28/28/56 27/27/55
f 76/83/40 83/90/42 57/62/59 28/28/56
f 77/84/44 78/85/43 30/30/62 29/29/61
f 78/85/43 82/89/45 48/53/65 30/30/62
f 79/86/47 80/87/46 32/32/68 31/31/67
f 80/87/46 84/91/48 58/63/71 32/32/68
f 75/81/41 81/88/39 45/50/27 19/43/29
f 79/86/47 82/89/45 46/51/33 23/23/35
f 77/84/44 83/90/42 55/60/30 21/21/32
f 73/79/38 84/91/48 56/61/36 17/18/26
