# This file uses centimeters as units for non-parametric coordinates.

mtllib heav_unit_iron.mtl
g default
v 23.701525 -109.195914 4.849573
v 25.218588 -109.528627 5.350658
v 22.459387 -109.195914 12.778973
v 24.133440 -109.528627 12.277886
v 28.855381 -107.416041 12.778973
v 29.138586 -108.135799 12.277886
v 30.097519 -107.416041 4.849573
v 30.223734 -108.135799 5.350658
v 30.122942 -107.407674 -4.828504
v 30.275106 -108.120185 -5.330178
v 28.890562 -107.404960 -12.757899
v 29.198483 -108.117813 -12.257403
v 22.430750 -109.202340 -12.763639
v 24.196566 -109.509549 -12.261848
v 23.663134 -109.205055 -4.834244
v 25.273191 -109.511921 -5.334624
v 26.617956 -107.855232 13.595588
v 28.472902 -107.177999 12.743203
v 21.675358 -102.085954 14.584931
v 24.177668 -101.502572 13.539697
v 23.791967 -102.085954 0.083848
v 26.130318 -101.502588 0.278206
v 28.734566 -107.855232 0.083848
v 30.425539 -107.177999 0.278206
v 21.672295 -102.082133 -14.576553
v 24.174873 -101.499267 -13.532169
v 26.612926 -107.851409 -13.600655
v 28.468363 -107.174659 -12.747480
v 28.735035 -107.859065 -0.090793
v 30.425621 -107.181721 -0.287091
v 23.794405 -102.089789 -0.078260
v 26.132118 -101.506313 -0.276142
v 8.732043 -100.021726 -17.614165
v 10.392019 -99.039180 -15.873584
v 22.054480 -102.172427 -14.589998
v 23.421061 -101.190887 -13.674749
v 23.364431 -102.175532 -5.302061
v 24.435373 -101.193291 -6.321769
v 8.745616 -100.021780 -5.289528
v 10.648759 -99.039220 -6.310819
v 16.789745 -100.407371 -15.941609
v 16.959433 -99.299843 -14.587098
v 18.123270 -100.407371 -5.296895
v 17.995571 -99.299843 -6.316236
v 22.064728 -102.174952 14.584931
v 23.430157 -101.193092 13.670531
v 8.741472 -100.021771 17.622702
v 10.400186 -99.039217 15.881133
v 8.743031 -100.021770 5.829424
v 10.638930 -99.039217 6.665837
v 23.281294 -102.174952 5.829424
v 24.382174 -101.193092 6.665837
v 16.790802 -100.407371 15.941701
v 16.960323 -99.299843 14.588515
v 18.057625 -100.407371 5.829424
v 17.952843 -99.299843 6.665837
vt 0.136908 0.514646
vt 0.136908 0.439124
vt 0.999047 0.439124
vt 0.999047 0.514646
vt 0.996661 0.052642
vt 0.996661 0.102357
vt 0.000645 0.102357
vt 0.000645 0.052642
vt 0.136908 0.515844
vt 0.136908 0.440322
vt 0.999047 0.440322
vt 0.999047 0.515844
vt 0.996661 0.052493
vt 0.996661 0.102208
vt 0.000645 0.102208
vt 0.000645 0.052493
vt 0.131511 0.532466
vt 1.005758 0.532466
vt 1.005758 0.998006
vt 0.131511 0.998006
vt 1.005758 0.532466
vt 0.131511 0.532466
vt 0.131511 0.998006
vt 1.005758 0.998006
vt 0.136908 0.514646
vt 0.136908 0.439124
vt 0.999047 0.439124
vt 0.999047 0.514646
vt 0.996661 0.052642
vt 0.996661 0.102357
vt 0.000645 0.102357
vt 0.000645 0.052642
vt 0.136908 0.515844
vt 0.136908 0.440322
vt 0.999047 0.440322
vt 0.999047 0.515844
vt 0.996661 0.052493
vt 0.996661 0.102208
vt 0.000645 0.102208
vt 0.000645 0.052493
vt 0.135110 0.998006
vt 1.002159 0.998006
vt 1.002159 0.532466
vt 0.135110 0.532466
vt 1.002159 0.998006
vt 0.135110 0.998006
vt 0.135110 0.532466
vt 1.002159 0.532466
vt 0.136908 0.514646
vt 0.136908 0.439124
vt 0.999047 0.439124
vt 0.999047 0.514646
vt 0.996661 0.052642
vt 0.996661 0.102357
vt 0.000645 0.102357
vt 0.000645 0.052642
vt 0.136908 0.515844
vt 0.136908 0.440322
vt 0.999047 0.440322
vt 0.999047 0.515844
vt 0.996661 0.052493
vt 0.996661 0.102208
vt 0.000645 0.102208
vt 0.000645 0.052493
vt 0.131511 0.532466
vt 1.005758 0.532466
vt 1.005758 0.998006
vt 0.131511 0.998006
vt 1.005758 0.532466
vt 0.131511 0.532466
vt 0.131511 0.998006
vt 1.005758 0.998006
vt 0.136908 0.514646
vt 0.136908 0.439124
vt 0.999047 0.439124
vt 0.999047 0.514646
vt 0.996661 0.052642
vt 0.996661 0.102357
vt 0.000645 0.102357
vt 0.000645 0.052642
vt 0.136908 0.515844
vt 0.136908 0.440322
vt 0.999047 0.440322
vt 0.999047 0.515844
vt 0.996661 0.052493
vt 0.996661 0.102208
vt 0.000645 0.102208
vt 0.000645 0.052493
vt 0.135110 0.998006
vt 1.002159 0.998006
vt 1.002159 0.532466
vt 0.135110 0.532466
vt 1.002159 0.998006
vt 0.135110 0.998006
vt 0.135110 0.532466
vt 1.002159 0.532466
vt 0.136908 0.514646
vt 0.136908 0.439124
vt 0.563955 0.439124
vt 0.644269 0.514646
vt 0.996661 0.052642
vt 0.996661 0.102357
vt 0.000645 0.102357
vt 0.000645 0.052642
vt 0.136908 0.515844
vt 0.136908 0.440322
vt 0.572554 0.440322
vt 0.492311 0.515844
vt 0.996661 0.052493
vt 0.996661 0.102208
vt 0.000645 0.102208
vt 0.000645 0.052493
vt 0.131511 0.532466
vt 1.005758 0.532466
vt 1.005758 0.762765
vt 0.131511 0.763064
vt 1.005758 0.532466
vt 0.131511 0.532466
vt 0.131511 0.806432
vt 1.005758 0.806095
vt 0.999047 0.439124
vt 0.999047 0.514646
vt 0.999047 0.440322
vt 0.999047 0.515844
vt 1.005758 0.998006
vt 0.131511 0.998006
vt 0.131511 0.998006
vt 1.005758 0.998006
vt 0.136908 0.514646
vt 0.136908 0.439124
vt 0.572508 0.439124
vt 0.492194 0.514646
vt 0.996661 0.052642
vt 0.996661 0.102357
vt 0.000645 0.102357
vt 0.000645 0.052642
vt 0.136908 0.515844
vt 0.136908 0.440322
vt 0.563448 0.440322
vt 0.643761 0.515844
vt 0.996661 0.052493
vt 0.996661 0.102208
vt 0.000645 0.102208
vt 0.000645 0.052493
vt 0.131511 0.532466
vt 1.005758 0.532466
vt 1.005758 0.767682
vt 0.131511 0.767682
vt 1.005758 0.532466
vt 0.131511 0.532466
vt 0.131511 0.724314
vt 1.005758 0.724314
vt 0.999047 0.439124
vt 0.999047 0.514646
vt 0.999047 0.440322
vt 0.999047 0.515844
vt 1.005758 0.998006
vt 0.131511 0.998006
vt 0.131511 0.998006
vt 1.005758 0.998006
vn -0.204030 -0.978443 -0.031961
vn -0.204030 -0.978443 -0.031961
vn -0.204030 -0.978443 -0.031961
vn -0.204030 -0.978443 -0.031961
vn 0.146316 -0.525789 0.837936
vn 0.146316 -0.525789 0.837936
vn 0.146316 -0.525789 0.837936
vn 0.146316 -0.525789 0.837936
vn 0.951118 0.270510 0.148992
vn 0.951118 0.270510 0.148992
vn 0.951118 0.270510 0.148992
vn 0.951118 0.270510 0.148992
vn 0.152109 -0.546607 -0.823458
vn 0.152109 -0.546607 -0.823458
vn 0.152109 -0.546607 -0.823458
vn 0.152109 -0.546607 -0.823458
vn 0.267856 -0.962545 0.041960
vn 0.267856 -0.962545 0.041960
vn 0.267856 -0.962545 0.041960
vn 0.267856 -0.962545 0.041960
vn -0.267856 0.962545 -0.041960
vn -0.267856 0.962545 -0.041960
vn -0.267856 0.962545 -0.041960
vn -0.267856 0.962545 -0.041960
vn 0.941391 0.303985 -0.146206
vn 0.941391 0.303985 -0.146206
vn 0.941391 0.303985 -0.146206
vn 0.941391 0.303985 -0.146206
vn 0.146852 -0.525114 -0.838266
vn 0.146852 -0.525114 -0.838266
vn 0.146852 -0.525114 -0.838266
vn 0.146852 -0.525114 -0.838266
vn -0.178908 -0.983482 0.027469
vn -0.178908 -0.983482 0.027469
vn -0.178908 -0.983482 0.027469
vn -0.178908 -0.983482 0.027469
vn 0.151527 -0.547220 0.823158
vn 0.151527 -0.547220 0.823158
vn 0.151527 -0.547220 0.823158
vn 0.151527 -0.547220 0.823158
vn 0.267856 -0.962545 -0.041960
vn 0.267856 -0.962545 -0.041960
vn 0.267856 -0.962545 -0.041960
vn 0.267856 -0.962545 -0.041960
vn -0.267856 0.962545 0.041960
vn -0.267856 0.962545 0.041960
vn -0.267856 0.962545 0.041960
vn -0.267856 0.962545 0.041960
vn 0.359174 0.146081 0.921767
vn 0.359174 0.146081 0.921767
vn 0.359174 0.146081 0.921767
vn 0.359174 0.146081 0.921767
vn -0.240015 0.970132 -0.035180
vn -0.240015 0.970132 -0.035180
vn -0.240015 0.970132 -0.035180
vn -0.240015 0.970132 -0.035180
vn 0.076647 0.061867 -0.995137
vn 0.076647 0.061867 -0.995137
vn 0.076647 0.061867 -0.995137
vn 0.076647 0.061867 -0.995137
vn 0.365502 -0.929048 0.057256
vn 0.365502 -0.929048 0.057256
vn 0.365502 -0.929048 0.057256
vn 0.365502 -0.929048 0.057256
vn 0.795608 0.593651 0.120773
vn 0.795608 0.593651 0.120773
vn 0.795608 0.593651 0.120773
vn 0.795608 0.593651 0.120773
vn -0.759243 -0.640614 -0.114735
vn -0.759243 -0.640614 -0.114735
vn -0.759243 -0.640614 -0.114735
vn -0.759243 -0.640614 -0.114735
vn 0.358672 0.147602 -0.921720
vn 0.358672 0.147602 -0.921720
vn 0.358672 0.147602 -0.921720
vn 0.358672 0.147602 -0.921720
vn 0.365487 -0.929011 -0.057937
vn 0.365487 -0.929011 -0.057937
vn 0.365487 -0.929011 -0.057937
vn 0.365487 -0.929011 -0.057937
vn 0.078248 0.061093 0.995060
vn 0.078248 0.061093 0.995060
vn 0.078248 0.061093 0.995060
vn 0.078248 0.061093 0.995060
vn -0.240022 0.970107 0.035793
vn -0.240022 0.970107 0.035793
vn -0.240022 0.970107 0.035793
vn -0.240022 0.970107 0.035793
vn 0.795607 0.593651 -0.120780
vn 0.795607 0.593651 -0.120780
vn 0.795607 0.593651 -0.120780
vn 0.795607 0.593651 -0.120780
vn -0.759245 -0.640617 0.114702
vn -0.759245 -0.640617 0.114702
vn -0.759245 -0.640617 0.114702
vn -0.759245 -0.640617 0.114702
vn 0.158604 0.772227 -0.615232
vn 0.158604 0.772227 -0.615232
vn 0.241954 0.684025 -0.688163
vn 0.241954 0.684025 -0.688163
vn 0.622711 -0.777574 -0.087233
vn 0.622711 -0.777574 -0.087233
vn 0.622711 -0.777574 -0.087233
vn 0.622711 -0.777574 -0.087233
vn 0.200189 0.636450 0.744887
vn 0.200189 0.636450 0.744887
vn 0.113508 0.664357 0.738746
vn 0.113508 0.664357 0.738746
vn -0.483852 0.875129 0.005979
vn -0.483852 0.875129 0.005979
vn -0.483852 0.875129 0.005979
vn -0.483852 0.875129 0.005979
vn 0.037689 0.999286 -0.002730
vn 0.037689 0.999286 -0.002730
vn 0.160603 0.986819 -0.019875
vn 0.160603 0.986819 -0.019875
vn -0.044439 -0.999009 0.002604
vn -0.044439 -0.999009 0.002604
vn -0.183826 -0.982699 0.022620
vn -0.183826 -0.982699 0.022620
vn 0.324492 0.576302 -0.750054
vn 0.324492 0.576302 -0.750054
vn 0.027080 0.686464 0.726660
vn 0.027080 0.686464 0.726660
vn 0.283684 0.958201 -0.037083
vn 0.283684 0.958201 -0.037083
vn -0.323390 -0.945300 0.042741
vn -0.323390 -0.945300 0.042741
vn 0.324813 0.575730 0.750355
vn 0.324813 0.575730 0.750355
vn 0.242530 0.683554 0.688428
vn 0.242530 0.683554 0.688428
vn -0.484895 0.874555 -0.005546
vn -0.484895 0.874555 -0.005546
vn -0.484895 0.874555 -0.005546
vn -0.484895 0.874555 -0.005546
vn 0.023791 0.612185 -0.790356
vn 0.023791 0.612185 -0.790356
vn 0.100131 0.589393 -0.801617
vn 0.100131 0.589393 -0.801617
vn 0.622257 -0.778116 0.085622
vn 0.622257 -0.778116 0.085622
vn 0.622257 -0.778116 0.085622
vn 0.622257 -0.778116 0.085622
vn 0.283891 0.958143 0.036981
vn 0.283891 0.958143 0.036981
vn 0.160760 0.986794 0.019816
vn 0.160760 0.986794 0.019816
vn -0.323801 -0.945165 -0.042619
vn -0.323801 -0.945165 -0.042619
vn -0.184122 -0.982645 -0.022549
vn -0.184122 -0.982645 -0.022549
vn 0.159415 0.771872 0.615468
vn 0.159415 0.771872 0.615468
vn 0.176697 0.562453 -0.807728
vn 0.176697 0.562453 -0.807728
vn 0.037796 0.999282 0.002716
vn 0.037796 0.999282 0.002716
vn -0.044620 -0.999001 -0.002584
vn -0.044620 -0.999001 -0.002584
s off
g polySurface64
usemtl iron
f 1/1/1 2/2/2 4/3/3 3/4/4
f 3/5/5 4/6/6 6/7/7 5/8/8
f 5/9/9 6/10/10 8/11/11 7/12/12
f 7/13/13 8/14/14 2/15/15 1/16/16
f 2/17/17 8/18/18 6/19/19 4/20/20
f 7/21/21 1/22/22 3/23/23 5/24/24
f 9/25/25 10/26/26 12/27/27 11/28/28
f 11/29/29 12/30/30 14/31/31 13/32/32
f 13/33/33 14/34/34 16/35/35 15/36/36
f 15/37/37 16/38/38 10/39/39 9/40/40
f 10/41/41 16/42/42 14/43/43 12/44/44
f 15/45/45 9/46/46 11/47/47 13/48/48
f 17/49/49 18/50/50 20/51/51 19/52/52
f 19/53/53 20/54/54 22/55/55 21/56/56
f 21/57/57 22/58/58 24/59/59 23/60/60
f 23/61/61 24/62/62 18/63/63 17/64/64
f 18/65/65 24/66/66 22/67/67 20/68/68
f 23/69/69 17/70/70 19/71/71 21/72/72
f 25/73/73 26/74/74 28/75/75 27/76/76
f 27/77/77 28/78/78 30/79/79 29/80/80
f 29/81/81 30/82/82 32/83/83 31/84/84
f 31/85/85 32/86/86 26/87/87 25/88/88
f 26/89/89 32/90/90 30/91/91 28/92/92
f 31/93/93 25/94/94 27/95/95 29/96/96
s 1
f 33/97/97 34/98/98 42/99/99 41/100/100
s off
f 35/101/101 36/102/102 38/103/103 37/104/104
s 2
f 37/105/105 38/106/106 44/107/107 43/108/108
s off
f 39/109/109 40/110/110 34/111/111 33/112/112
s 3
f 34/113/113 40/114/114 44/115/115 42/116/116
s 4
f 39/117/117 33/118/118 41/119/119 43/120/120
s 1
f 41/100/100 42/99/99 36/121/121 35/122/122
s 2
f 43/108/108 44/107/107 40/123/123 39/124/124
s 3
f 42/116/116 44/115/115 38/125/125 36/126/126
s 4
f 43/120/120 41/119/119 35/127/127 37/128/128
s 5
f 45/129/129 46/130/130 54/131/131 53/132/132
s off
f 47/133/133 48/134/134 50/135/135 49/136/136
s 6
f 49/137/137 50/138/138 56/139/139 55/140/140
s off
f 51/141/141 52/142/142 46/143/143 45/144/144
s 7
f 46/145/145 52/146/146 56/147/147 54/148/148
s 8
f 51/149/149 45/150/150 53/151/151 55/152/152
s 5
f 53/132/132 54/131/131 48/153/153 47/154/154
s 6
f 55/140/140 56/139/139 52/155/155 51/156/156
s 7
f 54/148/148 56/147/147 50/157/157 48/158/158
s 8
f 55/152/152 53/151/151 47/159/159 49/160/160
