# This file uses centimeters as units for non-parametric coordinates.

mtllib light_unit_regenerating.mtl
g default
v 16.854059 22.470507 31.722655
v 11.596014 22.470507 28.989511
v -7.153986 22.470507 30.318712
v -11.179608 22.470507 32.188039
v -11.179608 22.470507 41.808800
v -7.153988 22.470507 43.678128
v 11.596012 22.470507 45.007329
v 16.854059 22.470507 42.274186
v 19.170061 23.634769 30.105302
v 14.224331 23.634769 26.534277
v -9.782305 23.634769 28.270962
v -13.996933 23.634769 30.713357
v -13.996933 23.634769 43.283483
v -9.782305 23.634769 45.725878
v 14.224331 23.634769 47.462563
v 19.170061 23.634769 43.891538
v 19.983328 25.503449 29.537364
v 15.147272 25.503449 25.672111
v -10.705247 25.503449 27.551886
v -14.986240 25.503449 30.195515
v -14.986240 25.503449 43.801323
v -10.705250 25.503449 46.444954
v 15.147272 25.503449 48.324730
v 19.983328 25.503449 44.459480
v 19.170061 28.568473 30.105302
v 14.224331 28.568473 26.534277
v -9.782305 28.568473 28.270962
v -13.996933 28.568473 30.713357
v -13.996933 28.568473 43.283483
v -9.782305 28.568473 45.725878
v 14.224331 28.568473 47.462563
v 19.170061 28.568473 43.891538
v 16.854059 30.930936 31.722655
v 11.596014 30.930936 28.989511
v -7.153986 30.930936 30.318712
v -11.179608 30.930936 32.188039
v -11.179608 30.930936 41.808800
v -7.153988 30.930936 43.678128
v 11.596012 30.930936 45.007329
v 16.854059 30.930936 42.274186
v 1.439600 22.470507 29.449394
v 1.439600 22.470507 44.547446
v 1.439601 23.634769 27.135144
v 1.439601 23.634769 46.861696
v 1.439600 25.503449 26.322486
v 1.439602 25.503449 47.674354
v 1.439601 28.568473 27.135144
v 1.439601 28.568473 46.861696
v 1.439600 30.930936 29.449394
v 1.439600 30.930936 44.547446
v -11.880842 22.470507 37.004863
v 17.659472 22.470507 37.006889
v -14.813834 23.634769 37.004863
v 20.070557 23.634769 37.006890
v -15.843758 25.503449 37.004863
v 20.917213 25.503449 37.006889
v -14.813834 28.568473 37.004863
v 20.070557 28.568473 37.006890
v -11.880842 30.930936 37.004863
v 17.659472 30.930936 37.006889
v 18.230135 29.761614 30.830210
v 13.049467 29.761614 27.634727
v -8.601111 29.761614 29.188775
v -12.853548 29.761614 31.374319
v -12.853548 29.761614 42.622521
v -8.601111 29.761614 44.808065
v 13.049467 29.761614 46.362113
v 18.230135 29.761614 43.166630
v 1.443069 29.761614 28.172405
v 1.443069 29.761614 45.824435
v -13.623507 29.761614 37.004960
v 19.092043 29.761614 37.007018
v 19.900700 27.169921 29.682196
v 14.915934 27.169921 25.891977
v -10.465859 27.169921 27.735261
v -14.885725 27.169921 30.327572
v -14.885725 27.169921 43.669266
v -10.465860 27.169921 46.261579
v 14.915934 27.169921 48.104863
v 19.900700 27.169921 44.314646
v 1.444011 27.169921 26.529726
v 1.444012 27.169921 47.467114
v -15.739117 27.169921 37.004987
v 20.831192 27.169921 37.007053
vt 1.226151 0.086430
vt 1.127908 0.086430
vt -0.233795 0.086430
vt -0.127844 0.086430
vt 0.127908 0.086430
vt 0.233858 0.086430
vt 0.773913 0.086430
vt 0.872156 0.086430
vt 1.227033 0.380403
vt 1.141571 0.380403
vt -0.232868 0.380403
vt -0.141507 0.380403
vt 0.141571 0.380403
vt 0.232932 0.380403
vt 0.773030 0.380403
vt 0.858493 0.380403
vt 1.227253 0.560274
vt 1.145396 0.560274
vt -0.232639 0.560274
vt -0.145332 0.560274
vt 0.145396 0.560274
vt 0.232703 0.560274
vt 0.772810 0.560274
vt 0.854668 0.560274
vt 1.227033 0.735625
vt 1.141571 0.735625
vt -0.232868 0.735625
vt -0.141507 0.735625
vt 0.141571 0.735625
vt 0.232932 0.735625
vt 0.773030 0.735625
vt 0.858493 0.735625
vt 1.226151 0.953524
vt 1.127908 0.953524
vt -0.233795 0.953524
vt -0.127844 0.953524
vt 0.127908 0.953524
vt 0.233858 0.953524
vt 0.773913 0.953524
vt 0.872156 0.953524
vt 1.766205 0.086430
vt 1.767132 0.380403
vt 1.767361 0.560274
vt 1.767132 0.735625
vt 1.766205 0.953524
vt 1.495546 0.086430
vt 0.504518 0.086430
vt 1.496599 0.380403
vt 0.503465 0.380403
vt 1.496860 0.560274
vt 0.503204 0.560274
vt 1.496599 0.735625
vt 0.503465 0.735625
vt 1.495546 0.953524
vt 0.504518 0.953524
vt 0.000203 0.086430
vt 0.999861 0.086430
vt 0.000177 0.380403
vt 0.999887 0.380403
vt 0.000170 0.560274
vt 0.999894 0.560274
vt 0.000177 0.735625
vt 0.999887 0.735625
vt 0.000203 0.953524
vt 0.999861 0.953524
vt 1.134670 0.853018
vt 1.226588 0.853018
vt 1.766664 0.853018
vt -0.233336 0.853018
vt -0.134607 0.853018
vt 0.134670 0.853018
vt 0.233400 0.853018
vt 0.773476 0.853018
vt 0.865393 0.853018
vt 1.496067 0.853018
vt 0.503997 0.853018
vt 0.000190 0.853018
vt 0.999874 0.853018
vt 1.143491 0.647623
vt 1.227144 0.647623
vt 1.767246 0.647623
vt -0.232753 0.647623
vt -0.143427 0.647623
vt 0.143491 0.647623
vt 0.232817 0.647623
vt 0.772920 0.647623
vt 0.856573 0.647623
vt 1.496730 0.647623
vt 0.503334 0.647623
vt 0.000173 0.647623
vt 0.999890 0.647623
vn 0.311132 -0.932198 -0.184944
vn 0.084559 -0.921306 -0.379533
vn 0.176445 -0.745559 -0.642657
vn 0.562112 -0.761831 -0.321937
vn -0.033073 -0.893201 -0.448440
vn -0.053667 -0.686872 -0.724794
vn -0.111530 -0.911917 -0.394928
vn -0.274408 -0.941280 -0.196706
vn -0.516310 -0.782734 -0.347492
vn -0.205588 -0.723600 -0.658891
vn -0.364324 -0.931272 0.000056
vn -0.656731 -0.754125 0.000087
vn -0.274392 -0.941273 0.196761
vn -0.111530 -0.911917 0.394928
vn -0.205588 -0.723600 0.658891
vn -0.516280 -0.782718 0.347573
vn -0.033073 -0.893201 0.448440
vn -0.053667 -0.686872 0.724794
vn 0.084559 -0.921306 0.379533
vn 0.311103 -0.932192 0.185022
vn 0.562069 -0.761817 0.322045
vn 0.176445 -0.745560 0.642657
vn 0.425396 -0.905007 0.000080
vn 0.708358 -0.705854 0.000114
vn 0.289955 -0.177942 -0.940352
vn 0.852303 -0.204409 -0.481452
vn -0.073264 -0.142556 -0.987071
vn -0.816780 -0.221786 -0.532617
vn -0.308607 -0.166130 -0.936570
vn -0.975568 -0.219696 0.000119
vn -0.308607 -0.166130 0.936570
vn -0.816717 -0.221778 0.532718
vn -0.073264 -0.142556 0.987071
vn 0.852232 -0.204403 0.481580
vn 0.289955 -0.177943 0.940352
vn 0.982160 -0.188049 0.000143
vn 0.276006 0.318367 -0.906898
vn 0.819373 0.329929 -0.468802
vn -0.071406 0.262772 -0.962212
vn -0.780659 0.350893 -0.517152
vn -0.295980 0.296755 -0.907928
vn -0.946872 0.321610 0.000117
vn -0.295980 0.296755 0.907927
vn -0.780599 0.350878 0.517252
vn -0.071406 0.262772 0.962212
vn 0.819305 0.329918 0.468927
vn 0.276005 0.318368 0.906898
vn 0.960883 0.276955 0.000142
vn 0.667362 0.636554 -0.386558
vn 0.209861 0.610480 -0.763723
vn 0.149792 0.758907 -0.633737
vn 0.531469 0.782292 -0.324899
vn -0.062508 0.532606 -0.844052
vn -0.052681 0.697698 -0.714452
vn -0.240879 0.582193 -0.776550
vn -0.617220 0.666215 -0.418565
vn -0.484052 0.804089 -0.345159
vn -0.186938 0.736574 -0.650009
vn -0.771025 0.636806 0.000103
vn -0.629892 0.776683 0.000097
vn -0.617177 0.666196 0.418659
vn -0.240879 0.582192 0.776550
vn -0.186938 0.736574 0.650009
vn -0.484017 0.804071 0.345250
vn -0.062508 0.532606 0.844052
vn -0.052681 0.697698 0.714452
vn 0.209860 0.610480 0.763723
vn 0.667305 0.636540 0.386681
vn 0.531416 0.782277 0.325023
vn 0.149792 0.758907 0.633737
vn 0.823491 0.567329 0.000132
vn 0.696608 0.717452 0.000131
vn -0.049534 0.737267 -0.673783
vn -0.167328 0.773739 -0.611006
vn -0.049534 0.737267 0.673783
vn 0.128063 0.792921 0.595715
vn -0.552151 0.833744 0.000094
vn -0.423134 0.847556 0.320322
vn 0.622697 0.782463 0.000130
vn 0.468176 0.829389 -0.304836
vn 0.128063 0.792921 -0.595715
vn -0.423167 0.847573 -0.320233
vn -0.167328 0.773740 0.611006
vn 0.468124 0.829373 0.304960
s 1
g pSphere3
usemtl forcefield
f 1/2/1 2/1/2 10/9/3 9/10/4
f 2/1/2 41/46/5 43/48/6 10/9/3
f 3/3/7 4/4/8 12/12/9 11/11/10
f 4/4/8 51/56/11 53/58/12 12/12/9
f 5/5/13 6/6/14 14/14/15 13/13/16
f 6/6/14 42/47/17 44/49/18 14/14/15
f 7/7/19 8/8/20 16/16/21 15/15/22
f 8/8/20 52/57/23 54/59/24 16/16/21
f 9/10/4 10/9/3 18/17/25 17/18/26
f 10/9/3 43/48/6 45/50/27 18/17/25
f 11/11/10 12/12/9 20/20/28 19/19/29
f 12/12/9 53/58/12 55/60/30 20/20/28
f 13/13/16 14/14/15 22/22/31 21/21/32
f 14/14/15 44/49/18 46/51/33 22/22/31
f 15/15/22 16/16/21 24/24/34 23/23/35
f 16/16/21 54/59/24 56/61/36 24/24/34
f 17/18/26 18/17/25 74/80/37 73/79/38
f 18/17/25 45/50/27 81/88/39 74/80/37
f 19/19/29 20/20/28 76/83/40 75/82/41
f 20/20/28 55/60/30 83/90/42 76/83/40
f 21/21/32 22/22/31 78/85/43 77/84/44
f 22/22/31 46/51/33 82/89/45 78/85/43
f 23/23/35 24/24/34 80/87/46 79/86/47
f 24/24/34 56/61/36 84/91/48 80/87/46
f 25/26/49 26/25/50 62/67/51 61/66/52
f 26/25/50 47/52/53 69/75/54 62/67/51
f 27/27/55 28/28/56 64/70/57 63/69/58
f 28/28/56 57/62/59 71/77/60 64/70/57
f 29/29/61 30/30/62 66/72/63 65/71/64
f 30/30/62 48/53/65 70/76/66 66/72/63
f 31/31/67 32/32/68 68/74/69 67/73/70
f 32/32/68 58/63/71 72/78/72 68/74/69
f 43/48/6 41/46/5 3/41/7 11/42/10
f 44/49/18 42/47/17 7/7/19 15/15/22
f 45/50/27 43/48/6 11/42/10 19/43/29
f 46/51/33 44/49/18 15/15/22 23/23/35
f 47/52/53 81/88/39 75/81/41 27/44/55
f 48/53/65 82/89/45 79/86/47 31/31/67
f 49/54/73 69/75/54 63/68/58 35/45/74
f 50/55/75 70/76/66 67/73/70 39/39/76
f 53/58/12 51/56/11 5/5/13 13/13/16
f 54/59/24 52/57/23 1/2/1 9/10/4
f 55/60/30 53/58/12 13/13/16 21/21/32
f 56/61/36 54/59/24 9/10/4 17/18/26
f 57/62/59 83/90/42 77/84/44 29/29/61
f 58/63/71 84/91/48 73/79/38 25/26/49
f 59/64/77 71/77/60 65/71/64 37/37/78
f 60/65/79 72/78/72 61/66/52 33/34/80
f 61/66/52 62/67/51 34/33/81 33/34/80
f 62/67/51 69/75/54 49/54/73 34/33/81
f 63/69/58 64/70/57 36/36/82 35/35/74
f 64/70/57 71/77/60 59/64/77 36/36/82
f 65/71/64 66/72/63 38/38/83 37/37/78
f 66/72/63 70/76/66 50/55/75 38/38/83
f 67/73/70 68/74/69 40/40/84 39/39/76
f 68/74/69 72/78/72 60/65/79 40/40/84
f 63/68/58 69/75/54 47/52/53 27/44/55
f 67/73/70 70/76/66 48/53/65 31/31/67
f 65/71/64 71/77/60 57/62/59 29/29/61
f 61/66/52 72/78/72 58/63/71 25/26/49
f 73/79/38 74/80/37 26/25/50 25/26/49
f 74/80/37 81/88/39 47/52/53 26/25/50
f 75/82/41 76/83/40 28/28/56 27/27/55
f 76/83/40 83/90/42 57/62/59 28/28/56
f 77/84/44 78/85/43 30/30/62 29/29/61
f 78/85/43 82/89/45 48/53/65 30/30/62
f 79/86/47 80/87/46 32/32/68 31/31/67
f 80/87/46 84/91/48 58/63/71 32/32/68
f 75/81/41 81/88/39 45/50/27 19/43/29
f 79/86/47 82/89/45 46/51/33 23/23/35
f 77/84/44 83/90/42 55/60/30 21/21/32
f 73/79/38 84/91/48 56/61/36 17/18/26
