# This file uses centimeters as units for non-parametric coordinates.

mtllib light_unit_iron.mtl
g default
v 11.589249 25.131551 -8.043587
v 12.859926 24.832728 -7.753747
v 10.120483 25.131551 -3.457032
v 11.391160 24.832728 -3.746873
v 15.214154 26.730123 -3.457032
v 15.377182 26.083681 -3.746873
v 16.682919 26.730123 -8.043587
v 16.845947 26.083681 -7.753747
v 16.701601 26.737638 -13.641619
v 16.885368 26.097705 -13.931799
v 15.240604 26.740077 -18.228171
v 15.423390 26.099835 -17.938672
v 10.096829 25.125779 -18.231491
v 11.440496 24.849863 -17.941243
v 11.557827 25.123341 -13.644939
v 12.902476 24.847733 -13.934371
v 13.534177 26.335669 -2.984682
v 14.905090 26.943918 -3.477722
v 9.597969 31.517281 -2.984682
v 11.484442 32.041224 -3.477722
v 11.408082 31.157498 -10.800197
v 13.294554 31.681441 -10.687776
v 15.002943 26.335669 -10.800197
v 16.373855 26.943918 -10.687776
v 9.595662 31.520712 -18.708392
v 11.482428 32.044222 -18.215811
v 13.531868 26.339103 -18.715642
v 14.903072 26.946918 -18.222145
v 15.005248 26.332226 -10.901214
v 16.376094 26.940576 -11.014757
v 11.410391 31.154052 -10.893964
v 13.296794 31.678096 -11.008424
v -0.207343 33.371243 -20.578452
v 1.078754 34.253707 -19.771018
v 9.901591 31.439616 -18.715642
v 10.883480 32.321175 -18.222145
v 10.793786 31.262065 -13.915536
v 11.773880 32.144254 -14.505359
v 1.270311 33.919082 -13.908287
v 2.554404 34.801558 -14.499026
v 6.042672 33.024882 -19.938815
v 6.042672 34.019594 -19.368126
v 7.511438 33.572768 -13.912548
v 7.511438 34.567482 -14.502159
v 9.908056 31.437349 -2.984682
v 10.889126 32.319195 -3.477722
v -0.200123 33.371205 -1.114623
v 1.085063 34.253674 -1.922611
v 1.268644 33.919092 -7.476818
v 2.553830 34.801560 -6.993016
v 10.792301 31.262587 -7.476818
v 11.773370 32.144433 -6.993016
v 6.042672 33.024882 -1.758526
v 6.042672 34.019595 -2.328440
v 7.511438 33.572768 -7.476818
v 7.511438 34.567482 -6.993016
vt 0.136908 0.514646
vt 0.136908 0.439124
vt 0.999047 0.439124
vt 0.999047 0.514646
vt 0.996661 0.052642
vt 0.996661 0.102357
vt 0.000645 0.102357
vt 0.000645 0.052642
vt 0.136908 0.515844
vt 0.136908 0.440322
vt 0.999047 0.440322
vt 0.999047 0.515844
vt 0.996661 0.052493
vt 0.996661 0.102208
vt 0.000645 0.102208
vt 0.000645 0.052493
vt 0.131511 0.532466
vt 1.005758 0.532466
vt 1.005758 0.998006
vt 0.131511 0.998006
vt 1.005758 0.532466
vt 0.131511 0.532466
vt 0.131511 0.998006
vt 1.005758 0.998006
vt 0.136908 0.514646
vt 0.136908 0.439124
vt 0.999047 0.439124
vt 0.999047 0.514646
vt 0.996661 0.052642
vt 0.996661 0.102357
vt 0.000645 0.102357
vt 0.000645 0.052642
vt 0.136908 0.515844
vt 0.136908 0.440322
vt 0.999047 0.440322
vt 0.999047 0.515844
vt 0.996661 0.052493
vt 0.996661 0.102208
vt 0.000645 0.102208
vt 0.000645 0.052493
vt 0.135110 0.998006
vt 1.002159 0.998006
vt 1.002159 0.532466
vt 0.135110 0.532466
vt 1.002159 0.998006
vt 0.135110 0.998006
vt 0.135110 0.532466
vt 1.002159 0.532466
vt 0.136908 0.514646
vt 0.136908 0.439124
vt 0.999047 0.439124
vt 0.999047 0.514646
vt 0.996661 0.052642
vt 0.996661 0.102357
vt 0.000645 0.102357
vt 0.000645 0.052642
vt 0.136908 0.515844
vt 0.136908 0.440322
vt 0.999047 0.440322
vt 0.999047 0.515844
vt 0.996661 0.052493
vt 0.996661 0.102208
vt 0.000645 0.102208
vt 0.000645 0.052493
vt 0.131511 0.532466
vt 1.005758 0.532466
vt 1.005758 0.998006
vt 0.131511 0.998006
vt 1.005758 0.532466
vt 0.131511 0.532466
vt 0.131511 0.998006
vt 1.005758 0.998006
vt 0.136908 0.514646
vt 0.136908 0.439124
vt 0.999047 0.439124
vt 0.999047 0.514646
vt 0.996661 0.052642
vt 0.996661 0.102357
vt 0.000645 0.102357
vt 0.000645 0.052642
vt 0.136908 0.515844
vt 0.136908 0.440322
vt 0.999047 0.440322
vt 0.999047 0.515844
vt 0.996661 0.052493
vt 0.996661 0.102208
vt 0.000645 0.102208
vt 0.000645 0.052493
vt 0.135110 0.998006
vt 1.002159 0.998006
vt 1.002159 0.532466
vt 0.135110 0.532466
vt 1.002159 0.998006
vt 0.135110 0.998006
vt 0.135110 0.532466
vt 1.002159 0.532466
vt 0.136908 0.514646
vt 0.136908 0.439124
vt 0.563955 0.439124
vt 0.644269 0.514646
vt 0.996661 0.052642
vt 0.996661 0.102357
vt 0.000645 0.102357
vt 0.000645 0.052642
vt 0.136908 0.515844
vt 0.136908 0.440322
vt 0.572554 0.440322
vt 0.492311 0.515844
vt 0.996661 0.052493
vt 0.996661 0.102208
vt 0.000645 0.102208
vt 0.000645 0.052493
vt 0.131511 0.532466
vt 1.005758 0.532466
vt 1.005758 0.762765
vt 0.131511 0.763064
vt 1.005758 0.532466
vt 0.131511 0.532466
vt 0.131511 0.806432
vt 1.005758 0.806095
vt 0.999047 0.439124
vt 0.999047 0.514646
vt 0.999047 0.440322
vt 0.999047 0.515844
vt 1.005758 0.998006
vt 0.131511 0.998006
vt 0.131511 0.998006
vt 1.005758 0.998006
vt 0.136908 0.514646
vt 0.136908 0.439124
vt 0.572508 0.439124
vt 0.492194 0.514646
vt 0.996661 0.052642
vt 0.996661 0.102357
vt 0.000645 0.102357
vt 0.000645 0.052642
vt 0.136908 0.515844
vt 0.136908 0.440322
vt 0.563448 0.440322
vt 0.643761 0.515844
vt 0.996661 0.052493
vt 0.996661 0.102208
vt 0.000645 0.102208
vt 0.000645 0.052493
vt 0.131511 0.532466
vt 1.005758 0.532466
vt 1.005758 0.767682
vt 0.131511 0.767682
vt 1.005758 0.532466
vt 0.131511 0.532466
vt 0.131511 0.724314
vt 1.005758 0.724314
vt 0.999047 0.439124
vt 0.999047 0.514646
vt 0.999047 0.440322
vt 0.999047 0.515844
vt 1.005758 0.998006
vt 0.131511 0.998006
vt 0.131511 0.998006
vt 1.005758 0.998006
vn -0.228225 -0.970478 -0.078015
vn -0.228225 -0.970478 -0.078015
vn -0.228225 -0.970478 -0.078015
vn -0.228225 -0.970478 -0.078015
vn 0.119549 -0.380929 0.916843
vn 0.119549 -0.380929 0.916843
vn 0.119549 -0.380929 0.916843
vn 0.119549 -0.380929 0.916843
vn 0.920398 0.232119 0.314624
vn 0.920398 0.232119 0.314624
vn 0.920398 0.232119 0.314624
vn 0.920398 0.232119 0.314624
vn 0.119549 -0.380928 -0.916843
vn 0.119549 -0.380928 -0.916843
vn 0.119549 -0.380928 -0.916843
vn 0.119549 -0.380928 -0.916843
vn 0.297648 -0.948421 0.109106
vn 0.297648 -0.948421 0.109106
vn 0.297648 -0.948421 0.109106
vn 0.297648 -0.948421 0.109106
vn -0.298068 0.949760 -0.095451
vn -0.298068 0.949760 -0.095451
vn -0.298068 0.949760 -0.095451
vn -0.298068 0.949760 -0.095451
vn 0.913754 0.261800 -0.310666
vn 0.913754 0.261800 -0.310666
vn 0.913754 0.261800 -0.310666
vn 0.913754 0.261800 -0.310666
vn 0.119973 -0.380394 -0.917010
vn 0.119973 -0.380394 -0.917010
vn 0.119973 -0.380394 -0.917010
vn 0.119973 -0.380394 -0.917010
vn -0.200529 -0.977346 0.067689
vn -0.200529 -0.977346 0.067689
vn -0.200529 -0.977346 0.067689
vn -0.200529 -0.977346 0.067689
vn 0.119124 -0.381462 0.916677
vn 0.119124 -0.381462 0.916677
vn 0.119124 -0.381462 0.916677
vn 0.119124 -0.381462 0.916677
vn 0.297711 -0.948398 -0.109129
vn 0.297711 -0.948398 -0.109129
vn 0.297711 -0.948398 -0.109129
vn 0.297711 -0.948398 -0.109129
vn -0.298124 0.949741 0.095469
vn -0.298124 0.949741 0.095469
vn -0.298124 0.949741 0.095469
vn -0.298124 0.949741 0.095469
vn 0.232313 0.166272 0.958324
vn 0.232313 0.166272 0.958324
vn 0.232313 0.166272 0.958324
vn 0.232313 0.166272 0.958324
vn -0.276417 0.954453 -0.112307
vn -0.276417 0.954453 -0.112307
vn -0.276417 0.954453 -0.112307
vn -0.276417 0.954453 -0.112307
vn 0.055419 0.038693 -0.997713
vn 0.055419 0.038693 -0.997713
vn 0.055419 0.038693 -0.997713
vn 0.055419 0.038693 -0.997713
vn 0.413586 -0.906868 0.080857
vn 0.413586 -0.906868 0.080857
vn 0.413586 -0.906868 0.080857
vn 0.413586 -0.906868 0.080857
vn 0.821640 0.543031 0.173278
vn 0.821640 0.543031 0.173278
vn 0.821640 0.543031 0.173278
vn 0.821640 0.543031 0.173278
vn -0.789629 -0.594470 -0.151955
vn -0.789629 -0.594470 -0.151955
vn -0.789629 -0.594470 -0.151955
vn -0.789629 -0.594470 -0.151955
vn 0.231942 0.167272 -0.958239
vn 0.231942 0.167272 -0.958239
vn 0.231942 0.167272 -0.958239
vn 0.231942 0.167272 -0.958239
vn 0.413536 -0.906796 -0.081909
vn 0.413536 -0.906796 -0.081909
vn 0.413536 -0.906796 -0.081909
vn 0.413536 -0.906796 -0.081909
vn 0.056592 0.038094 0.997670
vn 0.056592 0.038094 0.997670
vn 0.056592 0.038094 0.997670
vn 0.056592 0.038094 0.997670
vn -0.276317 0.954364 0.113310
vn -0.276317 0.954364 0.113310
vn -0.276317 0.954364 0.113310
vn -0.276317 0.954364 0.113310
vn 0.821531 0.543182 -0.173320
vn 0.821531 0.543182 -0.173320
vn 0.821531 0.543182 -0.173320
vn 0.821531 0.543182 -0.173320
vn -0.789531 -0.594617 0.151895
vn -0.789531 -0.594617 0.151895
vn -0.789531 -0.594617 0.151895
vn -0.789531 -0.594617 0.151895
vn 0.105578 0.540468 -0.834714
vn 0.105578 0.540468 -0.834714
vn 0.233754 0.433871 -0.870124
vn 0.233754 0.433871 -0.870124
vn 0.654508 -0.737228 -0.167673
vn 0.654508 -0.737228 -0.167673
vn 0.654508 -0.737228 -0.167673
vn 0.654508 -0.737228 -0.167673
vn 0.259785 0.412896 0.872943
vn 0.259785 0.412896 0.872943
vn 0.144331 0.469814 0.870887
vn 0.144331 0.469814 0.870887
vn -0.568608 0.820006 0.065382
vn -0.568608 0.820006 0.065382
vn -0.568608 0.820006 0.065382
vn -0.568608 0.820006 0.065382
vn 0.051697 0.991165 -0.122142
vn 0.051697 0.991165 -0.122142
vn 0.241835 0.959989 -0.141198
vn 0.241835 0.959989 -0.141198
vn -0.060146 -0.993201 0.099673
vn -0.060146 -0.993201 0.099673
vn -0.283243 -0.951339 0.121354
vn -0.283243 -0.951339 0.121354
vn 0.357516 0.312138 -0.880200
vn 0.357516 0.312138 -0.880200
vn 0.027442 0.518581 0.854588
vn 0.027442 0.518581 0.854588
vn 0.423557 0.892510 -0.155001
vn 0.423557 0.892510 -0.155001
vn -0.492328 -0.859597 0.136769
vn -0.492328 -0.859597 0.136769
vn 0.357656 0.311659 0.880313
vn 0.357656 0.311659 0.880313
vn 0.234155 0.433423 0.870239
vn 0.234155 0.433423 0.870239
vn -0.570562 0.818421 -0.068160
vn -0.570562 0.818421 -0.068160
vn -0.570562 0.818421 -0.068160
vn -0.570562 0.818421 -0.068160
vn 0.023086 0.445515 -0.894977
vn 0.023086 0.445515 -0.894977
vn 0.122713 0.401798 -0.907469
vn 0.122713 0.401798 -0.907469
vn 0.658364 -0.731512 0.177334
vn 0.658364 -0.731512 0.177334
vn 0.658364 -0.731512 0.177334
vn 0.658364 -0.731512 0.177334
vn 0.423881 0.891007 0.162576
vn 0.423881 0.891007 0.162576
vn 0.242109 0.958953 0.147624
vn 0.242109 0.958953 0.147624
vn -0.492824 -0.857975 -0.144925
vn -0.492824 -0.857975 -0.144925
vn -0.283633 -0.950332 -0.128149
vn -0.283633 -0.950332 -0.128149
vn 0.106234 0.540089 0.834876
vn 0.106234 0.540089 0.834876
vn 0.221478 0.352943 -0.909054
vn 0.221478 0.352943 -0.909054
vn 0.051974 0.990518 0.127176
vn 0.051974 0.990518 0.127176
vn -0.060470 -0.992659 -0.104744
vn -0.060470 -0.992659 -0.104744
s off
g polySurface33
usemtl iron
f 1/1/1 2/2/2 4/3/3 3/4/4
f 3/5/5 4/6/6 6/7/7 5/8/8
f 5/9/9 6/10/10 8/11/11 7/12/12
f 7/13/13 8/14/14 2/15/15 1/16/16
f 2/17/17 8/18/18 6/19/19 4/20/20
f 7/21/21 1/22/22 3/23/23 5/24/24
f 9/25/25 10/26/26 12/27/27 11/28/28
f 11/29/29 12/30/30 14/31/31 13/32/32
f 13/33/33 14/34/34 16/35/35 15/36/36
f 15/37/37 16/38/38 10/39/39 9/40/40
f 10/41/41 16/42/42 14/43/43 12/44/44
f 15/45/45 9/46/46 11/47/47 13/48/48
f 17/49/49 18/50/50 20/51/51 19/52/52
f 19/53/53 20/54/54 22/55/55 21/56/56
f 21/57/57 22/58/58 24/59/59 23/60/60
f 23/61/61 24/62/62 18/63/63 17/64/64
f 18/65/65 24/66/66 22/67/67 20/68/68
f 23/69/69 17/70/70 19/71/71 21/72/72
f 25/73/73 26/74/74 28/75/75 27/76/76
f 27/77/77 28/78/78 30/79/79 29/80/80
f 29/81/81 30/82/82 32/83/83 31/84/84
f 31/85/85 32/86/86 26/87/87 25/88/88
f 26/89/89 32/90/90 30/91/91 28/92/92
f 31/93/93 25/94/94 27/95/95 29/96/96
s 1
f 33/97/97 34/98/98 42/99/99 41/100/100
s off
f 35/101/101 36/102/102 38/103/103 37/104/104
s 2
f 37/105/105 38/106/106 44/107/107 43/108/108
s off
f 39/109/109 40/110/110 34/111/111 33/112/112
s 3
f 34/113/113 40/114/114 44/115/115 42/116/116
s 4
f 39/117/117 33/118/118 41/119/119 43/120/120
s 1
f 41/100/100 42/99/99 36/121/121 35/122/122
s 2
f 43/108/108 44/107/107 40/123/123 39/124/124
s 3
f 42/116/116 44/115/115 38/125/125 36/126/126
s 4
f 43/120/120 41/119/119 35/127/127 37/128/128
s 5
f 45/129/129 46/130/130 54/131/131 53/132/132
s off
f 47/133/133 48/134/134 50/135/135 49/136/136
s 6
f 49/137/137 50/138/138 56/139/139 55/140/140
s off
f 51/141/141 52/142/142 46/143/143 45/144/144
s 7
f 46/145/145 52/146/146 56/147/147 54/148/148
s 8
f 51/149/149 45/150/150 53/151/151 55/152/152
s 5
f 53/132/132 54/131/131 48/153/153 47/154/154
s 6
f 55/140/140 56/139/139 52/155/155 51/156/156
s 7
f 54/148/148 56/147/147 50/157/157 48/158/158
s 8
f 55/152/152 53/151/151 47/159/159 49/160/160
