# This file uses centimeters as units for non-parametric coordinates.

mtllib light_unit_shield.mtl
g default
v 18.175594 23.883768 -44.048794
v 18.894356 24.057570 -44.450009
v 18.581022 25.952678 -44.048794
v 19.207327 26.031374 -44.450009
v 16.724236 28.811640 -44.048794
v 17.720760 28.590307 -44.450009
v 16.724236 28.811640 -53.840466
v 17.720760 28.590307 -53.439250
v 18.581022 25.952678 -53.840466
v 19.207327 26.031374 -53.439250
v 18.175594 23.883768 -53.840466
v 18.894356 24.057570 -53.439250
v 17.478039 29.294694 -47.453664
v 18.474564 29.073362 -47.453664
v 18.929398 23.883768 -47.453664
v 19.648159 24.057570 -47.453664
v 19.961130 26.031374 -47.453664
v 19.334826 25.952678 -47.453664
v 18.929398 23.883768 -50.376194
v 19.648159 24.057570 -50.376194
v 19.961130 26.031374 -50.376194
v 19.334826 25.952678 -50.376194
v 17.478041 29.294694 -50.376194
v 18.474564 29.073362 -50.376195
v 14.666615 23.883767 -39.567121
v 15.475116 24.057570 -39.412457
v 14.977190 25.952678 -39.306517
v 15.714863 26.031374 -39.211285
v 14.646354 29.198062 -41.397036
v 15.435822 29.136787 -41.191421
v 17.283253 28.748883 -43.684383
v 17.590403 28.687608 -43.020804
v 18.507298 25.952678 -43.513535
v 18.729179 26.031374 -42.803606
v 18.196724 23.883767 -43.528578
v 18.489431 24.057570 -42.721063
v 15.238986 27.487738 -40.899758
v 15.890018 27.775623 -40.810305
v 17.876293 27.487738 -43.600686
v 18.044601 27.775623 -42.934573
v 15.569946 28.417125 -44.247830
v 15.914687 29.129405 -44.225500
v 13.817726 30.412405 -44.247830
v 14.415602 30.846616 -44.225500
v 12.607378 31.179087 -44.247830
v 13.306994 31.548852 -44.225500
v 12.607378 31.179087 -53.641430
v 13.306994 31.548852 -53.663760
v 13.817726 30.412405 -53.641430
v 14.415602 30.846616 -53.663760
v 15.569946 28.417125 -53.641430
v 15.914687 29.129405 -53.663760
v 13.092532 31.944992 -47.605558
v 13.759807 32.263698 -47.477922
v 15.421210 30.239967 -47.463548
v 15.716069 30.918114 -47.463548
v 14.868415 31.561462 -47.477922
v 14.295054 31.183270 -47.498369
v 15.421210 30.239967 -50.439500
v 15.716069 30.918114 -50.439500
v 14.868415 31.561462 -50.465978
v 14.295054 31.183270 -50.445531
v 13.092534 31.944995 -50.338343
v 13.759807 32.263698 -50.465978
v 13.318499 29.638158 -42.055989
v 13.912442 29.986249 -42.330856
v 13.318499 29.638158 -55.833270
v 13.912442 29.986249 -55.558403
v 15.575182 31.124010 -47.477922
v 15.030605 30.810804 -47.486607
v 15.030605 30.810804 -50.457294
v 15.575182 31.124010 -50.465978
v 13.092532 31.944992 -46.148939
v 13.759807 32.263698 -45.937206
v 16.318180 28.929116 -45.937206
v 16.613039 29.607263 -45.937206
v 14.868415 31.561462 -45.937206
v 14.295054 31.183270 -45.937206
v 15.575182 31.124010 -45.937206
v 15.030605 30.810804 -45.937206
v 16.318180 28.929116 -51.936661
v 16.613039 29.607263 -51.936661
v 14.868415 31.561462 -51.936662
v 14.295054 31.183270 -51.936662
v 13.092535 31.944994 -51.724928
v 13.759807 32.263698 -51.936662
v 15.030605 30.810804 -51.936661
v 15.575182 31.124010 -51.936662
v 18.218206 23.883767 -54.391334
v 18.510916 24.057570 -55.198849
v 18.528784 25.952678 -54.406376
v 18.750664 26.031374 -55.116306
v 17.305782 28.748883 -54.235529
v 17.611889 28.687608 -54.899109
v 14.667838 29.198062 -56.522876
v 15.457306 29.136787 -56.728491
v 14.998676 25.952678 -58.613396
v 15.736348 26.031374 -58.708627
v 14.688100 23.883767 -58.352792
v 15.496600 24.057570 -58.507454
v 17.898008 27.487738 -54.319226
v 18.066086 27.775623 -54.985339
v 15.260471 27.487738 -57.020154
v 15.911503 27.775623 -57.109608
vt 0.046811 0.047269
vt 0.047258 0.045850
vt 0.047258 0.232298
vt 0.046811 0.232582
vt 0.047258 0.512068
vt 0.046811 0.510649
vt 0.952742 0.512068
vt 0.953189 0.510649
vt 0.952742 0.232298
vt 0.953189 0.232582
vt 0.952742 0.045850
vt 0.953189 0.047269
vt 0.051724 0.581360
vt 0.051961 0.520959
vt 0.219488 0.520959
vt 0.219460 0.581360
vt 0.535002 0.520959
vt 0.534968 0.581360
vt 0.051724 0.581381
vt 0.051966 0.520964
vt 0.949797 0.520964
vt 0.949859 0.581380
vt 0.051724 0.581326
vt 0.051961 0.520952
vt 0.349019 0.520953
vt 0.349085 0.581326
vt 0.535002 0.520953
vt 0.534968 0.581326
vt 0.051724 0.581365
vt 0.051966 0.520961
vt 0.949797 0.520961
vt 0.949859 0.581365
vt 0.361987 0.510649
vt 0.364033 0.581381
vt 0.351966 0.520964
vt 0.349815 0.512068
vt 0.361987 0.047269
vt 0.637549 0.581365
vt 0.649797 0.520961
vt 0.349816 0.045850
vt 0.349816 0.232298
vt 0.361987 0.232582
vt 0.632515 0.047269
vt 0.369482 0.581365
vt 0.357899 0.520961
vt 0.644201 0.045850
vt 0.644201 0.232298
vt 0.632515 0.232582
vt 0.632515 0.510649
vt 0.632101 0.581381
vt 0.643864 0.520964
vt 0.644201 0.512068
vt 0.051301 0.580873
vt 0.051701 0.520254
vt 0.414671 0.520255
vt 0.400775 0.580873
vt 0.644498 0.520255
vt 0.615733 0.580872
vt 0.051301 0.580897
vt 0.051709 0.520283
vt 0.947190 0.520283
vt 0.947238 0.580896
vt 0.051301 0.580865
vt 0.051701 0.520246
vt 0.351665 0.520246
vt 0.380108 0.580865
vt 0.593320 0.580865
vt 0.579424 0.520246
vt 0.947186 0.520246
vt 0.947233 0.580865
vt 0.051301 0.580932
vt 0.051709 0.520324
vt 0.947190 0.520324
vt 0.947238 0.580932
vt 0.045056 0.078779
vt 0.505647 0.078779
vt 0.505647 0.251800
vt 0.045056 0.251800
vt 0.505647 0.363849
vt 0.045056 0.363849
vt 0.506155 0.078751
vt 0.044549 0.078751
vt 0.044549 0.251794
vt 0.506155 0.251794
vt 0.044549 0.353933
vt 0.506155 0.353933
vt 0.947186 0.520254
vt 0.947232 0.580872
vt 0.505647 0.511421
vt 0.045056 0.511421
vt 0.044549 0.511448
vt 0.506155 0.511448
vt 0.051724 0.581350
vt 0.051961 0.520957
vt 0.219478 0.520957
vt 0.219495 0.581350
vt 0.305714 0.581350
vt 0.305144 0.520957
vt 0.431974 0.520957
vt 0.431384 0.581350
vt 0.051724 0.581362
vt 0.051966 0.520960
vt 0.219314 0.520960
vt 0.219314 0.581362
vt 0.051724 0.581349
vt 0.051961 0.520957
vt 0.219294 0.520957
vt 0.219199 0.581349
vt 0.219430 0.520957
vt 0.219413 0.581349
vt 0.051724 0.581188
vt 0.051966 0.520925
vt 0.219319 0.520925
vt 0.219319 0.581188
vt 0.136691 0.590127
vt 0.238545 0.590127
vt 0.244270 0.798544
vt -0.006075 0.798543
vt 0.136691 0.842550
vt 0.244270 0.842550
vt 0.244270 0.991369
vt 0.136691 0.991369
vt 0.848855 0.589618
vt 0.743662 0.589618
vt 0.739040 0.798544
vt 0.991159 0.798728
vt 0.848900 0.842703
vt 0.739040 0.842547
vt 0.719435 0.991878
vt 0.848855 0.991878
vt 0.361683 0.581362
vt 0.361683 0.520960
vt 0.648185 0.520960
vt 0.648185 0.581362
vt 0.051961 0.581317
vt 0.051724 0.520951
vt 0.219253 0.520951
vt 0.219391 0.581317
vt 0.371332 0.842550
vt 0.371332 0.798544
vt 0.620617 0.798544
vt 0.617754 0.842550
vt 0.371332 0.991369
vt 0.617754 0.991369
vt 0.371332 0.842547
vt 0.371332 0.798544
vt 0.244270 0.798544
vt 0.244270 0.842547
vt 0.380942 0.991878
vt 0.263976 0.991878
vt 0.051724 0.581318
vt 0.051724 0.520951
vt 0.337316 0.520951
vt 0.337316 0.581318
vt 0.617754 0.842547
vt 0.620617 0.798544
vt 0.607786 0.991878
vt 0.789198 0.520960
vt 0.789198 0.581362
vt 0.739040 0.798544
vt 0.739040 0.842550
vt 0.739040 0.991369
vt 0.431974 0.520957
vt 0.431384 0.581349
vt 0.370146 0.770251
vt 0.618433 0.770251
vt -0.006579 0.798728
vt 0.236776 0.589618
vt 0.135725 0.589618
vt 0.619312 0.770619
vt 0.369275 0.770619
vt 0.990654 0.798543
vt 0.741903 0.590127
vt 0.847888 0.590127
vt 0.051724 0.581256
vt 0.051724 0.520939
vt 0.219173 0.520939
vt 0.219314 0.581255
vt 0.135680 0.842703
vt 0.135725 0.991878
vt 0.051724 0.581230
vt 0.051961 0.520933
vt 0.219391 0.520933
vt 0.219253 0.581230
vt 0.949797 0.520960
vt 0.949859 0.581362
vt 0.847888 0.842550
vt 0.847888 0.991369
vt 0.051301 0.580873
vt 0.051701 0.520254
vt 0.414671 0.520255
vt 0.400775 0.580873
vt 0.644498 0.520255
vt 0.615733 0.580872
vt 0.051301 0.580897
vt 0.051709 0.520283
vt 0.947190 0.520283
vt 0.947238 0.580896
vt 0.051301 0.580865
vt 0.051701 0.520246
vt 0.351665 0.520246
vt 0.380108 0.580865
vt 0.593320 0.580865
vt 0.579424 0.520246
vt 0.947186 0.520246
vt 0.947233 0.580865
vt 0.051301 0.580932
vt 0.051709 0.520324
vt 0.947190 0.520324
vt 0.947238 0.580932
vt 0.045056 0.078779
vt 0.505647 0.078779
vt 0.505647 0.251800
vt 0.045056 0.251800
vt 0.505647 0.363849
vt 0.045056 0.363849
vt 0.506155 0.078751
vt 0.044549 0.078751
vt 0.044549 0.251794
vt 0.506155 0.251794
vt 0.044549 0.353933
vt 0.506155 0.353933
vt 0.947186 0.520254
vt 0.947232 0.580872
vt 0.505647 0.511421
vt 0.045056 0.511421
vt 0.044549 0.511448
vt 0.506155 0.511448
vn 0.522922 -0.092924 0.847300
vn 0.522922 -0.092924 0.847300
vn 0.522922 -0.092924 0.847300
vn 0.522922 -0.092924 0.847300
vn 0.445470 0.274897 0.852049
vn 0.445470 0.274897 0.852049
vn 0.445470 0.274897 0.852049
vn 0.445470 0.274897 0.852049
vn 0.250893 0.946757 0.201750
vn 0.250893 0.946757 0.201750
vn 0.235116 0.966662 0.101418
vn 0.235116 0.966662 0.101418
vn 0.445470 0.274897 -0.852049
vn 0.445470 0.274897 -0.852049
vn 0.445470 0.274897 -0.852049
vn 0.445470 0.274897 -0.852049
vn 0.522922 -0.092924 -0.847300
vn 0.522922 -0.092924 -0.847300
vn 0.522922 -0.092924 -0.847300
vn 0.522922 -0.092924 -0.847300
vn 0.249830 -0.966569 -0.057703
vn 0.249830 -0.966569 -0.057703
vn 0.242541 -0.969712 -0.028864
vn 0.242541 -0.969712 -0.028864
vn 0.958652 -0.152006 0.240585
vn 0.980382 -0.155452 0.121186
vn 0.980382 -0.155452 0.121186
vn 0.958652 -0.152006 0.240585
vn 0.854979 0.453848 0.251062
vn 0.883946 0.450134 0.126566
vn 0.883946 0.450134 0.126566
vn 0.854979 0.453848 0.251062
vn -0.959700 0.188065 0.208825
vn -0.975912 0.191242 0.104993
vn -0.975912 0.191242 0.104993
vn -0.959700 0.188065 0.208825
vn -0.837442 -0.501518 0.217188
vn -0.861059 -0.496628 0.109262
vn -0.861059 -0.496628 0.109262
vn -0.837442 -0.501518 0.217188
vn 0.234801 0.966931 -0.099559
vn 0.234801 0.966931 -0.099559
vn 0.242686 -0.969658 0.029433
vn 0.242686 -0.969658 0.029433
vn 0.250112 -0.966427 0.058839
vn 0.250112 -0.966427 0.058839
vn 0.980651 -0.155495 -0.118935
vn 0.980651 -0.155495 -0.118935
vn 0.884205 0.450278 -0.124225
vn 0.884205 0.450278 -0.124225
vn -0.975727 0.191205 -0.106763
vn -0.975727 0.191205 -0.106763
vn -0.958964 0.187920 -0.212305
vn -0.958964 0.187920 -0.212305
vn -0.860886 -0.496521 -0.111099
vn -0.860886 -0.496521 -0.111099
vn -0.836748 -0.501102 -0.220793
vn -0.836748 -0.501102 -0.220793
vn 0.250359 0.947671 -0.198090
vn 0.250359 0.947671 -0.198090
vn 0.959719 -0.152175 -0.236182
vn 0.959719 -0.152175 -0.236182
vn 0.856016 0.454399 -0.246492
vn 0.856016 0.454399 -0.246492
vn -0.144055 -0.092923 0.985197
vn -0.144055 -0.092923 0.985197
vn -0.144055 -0.092923 0.985197
vn -0.144055 -0.092923 0.985197
vn -0.271341 0.689684 0.671349
vn -0.271341 0.689684 0.671349
vn -0.271341 0.689684 0.671349
vn -0.271341 0.689684 0.671349
vn 0.146348 0.988195 -0.045311
vn 0.146348 0.988195 -0.045311
vn 0.146348 0.988195 -0.045311
vn 0.146348 0.988195 -0.045311
vn 0.848506 0.380108 -0.368179
vn 0.848506 0.380108 -0.368179
vn 0.848506 0.380108 -0.368179
vn 0.848506 0.380108 -0.368179
vn 0.945085 -0.133631 -0.298258
vn 0.945085 -0.133631 -0.298258
vn 0.945085 -0.133631 -0.298258
vn 0.945085 -0.133631 -0.298258
vn 0.171896 -0.972886 0.154739
vn 0.171896 -0.972886 0.154739
vn 0.171896 -0.972886 0.154739
vn 0.171896 -0.972886 0.154739
vn 0.748483 -0.110564 0.653872
vn 0.748483 -0.110564 0.653872
vn 0.748483 -0.110564 0.653872
vn 0.748483 -0.110564 0.653872
vn 0.678702 0.403440 0.613677
vn 0.678702 0.403440 0.613677
vn 0.678702 0.403440 0.613677
vn 0.678702 0.403440 0.613677
vn -0.747395 0.155229 -0.645992
vn -0.747395 0.155229 -0.645992
vn -0.747395 0.155229 -0.645992
vn -0.747395 0.155229 -0.645992
vn -0.679176 -0.413565 -0.606369
vn -0.679176 -0.413565 -0.606369
vn -0.679176 -0.413565 -0.606369
vn -0.679176 -0.413565 -0.606369
vn -0.226253 0.195771 0.954192
vn -0.226253 0.195771 0.954192
vn -0.226253 0.195771 0.954192
vn -0.226253 0.195771 0.954192
vn 0.881033 0.330968 -0.337996
vn 0.881033 0.330968 -0.337996
vn 0.881033 0.330968 -0.337996
vn 0.881033 0.330968 -0.337996
vn 0.643725 0.392328 0.657036
vn 0.643725 0.392328 0.657036
vn 0.643725 0.392328 0.657036
vn 0.643725 0.392328 0.657036
vn -0.650698 -0.387337 -0.653118
vn -0.650698 -0.387337 -0.653118
vn -0.650698 -0.387337 -0.653118
vn -0.650698 -0.387337 -0.653118
vn 0.568692 -0.323299 0.756351
vn 0.568692 -0.323299 0.756351
vn 0.568692 -0.323299 0.756351
vn 0.568692 -0.323299 0.756351
vn -0.017391 -0.027454 0.999472
vn -0.017391 -0.027454 0.999472
vn -0.017391 -0.027454 0.999472
vn -0.017391 -0.027454 0.999472
vn -0.468852 0.853336 0.228024
vn -0.468852 0.853336 0.228024
vn -0.468852 0.853336 0.228024
vn -0.468852 0.853336 0.228024
vn -0.017391 -0.027454 -0.999472
vn -0.017391 -0.027454 -0.999472
vn -0.017391 -0.027454 -0.999472
vn -0.017391 -0.027454 -0.999472
vn -0.504739 0.837082 -0.211028
vn -0.504739 0.837082 -0.211028
vn -0.504739 0.837082 -0.211028
vn -0.504739 0.837082 -0.211028
vn 0.877554 -0.407729 -0.252302
vn 0.877554 -0.407729 -0.252302
vn 0.877554 -0.407729 -0.252302
vn 0.877554 -0.407729 -0.252302
vn 0.706139 0.526501 0.473460
vn 0.706139 0.526501 0.473460
vn 0.706139 0.526501 0.473460
vn 0.706139 0.526501 0.473460
vn 0.479700 0.757295 0.443162
vn 0.479700 0.757295 0.443162
vn 0.479700 0.757295 0.443162
vn 0.479700 0.757295 0.443162
vn -0.728303 -0.498764 0.469904
vn -0.728303 -0.498764 0.469904
vn -0.728303 -0.498764 0.469904
vn -0.728303 -0.498764 0.469904
vn -0.450173 -0.772682 0.447556
vn -0.450173 -0.772682 0.447556
vn -0.450173 -0.772682 0.447556
vn -0.450173 -0.772682 0.447556
vn -0.430987 0.902358 0.000000
vn -0.430987 0.902358 0.000000
vn -0.430987 0.902358 0.000000
vn -0.430987 0.902358 0.000000
vn 0.687985 -0.299137 -0.661206
vn 0.687985 -0.299137 -0.661206
vn 0.687985 -0.299137 -0.661206
vn 0.687985 -0.299137 -0.661206
vn 0.526293 0.850303 0.000000
vn 0.526293 0.850303 0.000000
vn 0.526293 0.850303 0.000000
vn 0.526293 0.850303 0.000000
vn 0.535116 0.844779 0.000000
vn 0.535116 0.844779 0.000000
vn 0.535116 0.844779 0.000000
vn 0.535116 0.844779 0.000000
vn -0.451758 -0.892141 0.000000
vn -0.451758 -0.892141 0.000000
vn -0.451758 -0.892141 0.000000
vn -0.451758 -0.892141 0.000000
vn -0.535115 -0.844779 0.000000
vn -0.535115 -0.844779 0.000000
vn -0.535115 -0.844779 0.000000
vn -0.535115 -0.844779 0.000000
vn 0.917064 -0.398741 0.000000
vn 0.917064 -0.398741 0.000000
vn 0.917064 -0.398741 0.000000
vn 0.917064 -0.398741 0.000000
vn -0.451759 -0.892140 0.000000
vn -0.451759 -0.892140 0.000000
vn -0.451759 -0.892140 0.000000
vn -0.451759 -0.892140 0.000000
vn -0.535116 -0.844779 -0.000001
vn -0.535116 -0.844779 -0.000001
vn -0.535116 -0.844779 -0.000001
vn -0.535116 -0.844779 -0.000001
vn -0.430986 0.902359 0.000000
vn -0.430986 0.902359 0.000000
vn -0.430986 0.902359 0.000000
vn -0.430986 0.902359 0.000000
vn 0.526293 0.850303 0.000000
vn 0.526293 0.850303 0.000000
vn 0.526293 0.850303 0.000000
vn 0.526293 0.850303 0.000000
vn 0.535116 0.844779 0.000000
vn 0.535116 0.844779 0.000000
vn 0.535116 0.844779 0.000000
vn 0.535116 0.844779 0.000000
vn -0.504739 0.837082 0.211028
vn -0.504739 0.837082 0.211028
vn -0.504739 0.837082 0.211028
vn -0.504739 0.837082 0.211028
vn 0.568692 -0.323299 -0.756351
vn 0.568692 -0.323299 -0.756351
vn 0.568692 -0.323299 -0.756351
vn 0.568692 -0.323299 -0.756351
vn 0.493832 0.741223 0.454662
vn 0.493832 0.741223 0.454662
vn 0.493832 0.741223 0.454662
vn 0.493832 0.741223 0.454662
vn -0.302961 -0.857448 0.415929
vn -0.302961 -0.857448 0.415929
vn -0.302961 -0.857448 0.415929
vn -0.302961 -0.857448 0.415929
vn 0.825289 0.564711 0.000000
vn 0.825289 0.564711 0.000000
vn 0.825289 0.564711 0.000000
vn 0.825289 0.564711 0.000000
vn -0.728117 -0.497126 -0.471923
vn -0.728117 -0.497126 -0.471923
vn -0.728117 -0.497126 -0.471923
vn -0.728117 -0.497126 -0.471923
vn -0.825285 -0.564716 0.000000
vn -0.825285 -0.564716 0.000000
vn -0.825285 -0.564716 0.000000
vn -0.825285 -0.564716 0.000000
vn 0.706219 0.528313 -0.471317
vn 0.706219 0.528313 -0.471317
vn 0.706219 0.528313 -0.471317
vn 0.706219 0.528313 -0.471317
vn -0.430988 0.902358 0.000000
vn -0.430988 0.902358 0.000000
vn -0.430988 0.902358 0.000000
vn -0.430988 0.902358 0.000000
vn 0.825286 0.564715 0.000000
vn 0.825286 0.564715 0.000000
vn 0.825286 0.564715 0.000000
vn 0.825286 0.564715 0.000000
vn 0.535116 0.844779 0.000000
vn 0.535116 0.844779 0.000000
vn 0.535116 0.844779 0.000000
vn 0.535116 0.844779 0.000000
vn 0.877036 -0.407523 0.254425
vn 0.877036 -0.407523 0.254425
vn 0.877036 -0.407523 0.254425
vn 0.877036 -0.407523 0.254425
vn -0.298724 -0.858456 -0.416913
vn -0.298724 -0.858456 -0.416913
vn -0.298724 -0.858456 -0.416913
vn -0.298724 -0.858456 -0.416913
vn -0.449154 -0.771498 -0.450612
vn -0.449154 -0.771498 -0.450612
vn -0.449154 -0.771498 -0.450612
vn -0.449154 -0.771498 -0.450612
vn 0.526293 0.850303 0.000000
vn 0.526293 0.850303 0.000000
vn 0.526293 0.850303 0.000000
vn 0.526293 0.850303 0.000000
vn -0.825286 -0.564716 -0.000001
vn -0.825286 -0.564716 -0.000001
vn -0.825286 -0.564716 -0.000001
vn -0.825286 -0.564716 -0.000001
vn 0.682141 -0.296596 0.668367
vn 0.682141 -0.296596 0.668367
vn 0.682141 -0.296596 0.668367
vn 0.682141 -0.296596 0.668367
vn -0.825286 -0.564715 0.000000
vn -0.825286 -0.564715 0.000000
vn -0.825286 -0.564715 0.000000
vn -0.825286 -0.564715 0.000000
vn -0.535117 -0.844778 0.000001
vn -0.535117 -0.844778 0.000001
vn -0.535117 -0.844778 0.000001
vn -0.535117 -0.844778 0.000001
vn -0.468802 0.853821 -0.226308
vn -0.468802 0.853821 -0.226308
vn -0.468802 0.853821 -0.226308
vn -0.468802 0.853821 -0.226308
vn 0.497877 0.739502 -0.453050
vn 0.497877 0.739502 -0.453050
vn 0.497877 0.739502 -0.453050
vn 0.497877 0.739502 -0.453050
vn 0.480538 0.758618 -0.439980
vn 0.480538 0.758618 -0.439980
vn 0.480538 0.758618 -0.439980
vn 0.480538 0.758618 -0.439980
vn -0.451759 -0.892140 0.000000
vn -0.451759 -0.892140 0.000000
vn -0.451759 -0.892140 0.000000
vn -0.451759 -0.892140 0.000000
vn 0.825286 0.564715 -0.000000
vn 0.825286 0.564715 -0.000000
vn 0.825286 0.564715 -0.000000
vn 0.825286 0.564715 -0.000000
vn 0.945085 -0.133632 0.298257
vn 0.945085 -0.133632 0.298257
vn 0.945085 -0.133632 0.298257
vn 0.945085 -0.133632 0.298257
vn 0.881096 0.330941 0.337858
vn 0.881096 0.330941 0.337858
vn 0.881096 0.330941 0.337858
vn 0.881096 0.330941 0.337858
vn 0.146404 0.988191 0.045208
vn 0.146404 0.988191 0.045208
vn 0.146404 0.988191 0.045208
vn 0.146404 0.988191 0.045208
vn -0.226252 0.195771 -0.954193
vn -0.226252 0.195771 -0.954193
vn -0.226252 0.195771 -0.954193
vn -0.226252 0.195771 -0.954193
vn -0.144053 -0.092924 -0.985197
vn -0.144053 -0.092924 -0.985197
vn -0.144053 -0.092924 -0.985197
vn -0.144053 -0.092924 -0.985197
vn 0.171896 -0.972886 -0.154739
vn 0.171896 -0.972886 -0.154739
vn 0.171896 -0.972886 -0.154739
vn 0.171896 -0.972886 -0.154739
vn 0.748483 -0.110564 -0.653873
vn 0.748483 -0.110564 -0.653873
vn 0.748483 -0.110564 -0.653873
vn 0.748483 -0.110564 -0.653873
vn 0.678702 0.403440 -0.613677
vn 0.678702 0.403440 -0.613677
vn 0.678702 0.403440 -0.613677
vn 0.678702 0.403440 -0.613677
vn -0.747395 0.155229 0.645992
vn -0.747395 0.155229 0.645992
vn -0.747395 0.155229 0.645992
vn -0.747395 0.155229 0.645992
vn -0.679178 -0.413528 0.606393
vn -0.679178 -0.413528 0.606393
vn -0.679178 -0.413528 0.606393
vn -0.679178 -0.413528 0.606393
vn 0.848854 0.380013 0.367474
vn 0.848854 0.380013 0.367474
vn 0.848854 0.380013 0.367474
vn 0.848854 0.380013 0.367474
vn -0.271341 0.689683 -0.671350
vn -0.271341 0.689683 -0.671350
vn -0.271341 0.689683 -0.671350
vn -0.271341 0.689683 -0.671350
vn 0.643725 0.392328 -0.657037
vn 0.643725 0.392328 -0.657037
vn 0.643725 0.392328 -0.657037
vn 0.643725 0.392328 -0.657037
vn -0.650658 -0.387170 0.653256
vn -0.650658 -0.387170 0.653256
vn -0.650658 -0.387170 0.653256
vn -0.650658 -0.387170 0.653256
s off
g polySurface4
usemtl hardened
f 1/13/1 2/14/2 4/15/3 3/16/4
f 3/16/5 4/15/6 6/17/7 5/18/8
s 1
f 5/19/9 6/20/10 14/35/11 13/34/12
s off
f 7/23/13 8/24/14 10/25/15 9/26/16
f 9/26/17 10/25/18 12/27/19 11/28/20
s 2
f 11/29/21 12/30/22 20/45/23 19/44/24
s 3
f 2/2/25 16/40/26 17/41/27 4/3/28
s 4
f 4/3/29 17/41/30 14/36/31 6/5/32
s 5
f 11/12/33 19/43/34 22/48/35 9/10/36
s 6
f 9/10/37 22/48/38 23/49/39 7/8/40
s 1
f 13/34/12 14/35/11 24/51/41 23/50/42
s 2
f 15/38/43 16/39/44 2/31/45 1/32/46
s 3
f 17/41/27 16/40/26 20/46/47 21/47/48
s 4
f 14/36/31 17/41/30 21/47/49 24/52/50
s 5
f 18/42/51 15/37/52 1/1/53 3/4/54
s 6
f 13/33/55 18/42/56 3/4/57 5/6/58
s 2
f 19/44/24 20/45/23 16/39/44 15/38/43
s 5
f 22/48/35 19/43/34 15/37/52 18/42/51
s 6
f 23/49/39 22/48/38 18/42/56 13/33/55
s 1
f 23/50/42 24/51/41 8/21/59 7/22/60
s 3
f 21/47/48 20/46/47 12/11/61 10/9/62
s 4
f 24/52/50 21/47/49 10/9/63 8/7/64
s off
f 25/53/65 26/54/66 28/55/67 27/56/68
f 27/56/69 28/55/70 38/57/71 37/58/72
f 29/59/73 30/60/74 32/61/75 31/62/76
f 31/63/77 32/64/78 40/65/79 39/66/80
f 33/67/81 34/68/82 36/69/83 35/70/84
f 35/71/85 36/72/86 26/73/87 25/74/88
f 26/75/89 36/76/90 34/77/91 28/78/92
f 28/78/93 34/77/94 40/79/95 38/80/96
f 35/81/97 25/82/98 27/83/99 33/84/100
f 33/84/101 27/83/102 37/85/103 39/86/104
f 37/58/105 38/57/106 30/87/107 29/88/108
f 39/66/109 40/65/110 34/68/111 33/67/112
f 38/80/113 40/79/114 32/89/115 30/90/116
f 39/86/117 37/85/118 29/91/119 31/92/120
f 41/93/121 42/94/122 66/95/123 65/96/124
f 43/97/125 44/98/126 46/99/127 45/100/128
f 45/101/129 46/102/130 74/103/131 73/104/132
f 47/105/133 48/106/134 50/107/135 49/108/136
f 49/108/137 50/107/138 68/109/139 67/110/140
f 51/111/141 52/112/142 82/113/143 81/114/144
f 42/115/145 76/116/146 79/117/147 66/118/148
f 44/119/149 77/120/150 74/121/151 46/122/152
f 51/123/153 81/124/154 87/125/155 67/126/156
f 49/127/157 84/128/158 85/129/159 47/130/160
f 53/131/161 54/132/162 64/133/163 63/134/164
f 55/135/165 56/136/166 76/137/167 75/138/168
f 57/139/169 69/140/170 72/141/171 61/142/172
f 54/143/173 57/139/174 61/142/175 64/144/176
f 58/145/177 70/146/178 80/147/179 78/148/180
f 53/149/181 58/145/182 78/148/183 73/150/184
f 59/151/185 60/152/186 56/153/187 55/154/188
f 62/155/189 71/156/190 70/146/191 58/145/192
f 63/157/193 62/155/194 58/145/195 53/149/196
f 63/134/197 64/133/198 86/158/199 85/159/200
f 61/142/201 72/141/202 88/160/203 83/161/204
f 64/144/205 61/142/206 83/161/207 86/162/208
f 65/96/209 66/95/210 44/98/211 43/97/212
f 67/110/213 68/109/214 52/163/215 51/164/216
f 66/118/217 79/117/218 77/120/219 44/119/220
f 67/126/221 87/125/222 84/128/223 49/127/224
f 72/141/225 69/140/226 56/165/227 60/166/228
f 65/167/229 80/147/230 75/168/231 41/169/232
f 70/146/233 71/156/234 59/170/235 55/171/236
f 68/172/237 88/160/238 82/173/239 52/174/240
f 73/104/241 74/103/242 54/132/243 53/131/244
f 79/117/245 76/116/246 56/165/247 69/140/248
f 74/121/249 77/120/250 57/139/251 54/143/252
f 75/175/253 76/176/254 42/177/255 41/178/256
f 78/148/257 80/147/258 65/167/259 43/179/260
f 73/150/261 78/148/262 43/179/263 45/180/264
f 77/120/265 79/117/266 69/140/267 57/139/268
f 75/168/269 80/147/270 70/146/271 55/171/272
f 81/181/273 82/182/274 60/183/275 59/184/276
f 87/125/277 81/124/278 59/170/279 71/156/280
f 85/129/281 84/128/282 62/155/283 63/157/284
f 85/159/285 86/158/286 48/185/287 47/186/288
f 83/161/289 88/160/290 68/172/291 50/187/292
f 86/162/293 83/161/294 50/187/295 48/188/296
f 84/128/297 87/125/298 71/156/299 62/155/300
f 82/173/301 88/160/302 72/141/303 60/166/304
f 89/189/305 90/190/306 92/191/307 91/192/308
f 91/192/309 92/191/310 102/193/311 101/194/312
f 93/195/313 94/196/314 96/197/315 95/198/316
f 95/199/317 96/200/318 104/201/319 103/202/320
f 97/203/321 98/204/322 100/205/323 99/206/324
f 99/207/325 100/208/326 90/209/327 89/210/328
f 90/211/329 100/212/330 98/213/331 92/214/332
f 92/214/333 98/213/334 104/215/335 102/216/336
f 99/217/337 89/218/338 91/219/339 97/220/340
f 97/220/341 91/219/342 101/221/343 103/222/344
f 101/194/345 102/193/346 94/223/347 93/224/348
f 103/202/349 104/201/350 98/204/351 97/203/352
f 102/216/353 104/215/354 96/225/355 94/226/356
f 103/222/357 101/221/358 93/227/359 95/228/360
