# This file uses centimeters as units for non-parametric coordinates.

mtllib medium_unit_regenerating.mtl
g default
v 19.731777 24.298126 31.791634
v 13.108054 24.298126 29.722497
v -10.800321 24.298126 30.038970
v -15.871521 24.298126 32.041513
v -15.871521 24.298126 47.070290
v -10.800323 24.298126 49.072834
v 13.108051 24.298126 49.389307
v 19.731777 24.298126 47.320172
v 22.649315 25.864411 29.411398
v 16.419025 25.864411 26.707942
v -14.111295 25.864411 27.121434
v -19.420591 25.864411 29.737883
v -19.420591 25.864411 49.373921
v -14.111295 25.864411 51.990370
v 16.419025 25.864411 52.403862
v 22.649315 25.864411 49.700406
v 23.673813 28.378350 28.575572
v 17.581684 28.378350 25.649368
v -15.273953 28.378350 26.096929
v -20.666853 28.378350 28.928953
v -20.666853 28.378350 50.182848
v -15.273956 28.378350 53.014875
v 17.581684 28.378350 53.462437
v 23.673813 28.378350 50.536237
v 22.649315 32.501735 29.411398
v 16.419025 32.501735 26.707942
v -14.111295 32.501735 27.121434
v -19.420591 32.501735 29.737883
v -19.420591 32.501735 49.373921
v -14.111295 32.501735 51.990370
v 16.419025 32.501735 52.403862
v 22.649315 32.501735 49.700406
v 19.731777 35.679962 31.791634
v 13.108054 35.679962 29.722497
v -10.800321 35.679962 30.038970
v -15.871521 35.679962 32.041513
v -15.871521 35.679962 47.070290
v -10.800323 35.679962 49.072834
v 13.108051 35.679962 49.389307
v 19.731777 35.679962 47.320172
v 0.025284 24.298126 29.635224
v 0.025284 24.298126 49.476580
v 0.025285 25.864411 26.593914
v 0.025285 25.864411 52.517890
v 0.025284 28.378350 25.525944
v 0.025286 28.378350 53.585860
v 0.025285 32.501735 26.593914
v 0.025285 32.501735 52.517890
v 0.025284 35.679962 29.635224
v 0.025284 35.679962 49.476580
v -16.754887 24.298126 39.565966
v 20.457954 24.298126 39.566301
v -20.449667 25.864411 39.565966
v 23.495274 25.864411 39.566301
v -21.747093 28.378350 39.565967
v 24.561832 28.378350 39.566301
v -20.449667 32.501735 39.565966
v 23.495274 32.501735 39.566301
v -16.754887 35.679962 39.565966
v 20.457954 35.679962 39.566301
v 21.465260 34.106871 30.478236
v 14.939013 34.106871 28.059083
v -12.623308 34.106871 28.429091
v -17.980234 34.106871 30.770386
v -17.980234 34.106871 48.341418
v -12.623308 34.106871 50.682713
v 14.939013 34.106871 51.052721
v 21.465260 34.106871 48.633568
v 0.029654 34.106871 27.957046
v 0.029654 34.106871 51.154758
v -18.950174 34.106871 39.566119
v 22.262608 34.106871 39.566458
v 23.569721 30.620260 28.788720
v 17.290260 30.620260 25.919321
v -14.972389 30.620260 26.358194
v -20.540230 30.620260 29.135242
v -20.540230 30.620260 49.976559
v -14.972391 30.620260 52.753610
v 17.290260 30.620260 53.192483
v 23.569721 30.620260 50.323087
v 0.030841 30.620260 25.798293
v 0.030842 30.620260 53.313511
v -21.615273 30.620260 39.566160
v 24.453468 30.620260 39.566501
vt 1.226151 0.086430
vt 1.127908 0.086430
vt -0.233795 0.086430
vt -0.127844 0.086430
vt 0.127908 0.086430
vt 0.233858 0.086430
vt 0.773913 0.086430
vt 0.872156 0.086430
vt 1.227033 0.380403
vt 1.141571 0.380403
vt -0.232868 0.380403
vt -0.141507 0.380403
vt 0.141571 0.380403
vt 0.232932 0.380403
vt 0.773030 0.380403
vt 0.858493 0.380403
vt 1.227253 0.560274
vt 1.145396 0.560274
vt -0.232639 0.560274
vt -0.145332 0.560274
vt 0.145396 0.560274
vt 0.232703 0.560274
vt 0.772810 0.560274
vt 0.854668 0.560274
vt 1.227033 0.735625
vt 1.141571 0.735625
vt -0.232868 0.735625
vt -0.141507 0.735625
vt 0.141571 0.735625
vt 0.232932 0.735625
vt 0.773030 0.735625
vt 0.858493 0.735625
vt 1.226151 0.953524
vt 1.127908 0.953524
vt -0.233795 0.953524
vt -0.127844 0.953524
vt 0.127908 0.953524
vt 0.233858 0.953524
vt 0.773913 0.953524
vt 0.872156 0.953524
vt 1.766205 0.086430
vt 1.767132 0.380403
vt 1.767361 0.560274
vt 1.767132 0.735625
vt 1.766205 0.953524
vt 1.495546 0.086430
vt 0.504518 0.086430
vt 1.496599 0.380403
vt 0.503465 0.380403
vt 1.496860 0.560274
vt 0.503204 0.560274
vt 1.496599 0.735625
vt 0.503465 0.735625
vt 1.495546 0.953524
vt 0.504518 0.953524
vt 0.000203 0.086430
vt 0.999861 0.086430
vt 0.000177 0.380403
vt 0.999887 0.380403
vt 0.000170 0.560274
vt 0.999894 0.560274
vt 0.000177 0.735625
vt 0.999887 0.735625
vt 0.000203 0.953524
vt 0.999861 0.953524
vt 1.134670 0.853018
vt 1.226588 0.853018
vt 1.766664 0.853018
vt -0.233336 0.853018
vt -0.134607 0.853018
vt 0.134670 0.853018
vt 0.233400 0.853018
vt 0.773476 0.853018
vt 0.865393 0.853018
vt 1.496067 0.853018
vt 0.503997 0.853018
vt 0.000190 0.853018
vt 0.999874 0.853018
vt 1.143491 0.647623
vt 1.227144 0.647623
vt 1.767246 0.647623
vt -0.232753 0.647623
vt -0.143427 0.647623
vt 0.143491 0.647623
vt 0.232817 0.647623
vt 0.772920 0.647623
vt 0.856573 0.647623
vt 1.496730 0.647623
vt 0.503334 0.647623
vt 0.000173 0.647623
vt 0.999890 0.647623
vn 0.303688 -0.928898 -0.211951
vn 0.071026 -0.906184 -0.416876
vn 0.138516 -0.714061 -0.686244
vn 0.534866 -0.760155 -0.368894
vn -0.006976 -0.888939 -0.457972
vn -0.011124 -0.680410 -0.732747
vn -0.086707 -0.910010 -0.405417
vn -0.275514 -0.940300 -0.199821
vn -0.511875 -0.781922 -0.355783
vn -0.162770 -0.720061 -0.674550
vn -0.385495 -0.922710 0.000048
vn -0.675714 -0.737164 0.000073
vn -0.275498 -0.940295 0.199868
vn -0.086707 -0.910010 0.405417
vn -0.162770 -0.720061 0.674550
vn -0.511847 -0.781910 0.355851
vn -0.006976 -0.888939 0.457972
vn -0.011124 -0.680410 0.732747
vn 0.071026 -0.906184 0.416876
vn 0.303669 -0.928894 0.211994
vn 0.534839 -0.760145 0.368952
vn 0.138515 -0.714061 0.686244
vn 0.453066 -0.891477 0.000045
vn 0.729284 -0.684211 0.000063
vn 0.213712 -0.159967 -0.963711
vn 0.806812 -0.200948 -0.555585
vn -0.014997 -0.139889 -0.990054
vn -0.806210 -0.219148 -0.549545
vn -0.246113 -0.163396 -0.955369
vn -0.978081 -0.208223 0.000097
vn -0.246113 -0.163395 0.955369
vn -0.806156 -0.219142 0.549627
vn -0.014997 -0.139889 0.990054
vn 0.806767 -0.200944 0.555652
vn 0.213712 -0.159967 0.963711
vn 0.984323 -0.176375 0.000078
vn 0.204938 0.288682 -0.935234
vn 0.775849 0.324293 -0.541195
vn -0.014638 0.257444 -0.966182
vn -0.770528 0.348904 -0.533435
vn -0.235848 0.293423 -0.926433
vn -0.952265 0.305273 0.000095
vn -0.235848 0.293423 0.926433
vn -0.770477 0.348892 0.533516
vn -0.014638 0.257444 0.966182
vn 0.775807 0.324286 0.541260
vn 0.204938 0.288683 0.935234
vn 0.965709 0.259627 0.000077
vn 0.639048 0.627163 -0.445292
vn 0.162310 0.569224 -0.806003
vn 0.119423 0.724647 -0.678694
vn 0.513683 0.774289 -0.369604
vn -0.012922 0.524277 -0.851450
vn -0.011030 0.689389 -0.724308
vn -0.190574 0.577172 -0.794074
vn -0.613682 0.662234 -0.429930
vn -0.483253 0.801754 -0.351649
vn -0.145876 0.732745 -0.664684
vn -0.790647 0.612273 0.000086
vn -0.654237 0.756289 0.000082
vn -0.613643 0.662220 0.430008
vn -0.190575 0.577172 0.794074
vn -0.145875 0.732745 0.664684
vn -0.483220 0.801740 0.351726
vn -0.012922 0.524277 0.851450
vn -0.011030 0.689389 0.724308
vn 0.162309 0.569224 0.806003
vn 0.639012 0.627153 0.445358
vn 0.513650 0.774278 0.369671
vn 0.119423 0.724647 0.678694
vn 0.842667 0.538435 0.000073
vn 0.723605 0.690215 0.000072
vn -0.010440 0.729398 -0.684010
vn -0.129559 0.769978 -0.624779
vn -0.010440 0.729398 0.684010
vn 0.103304 0.761314 0.640101
vn -0.577423 0.816445 0.000079
vn -0.423320 0.845409 0.325705
vn 0.652183 0.758062 0.000072
vn 0.454207 0.821428 -0.344894
vn 0.103304 0.761314 -0.640101
vn -0.423351 0.845422 -0.325631
vn -0.129559 0.769978 0.624779
vn 0.454175 0.821418 0.344961
s 1
g pSphere2
usemtl forcefield
f 1/2/1 2/1/2 10/9/3 9/10/4
f 2/1/2 41/46/5 43/48/6 10/9/3
f 3/3/7 4/4/8 12/12/9 11/11/10
f 4/4/8 51/56/11 53/58/12 12/12/9
f 5/5/13 6/6/14 14/14/15 13/13/16
f 6/6/14 42/47/17 44/49/18 14/14/15
f 7/7/19 8/8/20 16/16/21 15/15/22
f 8/8/20 52/57/23 54/59/24 16/16/21
f 9/10/4 10/9/3 18/17/25 17/18/26
f 10/9/3 43/48/6 45/50/27 18/17/25
f 11/11/10 12/12/9 20/20/28 19/19/29
f 12/12/9 53/58/12 55/60/30 20/20/28
f 13/13/16 14/14/15 22/22/31 21/21/32
f 14/14/15 44/49/18 46/51/33 22/22/31
f 15/15/22 16/16/21 24/24/34 23/23/35
f 16/16/21 54/59/24 56/61/36 24/24/34
f 17/18/26 18/17/25 74/80/37 73/79/38
f 18/17/25 45/50/27 81/88/39 74/80/37
f 19/19/29 20/20/28 76/83/40 75/82/41
f 20/20/28 55/60/30 83/90/42 76/83/40
f 21/21/32 22/22/31 78/85/43 77/84/44
f 22/22/31 46/51/33 82/89/45 78/85/43
f 23/23/35 24/24/34 80/87/46 79/86/47
f 24/24/34 56/61/36 84/91/48 80/87/46
f 25/26/49 26/25/50 62/67/51 61/66/52
f 26/25/50 47/52/53 69/75/54 62/67/51
f 27/27/55 28/28/56 64/70/57 63/69/58
f 28/28/56 57/62/59 71/77/60 64/70/57
f 29/29/61 30/30/62 66/72/63 65/71/64
f 30/30/62 48/53/65 70/76/66 66/72/63
f 31/31/67 32/32/68 68/74/69 67/73/70
f 32/32/68 58/63/71 72/78/72 68/74/69
f 43/48/6 41/46/5 3/41/7 11/42/10
f 44/49/18 42/47/17 7/7/19 15/15/22
f 45/50/27 43/48/6 11/42/10 19/43/29
f 46/51/33 44/49/18 15/15/22 23/23/35
f 47/52/53 81/88/39 75/81/41 27/44/55
f 48/53/65 82/89/45 79/86/47 31/31/67
f 49/54/73 69/75/54 63/68/58 35/45/74
f 50/55/75 70/76/66 67/73/70 39/39/76
f 53/58/12 51/56/11 5/5/13 13/13/16
f 54/59/24 52/57/23 1/2/1 9/10/4
f 55/60/30 53/58/12 13/13/16 21/21/32
f 56/61/36 54/59/24 9/10/4 17/18/26
f 57/62/59 83/90/42 77/84/44 29/29/61
f 58/63/71 84/91/48 73/79/38 25/26/49
f 59/64/77 71/77/60 65/71/64 37/37/78
f 60/65/79 72/78/72 61/66/52 33/34/80
f 61/66/52 62/67/51 34/33/81 33/34/80
f 62/67/51 69/75/54 49/54/73 34/33/81
f 63/69/58 64/70/57 36/36/82 35/35/74
f 64/70/57 71/77/60 59/64/77 36/36/82
f 65/71/64 66/72/63 38/38/83 37/37/78
f 66/72/63 70/76/66 50/55/75 38/38/83
f 67/73/70 68/74/69 40/40/84 39/39/76
f 68/74/69 72/78/72 60/65/79 40/40/84
f 63/68/58 69/75/54 47/52/53 27/44/55
f 67/73/70 70/76/66 48/53/65 31/31/67
f 65/71/64 71/77/60 57/62/59 29/29/61
f 61/66/52 72/78/72 58/63/71 25/26/49
f 73/79/38 74/80/37 26/25/50 25/26/49
f 74/80/37 81/88/39 47/52/53 26/25/50
f 75/82/41 76/83/40 28/28/56 27/27/55
f 76/83/40 83/90/42 57/62/59 28/28/56
f 77/84/44 78/85/43 30/30/62 29/29/61
f 78/85/43 82/89/45 48/53/65 30/30/62
f 79/86/47 80/87/46 32/32/68 31/31/67
f 80/87/46 84/91/48 58/63/71 32/32/68
f 75/81/41 81/88/39 45/50/27 19/43/29
f 79/86/47 82/89/45 46/51/33 23/23/35
f 77/84/44 83/90/42 55/60/30 21/21/32
f 73/79/38 84/91/48 56/61/36 17/18/26
