# This file uses centimeters as units for non-parametric coordinates.

mtllib medium_unit_hardened.mtl
g default
v 21.846235 24.336597 -37.961415
v 22.772400 24.560551 -38.478403
v 22.368652 27.002502 -37.961415
v 23.175680 27.103906 -38.478403
v 19.976078 30.686432 -37.961415
v 21.260157 30.401233 -38.478403
v 19.976078 30.686432 -50.578524
v 21.260157 30.401233 -50.061536
v 22.368652 27.002502 -50.578524
v 23.175680 27.103906 -50.061536
v 21.846235 24.336597 -50.578524
v 22.772400 24.560551 -50.061536
v 20.947395 31.308874 -42.348778
v 22.231472 31.023675 -42.348778
v 22.817553 24.336597 -42.348778
v 23.743717 24.560551 -42.348778
v 24.146996 27.103906 -42.348778
v 23.339970 27.002502 -42.348778
v 22.817553 24.336597 -46.114620
v 23.743717 24.560551 -46.114620
v 24.146996 27.103906 -46.114620
v 23.339970 27.002502 -46.114620
v 20.947397 31.308874 -46.114620
v 22.231472 31.023675 -46.114620
v 21.901144 24.336596 -51.288349
v 22.278315 24.560550 -52.328877
v 22.301340 27.002502 -51.307732
v 22.587244 27.103906 -52.222516
v 20.725435 30.605567 -51.087585
v 21.119871 30.526611 -51.942645
v 17.326298 31.184359 -54.034959
v 18.343571 31.105402 -54.299905
v 17.752602 27.002502 -56.728709
v 18.703133 27.103906 -56.851419
v 17.352407 24.336596 -56.392906
v 18.394205 24.560550 -56.592197
v 21.488550 28.980512 -51.195433
v 21.705128 29.351468 -52.053757
v 18.089939 28.980512 -54.675728
v 18.928829 29.351468 -54.790994
v 17.324722 24.336596 -32.186531
v 18.366520 24.560550 -31.987239
v 17.724915 27.002502 -31.850728
v 18.675447 27.103906 -31.728017
v 17.298615 31.184359 -34.544478
v 18.315887 31.105402 -34.279531
v 20.696404 30.605567 -37.491851
v 21.092184 30.526611 -36.636792
v 22.273653 27.002502 -37.271704
v 22.559561 27.103906 -36.356921
v 21.873461 24.336596 -37.291087
v 22.250631 24.560550 -36.250559
v 18.062254 28.980512 -33.903707
v 18.901144 29.351468 -33.788441
v 21.460569 28.980512 -37.384002
v 21.677444 29.351468 -36.525679
v 19.543179 29.844692 -37.971213
v 19.584904 30.964507 -37.941267
v 15.861548 32.069883 -37.971213
v 16.428854 32.882586 -37.941267
v 13.696308 32.744755 -37.971213
v 14.445620 33.500730 -37.941267
v 13.696308 32.744755 -50.568726
v 14.445620 33.500730 -50.598672
v 15.861548 32.069883 -50.568726
v 16.428854 32.882586 -50.598672
v 19.543179 29.844692 -50.568726
v 19.584904 30.964507 -50.598672
v 13.901141 34.335462 -42.474175
v 14.636797 35.008607 -42.303006
v 18.209080 32.712842 -42.283729
v 18.202179 33.767805 -42.283729
v 16.620029 34.390462 -42.303006
v 16.052380 33.664957 -42.330428
v 18.209080 32.712842 -46.274702
v 18.202179 33.767805 -46.274702
v 16.620029 34.390462 -46.310211
v 16.052380 33.664957 -46.282789
v 13.901142 34.335467 -46.139042
v 14.636797 35.008607 -46.310211
v 15.642203 30.810885 -35.031793
v 16.257219 31.500857 -35.400410
v 15.642203 30.810885 -53.508146
v 16.257219 31.500857 -53.139529
v 17.878069 34.010819 -42.303006
v 17.310493 33.386588 -42.314653
v 17.310493 33.386588 -46.298564
v 17.878069 34.010819 -46.310211
v 13.901141 33.987270 -40.520741
v 14.636797 34.660415 -40.236792
v 20.272564 30.817486 -40.236792
v 20.265663 31.872449 -40.236792
v 16.620029 34.042270 -40.236792
v 16.052380 33.316765 -40.236792
v 17.878069 33.662627 -40.236792
v 17.310493 33.038395 -40.236792
v 20.272562 30.817487 -48.282505
v 20.265663 31.872449 -48.282505
v 16.620029 34.042270 -48.282506
v 16.052380 33.316765 -48.282506
v 13.901143 33.987275 -47.998556
v 14.636797 34.660415 -48.282506
v 17.310493 33.038395 -48.282505
v 17.878069 33.662627 -48.282506
vt 0.046811 0.047269
vt 0.047258 0.045850
vt 0.047258 0.232298
vt 0.046811 0.232582
vt 0.047258 0.512068
vt 0.046811 0.510649
vt 0.952742 0.512068
vt 0.953189 0.510649
vt 0.952742 0.232298
vt 0.953189 0.232582
vt 0.952742 0.045850
vt 0.953189 0.047269
vt 0.051724 0.581360
vt 0.051961 0.520959
vt 0.219488 0.520959
vt 0.219460 0.581360
vt 0.535002 0.520959
vt 0.534968 0.581360
vt 0.051724 0.581381
vt 0.051966 0.520964
vt 0.949797 0.520964
vt 0.949859 0.581380
vt 0.051724 0.581326
vt 0.051961 0.520952
vt 0.349019 0.520953
vt 0.349085 0.581326
vt 0.535002 0.520953
vt 0.534968 0.581326
vt 0.051724 0.581365
vt 0.051966 0.520961
vt 0.949797 0.520961
vt 0.949859 0.581365
vt 0.361987 0.510649
vt 0.364033 0.581381
vt 0.351966 0.520964
vt 0.349815 0.512068
vt 0.361987 0.047269
vt 0.637549 0.581365
vt 0.649797 0.520961
vt 0.349816 0.045850
vt 0.349816 0.232298
vt 0.361987 0.232582
vt 0.632515 0.047269
vt 0.369482 0.581365
vt 0.357899 0.520961
vt 0.644201 0.045850
vt 0.644201 0.232298
vt 0.632515 0.232582
vt 0.632515 0.510649
vt 0.632101 0.581381
vt 0.643864 0.520964
vt 0.644201 0.512068
vt 0.051301 0.580873
vt 0.051701 0.520254
vt 0.414671 0.520255
vt 0.400775 0.580873
vt 0.644498 0.520255
vt 0.615733 0.580872
vt 0.051301 0.580897
vt 0.051709 0.520283
vt 0.947190 0.520283
vt 0.947238 0.580896
vt 0.051301 0.580865
vt 0.051701 0.520246
vt 0.351665 0.520246
vt 0.380108 0.580865
vt 0.593320 0.580865
vt 0.579424 0.520246
vt 0.947186 0.520246
vt 0.947233 0.580865
vt 0.051301 0.580932
vt 0.051709 0.520324
vt 0.947190 0.520324
vt 0.947238 0.580932
vt 0.045056 0.078779
vt 0.505647 0.078779
vt 0.505647 0.251800
vt 0.045056 0.251800
vt 0.505647 0.363849
vt 0.045056 0.363849
vt 0.506155 0.078751
vt 0.044549 0.078751
vt 0.044549 0.251794
vt 0.506155 0.251794
vt 0.044549 0.353933
vt 0.506155 0.353933
vt 0.947186 0.520254
vt 0.947232 0.580872
vt 0.505647 0.511421
vt 0.045056 0.511421
vt 0.044549 0.511448
vt 0.506155 0.511448
vt 0.051301 0.580873
vt 0.051701 0.520254
vt 0.414671 0.520255
vt 0.400775 0.580873
vt 0.644498 0.520255
vt 0.615733 0.580872
vt 0.051301 0.580897
vt 0.051709 0.520283
vt 0.947190 0.520283
vt 0.947238 0.580896
vt 0.051301 0.580865
vt 0.051701 0.520246
vt 0.351665 0.520246
vt 0.380108 0.580865
vt 0.593320 0.580865
vt 0.579424 0.520246
vt 0.947186 0.520246
vt 0.947233 0.580865
vt 0.051301 0.580932
vt 0.051709 0.520324
vt 0.947190 0.520324
vt 0.947238 0.580932
vt 0.045056 0.078779
vt 0.505647 0.078779
vt 0.505647 0.251800
vt 0.045056 0.251800
vt 0.505647 0.363849
vt 0.045056 0.363849
vt 0.506155 0.078751
vt 0.044549 0.078751
vt 0.044549 0.251794
vt 0.506155 0.251794
vt 0.044549 0.353933
vt 0.506155 0.353933
vt 0.947186 0.520254
vt 0.947232 0.580872
vt 0.505647 0.511421
vt 0.045056 0.511421
vt 0.044549 0.511448
vt 0.506155 0.511448
vt 0.051724 0.581350
vt 0.051961 0.520957
vt 0.219478 0.520957
vt 0.219495 0.581350
vt 0.305714 0.581350
vt 0.305144 0.520957
vt 0.431974 0.520957
vt 0.431384 0.581350
vt 0.051724 0.581362
vt 0.051966 0.520960
vt 0.219314 0.520960
vt 0.219314 0.581362
vt 0.051724 0.581349
vt 0.051961 0.520957
vt 0.219294 0.520957
vt 0.219199 0.581349
vt 0.219430 0.520957
vt 0.219413 0.581349
vt 0.051724 0.581188
vt 0.051966 0.520925
vt 0.219319 0.520925
vt 0.219319 0.581188
vt 0.136691 0.590127
vt 0.238545 0.590127
vt 0.244270 0.798544
vt -0.006075 0.798543
vt 0.136691 0.842550
vt 0.244270 0.842550
vt 0.244270 0.991369
vt 0.136691 0.991369
vt 0.848855 0.589618
vt 0.743662 0.589618
vt 0.739040 0.798544
vt 0.991159 0.798728
vt 0.848900 0.842703
vt 0.739040 0.842547
vt 0.719435 0.991878
vt 0.848855 0.991878
vt 0.361683 0.581362
vt 0.361683 0.520960
vt 0.648185 0.520960
vt 0.648185 0.581362
vt 0.051961 0.581317
vt 0.051724 0.520951
vt 0.219253 0.520951
vt 0.219391 0.581317
vt 0.371332 0.842550
vt 0.371332 0.798544
vt 0.620617 0.798544
vt 0.617754 0.842550
vt 0.371332 0.991369
vt 0.617754 0.991369
vt 0.371332 0.842547
vt 0.371332 0.798544
vt 0.244270 0.798544
vt 0.244270 0.842547
vt 0.380942 0.991878
vt 0.263976 0.991878
vt 0.051724 0.581318
vt 0.051724 0.520951
vt 0.337316 0.520951
vt 0.337316 0.581318
vt 0.617754 0.842547
vt 0.620617 0.798544
vt 0.607786 0.991878
vt 0.789198 0.520960
vt 0.789198 0.581362
vt 0.739040 0.798544
vt 0.739040 0.842550
vt 0.739040 0.991369
vt 0.431974 0.520957
vt 0.431384 0.581349
vt 0.370146 0.770251
vt 0.618433 0.770251
vt -0.006579 0.798728
vt 0.236776 0.589618
vt 0.135725 0.589618
vt 0.619312 0.770619
vt 0.369275 0.770619
vt 0.990654 0.798543
vt 0.741903 0.590127
vt 0.847888 0.590127
vt 0.051724 0.581256
vt 0.051724 0.520939
vt 0.219173 0.520939
vt 0.219314 0.581255
vt 0.135680 0.842703
vt 0.135725 0.991878
vt 0.051724 0.581230
vt 0.051961 0.520933
vt 0.219391 0.520933
vt 0.219253 0.581230
vt 0.949797 0.520960
vt 0.949859 0.581362
vt 0.847888 0.842550
vt 0.847888 0.991369
vn 0.522921 -0.092924 0.847301
vn 0.522921 -0.092924 0.847301
vn 0.522921 -0.092924 0.847301
vn 0.522921 -0.092924 0.847301
vn 0.445469 0.274897 0.852050
vn 0.445469 0.274897 0.852050
vn 0.445469 0.274897 0.852050
vn 0.445469 0.274897 0.852050
vn 0.250892 0.946758 0.201750
vn 0.250892 0.946758 0.201750
vn 0.235116 0.966662 0.101418
vn 0.235116 0.966662 0.101418
vn 0.445469 0.274897 -0.852050
vn 0.445469 0.274897 -0.852050
vn 0.445469 0.274897 -0.852050
vn 0.445469 0.274897 -0.852050
vn 0.522921 -0.092924 -0.847301
vn 0.522921 -0.092924 -0.847301
vn 0.522921 -0.092924 -0.847301
vn 0.522921 -0.092924 -0.847301
vn 0.249829 -0.966569 -0.057703
vn 0.249829 -0.966569 -0.057703
vn 0.242540 -0.969712 -0.028864
vn 0.242540 -0.969712 -0.028864
vn 0.958652 -0.152007 0.240585
vn 0.980382 -0.155451 0.121186
vn 0.980382 -0.155451 0.121186
vn 0.958652 -0.152007 0.240585
vn 0.854979 0.453848 0.251061
vn 0.883946 0.450135 0.126566
vn 0.883946 0.450135 0.126566
vn 0.854979 0.453848 0.251061
vn -0.959700 0.188065 0.208825
vn -0.975911 0.191242 0.104993
vn -0.975911 0.191242 0.104993
vn -0.959700 0.188065 0.208825
vn -0.837442 -0.501518 0.217188
vn -0.861059 -0.496629 0.109262
vn -0.861059 -0.496629 0.109262
vn -0.837442 -0.501518 0.217188
vn 0.234801 0.966931 -0.099559
vn 0.234801 0.966931 -0.099559
vn 0.242686 -0.969658 0.029433
vn 0.242686 -0.969658 0.029433
vn 0.250113 -0.966427 0.058839
vn 0.250113 -0.966427 0.058839
vn 0.980651 -0.155494 -0.118935
vn 0.980651 -0.155494 -0.118935
vn 0.884205 0.450278 -0.124225
vn 0.884205 0.450278 -0.124225
vn -0.975726 0.191206 -0.106763
vn -0.975726 0.191206 -0.106763
vn -0.958964 0.187921 -0.212305
vn -0.958964 0.187921 -0.212305
vn -0.860885 -0.496521 -0.111099
vn -0.860885 -0.496521 -0.111099
vn -0.836747 -0.501103 -0.220793
vn -0.836747 -0.501103 -0.220793
vn 0.250359 0.947671 -0.198090
vn 0.250359 0.947671 -0.198090
vn 0.959719 -0.152175 -0.236182
vn 0.959719 -0.152175 -0.236182
vn 0.856016 0.454399 -0.246491
vn 0.856016 0.454399 -0.246491
vn 0.945085 -0.133633 0.298256
vn 0.945085 -0.133633 0.298256
vn 0.945085 -0.133633 0.298256
vn 0.945085 -0.133633 0.298256
vn 0.881096 0.330941 0.337858
vn 0.881096 0.330941 0.337858
vn 0.881096 0.330941 0.337858
vn 0.881096 0.330941 0.337858
vn 0.146404 0.988191 0.045207
vn 0.146404 0.988191 0.045207
vn 0.146404 0.988191 0.045207
vn 0.146404 0.988191 0.045207
vn -0.226253 0.195771 -0.954193
vn -0.226253 0.195771 -0.954193
vn -0.226253 0.195771 -0.954193
vn -0.226253 0.195771 -0.954193
vn -0.144052 -0.092924 -0.985198
vn -0.144052 -0.092924 -0.985198
vn -0.144052 -0.092924 -0.985198
vn -0.144052 -0.092924 -0.985198
vn 0.171897 -0.972886 -0.154739
vn 0.171897 -0.972886 -0.154739
vn 0.171897 -0.972886 -0.154739
vn 0.171897 -0.972886 -0.154739
vn 0.748483 -0.110564 -0.653872
vn 0.748483 -0.110564 -0.653872
vn 0.748483 -0.110564 -0.653872
vn 0.748483 -0.110564 -0.653872
vn 0.678702 0.403440 -0.613678
vn 0.678702 0.403440 -0.613678
vn 0.678702 0.403440 -0.613678
vn 0.678702 0.403440 -0.613678
vn -0.747395 0.155229 0.645992
vn -0.747395 0.155229 0.645992
vn -0.747395 0.155229 0.645992
vn -0.747395 0.155229 0.645992
vn -0.679178 -0.413528 0.606393
vn -0.679178 -0.413528 0.606393
vn -0.679178 -0.413528 0.606393
vn -0.679178 -0.413528 0.606393
vn 0.848853 0.380014 0.367474
vn 0.848853 0.380014 0.367474
vn 0.848853 0.380014 0.367474
vn 0.848853 0.380014 0.367474
vn -0.271342 0.689683 -0.671351
vn -0.271342 0.689683 -0.671351
vn -0.271342 0.689683 -0.671351
vn -0.271342 0.689683 -0.671351
vn 0.643725 0.392328 -0.657036
vn 0.643725 0.392328 -0.657036
vn 0.643725 0.392328 -0.657036
vn 0.643725 0.392328 -0.657036
vn -0.650658 -0.387170 0.653257
vn -0.650658 -0.387170 0.653257
vn -0.650658 -0.387170 0.653257
vn -0.650658 -0.387170 0.653257
vn -0.144055 -0.092924 0.985197
vn -0.144055 -0.092924 0.985197
vn -0.144055 -0.092924 0.985197
vn -0.144055 -0.092924 0.985197
vn -0.271341 0.689683 0.671350
vn -0.271341 0.689683 0.671350
vn -0.271341 0.689683 0.671350
vn -0.271341 0.689683 0.671350
vn 0.146347 0.988195 -0.045310
vn 0.146347 0.988195 -0.045310
vn 0.146347 0.988195 -0.045310
vn 0.146347 0.988195 -0.045310
vn 0.848505 0.380109 -0.368180
vn 0.848505 0.380109 -0.368180
vn 0.848505 0.380109 -0.368180
vn 0.848505 0.380109 -0.368180
vn 0.945085 -0.133631 -0.298258
vn 0.945085 -0.133631 -0.298258
vn 0.945085 -0.133631 -0.298258
vn 0.945085 -0.133631 -0.298258
vn 0.171896 -0.972886 0.154739
vn 0.171896 -0.972886 0.154739
vn 0.171896 -0.972886 0.154739
vn 0.171896 -0.972886 0.154739
vn 0.748483 -0.110564 0.653873
vn 0.748483 -0.110564 0.653873
vn 0.748483 -0.110564 0.653873
vn 0.748483 -0.110564 0.653873
vn 0.678702 0.403440 0.613678
vn 0.678702 0.403440 0.613678
vn 0.678702 0.403440 0.613678
vn 0.678702 0.403440 0.613678
vn -0.747395 0.155228 -0.645992
vn -0.747395 0.155228 -0.645992
vn -0.747395 0.155228 -0.645992
vn -0.747395 0.155228 -0.645992
vn -0.679177 -0.413564 -0.606369
vn -0.679177 -0.413564 -0.606369
vn -0.679177 -0.413564 -0.606369
vn -0.679177 -0.413564 -0.606369
vn -0.226251 0.195772 0.954193
vn -0.226251 0.195772 0.954193
vn -0.226251 0.195772 0.954193
vn -0.226251 0.195772 0.954193
vn 0.881032 0.330969 -0.337997
vn 0.881032 0.330969 -0.337997
vn 0.881032 0.330969 -0.337997
vn 0.881032 0.330969 -0.337997
vn 0.643725 0.392328 0.657036
vn 0.643725 0.392328 0.657036
vn 0.643725 0.392328 0.657036
vn 0.643725 0.392328 0.657036
vn -0.650698 -0.387337 -0.653117
vn -0.650698 -0.387337 -0.653117
vn -0.650698 -0.387337 -0.653117
vn -0.650698 -0.387337 -0.653117
vn 0.594146 -0.065585 0.801679
vn 0.594146 -0.065585 0.801679
vn 0.594146 -0.065585 0.801679
vn 0.594146 -0.065585 0.801679
vn -0.009428 -0.030248 0.999498
vn -0.009428 -0.030248 0.999498
vn -0.009428 -0.030248 0.999498
vn -0.009428 -0.030248 0.999498
vn -0.696493 0.663913 0.272244
vn -0.696493 0.663913 0.272244
vn -0.696493 0.663913 0.272244
vn -0.696493 0.663913 0.272244
vn -0.009428 -0.030248 -0.999498
vn -0.009428 -0.030248 -0.999498
vn -0.009428 -0.030248 -0.999498
vn -0.009428 -0.030248 -0.999498
vn -0.731896 0.632822 -0.252715
vn -0.731896 0.632822 -0.252715
vn -0.731896 0.632822 -0.252715
vn -0.731896 0.632822 -0.252715
vn 0.958129 -0.019276 -0.285687
vn 0.958129 -0.019276 -0.285687
vn 0.958129 -0.019276 -0.285687
vn 0.958129 -0.019276 -0.285687
vn 0.504437 0.722003 0.473556
vn 0.504437 0.722003 0.473556
vn 0.504437 0.722003 0.473556
vn 0.504437 0.722003 0.473556
vn 0.265395 0.851482 0.452266
vn 0.265395 0.851482 0.452266
vn 0.265395 0.851482 0.452266
vn 0.265395 0.851482 0.452266
vn -0.529308 -0.706416 0.469904
vn -0.529308 -0.706416 0.469904
vn -0.529308 -0.706416 0.469904
vn -0.529308 -0.706416 0.469904
vn -0.236838 -0.856610 0.458397
vn -0.236838 -0.856610 0.458397
vn -0.236838 -0.856610 0.458397
vn -0.236838 -0.856610 0.458397
vn -0.675067 0.737757 0.000000
vn -0.675067 0.737757 0.000000
vn -0.675067 0.737757 0.000000
vn -0.675067 0.737757 0.000000
vn 0.706383 0.004621 -0.707815
vn 0.706383 0.004621 -0.707815
vn 0.706383 0.004621 -0.707815
vn 0.706383 0.004621 -0.707815
vn 0.288906 0.957358 0.000000
vn 0.288906 0.957358 0.000000
vn 0.288906 0.957358 0.000000
vn 0.288906 0.957358 0.000000
vn 0.297566 0.954701 0.000000
vn 0.297566 0.954701 0.000000
vn 0.297566 0.954701 0.000000
vn 0.297566 0.954701 0.000000
vn -0.212258 -0.963875 -0.160908
vn -0.212258 -0.963875 -0.160908
vn -0.212258 -0.963875 -0.160908
vn -0.212258 -0.963875 -0.160908
vn -0.278800 -0.946440 -0.162855
vn -0.278800 -0.946440 -0.162855
vn -0.278800 -0.946440 -0.162855
vn -0.278800 -0.946440 -0.162855
vn 0.999979 0.006541 0.000000
vn 0.999979 0.006541 0.000000
vn 0.999979 0.006541 0.000000
vn 0.999979 0.006541 0.000000
vn -0.216035 -0.976386 0.000000
vn -0.216035 -0.976386 0.000000
vn -0.216035 -0.976386 0.000000
vn -0.216035 -0.976386 0.000000
vn -0.297565 -0.954701 -0.000000
vn -0.297565 -0.954701 -0.000000
vn -0.297565 -0.954701 -0.000000
vn -0.297565 -0.954701 -0.000000
vn -0.690870 0.711328 -0.129275
vn -0.690870 0.711328 -0.129275
vn -0.690870 0.711328 -0.129275
vn -0.690870 0.711328 -0.129275
vn 0.284866 0.943970 -0.166650
vn 0.284866 0.943970 -0.166650
vn 0.284866 0.943970 -0.166650
vn 0.284866 0.943970 -0.166650
vn 0.293428 0.941423 -0.166200
vn 0.293428 0.941423 -0.166200
vn 0.293428 0.941423 -0.166200
vn 0.293428 0.941423 -0.166200
vn -0.731896 0.632822 0.252715
vn -0.731896 0.632822 0.252715
vn -0.731896 0.632822 0.252715
vn -0.731896 0.632822 0.252715
vn 0.594146 -0.065586 -0.801679
vn 0.594146 -0.065586 -0.801679
vn 0.594146 -0.065586 -0.801679
vn 0.594146 -0.065586 -0.801679
vn 0.280628 0.840824 0.462886
vn 0.280628 0.840824 0.462886
vn 0.280628 0.840824 0.462886
vn 0.280628 0.840824 0.462886
vn -0.090132 -0.895240 0.436374
vn -0.090132 -0.895240 0.436374
vn -0.090132 -0.895240 0.436374
vn -0.090132 -0.895240 0.436374
vn 0.599892 0.800081 0.000000
vn 0.599892 0.800081 0.000000
vn 0.599892 0.800081 0.000000
vn 0.599892 0.800081 0.000000
vn -0.529485 -0.704935 -0.471923
vn -0.529485 -0.704935 -0.471923
vn -0.529485 -0.704935 -0.471923
vn -0.529485 -0.704935 -0.471923
vn -0.599889 -0.800084 0.000000
vn -0.599889 -0.800084 0.000000
vn -0.599889 -0.800084 0.000000
vn -0.599889 -0.800084 0.000000
vn 0.504140 0.723606 -0.471421
vn 0.504140 0.723606 -0.471421
vn 0.504140 0.723606 -0.471421
vn 0.504140 0.723606 -0.471421
vn -0.690421 0.712790 0.123487
vn -0.690421 0.712790 0.123487
vn -0.690421 0.712790 0.123487
vn -0.690421 0.712790 0.123487
vn 0.593802 0.793242 0.134782
vn 0.593802 0.793242 0.134782
vn 0.593802 0.793242 0.134782
vn 0.593802 0.793242 0.134782
vn 0.293789 0.942580 0.158841
vn 0.293789 0.942580 0.158841
vn 0.293789 0.942580 0.158841
vn 0.293789 0.942580 0.158841
vn 0.957422 -0.019296 0.288047
vn 0.957422 -0.019296 0.288047
vn 0.957422 -0.019296 0.288047
vn 0.957422 -0.019296 0.288047
vn -0.086105 -0.895002 -0.437673
vn -0.086105 -0.895002 -0.437673
vn -0.086105 -0.895002 -0.437673
vn -0.086105 -0.895002 -0.437673
vn -0.236170 -0.855124 -0.461504
vn -0.236170 -0.855124 -0.461504
vn -0.236170 -0.855124 -0.461504
vn -0.236170 -0.855124 -0.461504
vn 0.285217 0.945137 0.159272
vn 0.285217 0.945137 0.159272
vn 0.285217 0.945137 0.159272
vn 0.285217 0.945137 0.159272
vn -0.593750 -0.793333 -0.134476
vn -0.593750 -0.793333 -0.134476
vn -0.593750 -0.793333 -0.134476
vn -0.593750 -0.793333 -0.134476
vn 0.699519 0.004577 0.714599
vn 0.699519 0.004577 0.714599
vn 0.699519 0.004577 0.714599
vn 0.699519 0.004577 0.714599
vn -0.594716 -0.792049 0.137738
vn -0.594716 -0.792049 0.137738
vn -0.594716 -0.792049 0.137738
vn -0.594716 -0.792049 0.137738
vn -0.277708 -0.945397 0.170594
vn -0.277708 -0.945397 0.170594
vn -0.277708 -0.945397 0.170594
vn -0.277708 -0.945397 0.170594
vn -0.696674 0.664543 -0.270239
vn -0.696674 0.664543 -0.270239
vn -0.696674 0.664543 -0.270239
vn -0.696674 0.664543 -0.270239
vn 0.284450 0.840544 -0.461058
vn 0.284450 0.840544 -0.461058
vn 0.284450 0.840544 -0.461058
vn 0.284450 0.840544 -0.461058
vn 0.265878 0.853031 -0.449051
vn 0.265878 0.853031 -0.449051
vn 0.265878 0.853031 -0.449051
vn 0.265878 0.853031 -0.449051
vn -0.211948 -0.962682 0.168287
vn -0.211948 -0.962682 0.168287
vn -0.211948 -0.962682 0.168287
vn -0.211948 -0.962682 0.168287
vn 0.595338 0.791610 -0.137571
vn 0.595338 0.791610 -0.137571
vn 0.595338 0.791610 -0.137571
vn 0.595338 0.791610 -0.137571
s off
g polySurface1
usemtl hardened
f 1/13/1 2/14/2 4/15/3 3/16/4
f 3/16/5 4/15/6 6/17/7 5/18/8
s 1
f 5/19/9 6/20/10 14/35/11 13/34/12
s off
f 7/23/13 8/24/14 10/25/15 9/26/16
f 9/26/17 10/25/18 12/27/19 11/28/20
s 2
f 11/29/21 12/30/22 20/45/23 19/44/24
s 3
f 2/2/25 16/40/26 17/41/27 4/3/28
s 4
f 4/3/29 17/41/30 14/36/31 6/5/32
s 5
f 11/12/33 19/43/34 22/48/35 9/10/36
s 6
f 9/10/37 22/48/38 23/49/39 7/8/40
s 1
f 13/34/12 14/35/11 24/51/41 23/50/42
s 2
f 15/38/43 16/39/44 2/31/45 1/32/46
s 3
f 17/41/27 16/40/26 20/46/47 21/47/48
s 4
f 14/36/31 17/41/30 21/47/49 24/52/50
s 5
f 18/42/51 15/37/52 1/1/53 3/4/54
s 6
f 13/33/55 18/42/56 3/4/57 5/6/58
s 2
f 19/44/24 20/45/23 16/39/44 15/38/43
s 5
f 22/48/35 19/43/34 15/37/52 18/42/51
s 6
f 23/49/39 22/48/38 18/42/56 13/33/55
s 1
f 23/50/42 24/51/41 8/21/59 7/22/60
s 3
f 21/47/48 20/46/47 12/11/61 10/9/62
s 4
f 24/52/50 21/47/49 10/9/63 8/7/64
s off
f 25/53/65 26/54/66 28/55/67 27/56/68
f 27/56/69 28/55/70 38/57/71 37/58/72
f 29/59/73 30/60/74 32/61/75 31/62/76
f 31/63/77 32/64/78 40/65/79 39/66/80
f 33/67/81 34/68/82 36/69/83 35/70/84
f 35/71/85 36/72/86 26/73/87 25/74/88
f 26/75/89 36/76/90 34/77/91 28/78/92
f 28/78/93 34/77/94 40/79/95 38/80/96
f 35/81/97 25/82/98 27/83/99 33/84/100
f 33/84/101 27/83/102 37/85/103 39/86/104
f 37/58/105 38/57/106 30/87/107 29/88/108
f 39/66/109 40/65/110 34/68/111 33/67/112
f 38/80/113 40/79/114 32/89/115 30/90/116
f 39/86/117 37/85/118 29/91/119 31/92/120
f 41/93/121 42/94/122 44/95/123 43/96/124
f 43/96/125 44/95/126 54/97/127 53/98/128
f 45/99/129 46/100/130 48/101/131 47/102/132
f 47/103/133 48/104/134 56/105/135 55/106/136
f 49/107/137 50/108/138 52/109/139 51/110/140
f 51/111/141 52/112/142 42/113/143 41/114/144
f 42/115/145 52/116/146 50/117/147 44/118/148
f 44/118/149 50/117/150 56/119/151 54/120/152
f 51/121/153 41/122/154 43/123/155 49/124/156
f 49/124/157 43/123/158 53/125/159 55/126/160
f 53/98/161 54/97/162 46/127/163 45/128/164
f 55/106/165 56/105/166 50/108/167 49/107/168
f 54/120/169 56/119/170 48/129/171 46/130/172
f 55/126/173 53/125/174 45/131/175 47/132/176
f 57/133/177 58/134/178 82/135/179 81/136/180
f 59/137/181 60/138/182 62/139/183 61/140/184
f 61/141/185 62/142/186 90/143/187 89/144/188
f 63/145/189 64/146/190 66/147/191 65/148/192
f 65/148/193 66/147/194 84/149/195 83/150/196
f 67/151/197 68/152/198 98/153/199 97/154/200
f 58/155/201 92/156/202 95/157/203 82/158/204
f 60/159/205 93/160/206 90/161/207 62/162/208
f 67/163/209 97/164/210 103/165/211 83/166/212
f 65/167/213 100/168/214 101/169/215 63/170/216
f 69/171/217 70/172/218 80/173/219 79/174/220
f 71/175/221 72/176/222 92/177/223 91/178/224
f 73/179/225 85/180/226 88/181/227 77/182/228
f 70/183/229 73/179/230 77/182/231 80/184/232
f 74/185/233 86/186/234 96/187/235 94/188/236
f 69/189/237 74/185/238 94/188/239 89/190/240
f 75/191/241 76/192/242 72/193/243 71/194/244
f 78/195/245 87/196/246 86/186/247 74/185/248
f 79/197/249 78/195/250 74/185/251 69/189/252
f 79/174/253 80/173/254 102/198/255 101/199/256
f 77/182/257 88/181/258 104/200/259 99/201/260
f 80/184/261 77/182/262 99/201/263 102/202/264
f 81/136/265 82/135/266 60/138/267 59/137/268
f 83/150/269 84/149/270 68/203/271 67/204/272
f 82/158/273 95/157/274 93/160/275 60/159/276
f 83/166/277 103/165/278 100/168/279 65/167/280
f 88/181/281 85/180/282 72/205/283 76/206/284
f 81/207/285 96/187/286 91/208/287 57/209/288
f 86/186/289 87/196/290 75/210/291 71/211/292
f 84/212/293 104/200/294 98/213/295 68/214/296
f 89/144/297 90/143/298 70/172/299 69/171/300
f 95/157/301 92/156/302 72/205/303 85/180/304
f 90/161/305 93/160/306 73/179/307 70/183/308
f 91/215/309 92/216/310 58/217/311 57/218/312
f 94/188/313 96/187/314 81/207/315 59/219/316
f 89/190/317 94/188/318 59/219/319 61/220/320
f 93/160/321 95/157/322 85/180/323 73/179/324
f 91/208/325 96/187/326 86/186/327 71/211/328
f 97/221/329 98/222/330 76/223/331 75/224/332
f 103/165/333 97/164/334 75/210/335 87/196/336
f 101/169/337 100/168/338 78/195/339 79/197/340
f 101/199/341 102/198/342 64/225/343 63/226/344
f 99/201/345 104/200/346 84/212/347 66/227/348
f 102/202/349 99/201/350 66/227/351 64/228/352
f 100/168/353 103/165/354 87/196/355 78/195/356
f 98/213/357 104/200/358 88/181/359 76/206/360
