# This file uses centimeters as units for non-parametric coordinates.

mtllib network.mtl
g default
v 12.915178 12.921746 -8.394019
v 12.147760 12.921746 -8.711894
v 11.380340 12.921746 -8.394018
v 11.062465 12.921746 -7.626599
v 11.380340 12.921746 -6.859180
v 12.147760 12.921746 -6.541304
v 12.915178 12.921746 -6.859180
v 13.233053 12.921747 -7.626600
v 13.530601 13.615820 -9.009440
v 12.147760 13.615819 -9.582230
v 10.764918 13.615819 -9.009439
v 10.192127 13.615819 -7.626599
v 10.764918 13.615819 -6.243759
v 12.147760 13.615819 -5.670969
v 13.530601 13.615820 -6.243760
v 14.103392 13.615820 -7.626600
v 13.872133 14.618780 -9.350974
v 12.147760 14.618779 -10.065233
v 10.423385 14.618779 -9.350973
v 9.709126 14.618778 -7.626598
v 10.423385 14.618779 -5.902224
v 12.147760 14.618779 -5.187965
v 13.872134 14.618780 -5.902225
v 14.586393 14.618783 -7.626600
v 13.872133 15.731986 -9.350974
v 12.147760 15.731986 -10.065233
v 10.423385 15.731985 -9.350973
v 9.709126 15.731985 -7.626598
v 10.423385 15.731985 -5.902224
v 12.147760 15.731986 -5.187965
v 13.872134 15.731986 -5.902225
v 14.586393 15.731989 -7.626600
v 13.530601 16.734946 -9.009440
v 12.147760 16.734945 -9.582230
v 10.764918 16.734945 -9.009439
v 10.192127 16.734945 -7.626599
v 10.764918 16.734945 -6.243759
v 12.147760 16.734945 -5.670969
v 13.530601 16.734946 -6.243760
v 14.103392 16.734946 -7.626600
v 12.915178 17.429019 -8.394019
v 12.147760 17.429019 -8.711894
v 11.380340 17.429018 -8.394018
v 11.062465 17.429018 -7.626599
v 11.380340 17.429018 -6.859180
v 12.147760 17.429019 -6.541304
v 12.915178 17.429019 -6.859180
v 13.233053 17.429019 -7.626600
v 12.147760 12.674035 -7.626599
v 12.147760 17.676730 -7.626599
vt 0.217142 0.758873
vt 0.217142 0.816968
vt 0.833353 0.816968
vt 0.305172 0.758873
vt 0.305172 0.816968
vt 0.393202 0.758873
vt 0.393202 0.816968
vt 0.481232 0.758873
vt 0.481232 0.816968
vt 0.569262 0.816968
vt 0.657292 0.816968
vt 0.745323 0.816968
vt 0.217142 0.900917
vt 0.833353 0.900917
vt 0.305172 0.900917
vt 0.393202 0.900917
vt 0.481232 0.900917
vt 0.569262 0.900917
vt 0.657292 0.900917
vt 0.745323 0.900917
vt 0.938661 0.901000
vt 0.310218 0.901000
vt 0.848883 0.901000
vt 0.759106 0.901000
vt 0.669328 0.901000
vt 0.579551 0.901000
vt 0.489773 0.901000
vt 0.399995 0.901000
vt 0.938661 0.817050
vt 0.310218 0.817051
vt 0.848883 0.817051
vt 0.759106 0.817051
vt 0.669328 0.817050
vt 0.579551 0.817051
vt 0.489773 0.817051
vt 0.399995 0.817051
vt 0.938661 0.758955
vt 0.848883 0.758955
vt 0.759106 0.758955
vt 0.669328 0.758955
vt 0.579551 0.758955
vt 0.835282 0.885989
vt 0.774819 0.847434
vt 0.921383 0.758873
vt 0.921383 0.816968
vt 0.921383 0.900917
vt 0.220440 0.901000
vt 0.220440 0.817051
vt 0.833353 0.758873
vt 0.569262 0.758873
vt 0.657292 0.758873
vt 0.835282 0.754351
vt 0.745323 0.758873
vt 0.220440 0.758955
vt 0.489773 0.758955
vt 0.895744 0.847434
vt 0.399995 0.758955
vt 0.310218 0.758955
vt 0.920789 0.754351
vt 0.799401 0.007773
vt 0.095767 0.007773
vt 0.095767 0.089898
vt 0.799401 0.089898
vt 0.196286 0.007773
vt 0.196286 0.089898
vt 0.296805 0.007773
vt 0.296805 0.089898
vt 0.397324 0.007773
vt 0.397324 0.089898
vt 0.497844 0.007773
vt 0.497844 0.089898
vt 0.598363 0.007773
vt 0.598363 0.089898
vt 0.698882 0.007773
vt 0.698882 0.089898
vt 0.899921 0.007773
vt 0.899921 0.089898
vt 0.895744 0.661269
vt 0.835282 0.622712
vt 0.774819 0.661269
vt 0.749775 0.754351
vt 0.774819 0.847434
vt 0.835282 0.885989
vt 0.835282 0.754351
vt 0.895744 0.847434
vt 0.920789 0.754351
vt 0.895744 0.661269
vt 0.835282 0.622712
vt 0.774819 0.661269
vt 0.749775 0.754351
vn 0.304762 -0.902353 -0.304762
vn 0.000000 -0.902353 -0.430998
vn 0.000000 -0.626422 -0.779484
vn 0.551179 -0.626421 -0.551179
vn -0.304761 -0.902353 -0.304762
vn -0.551179 -0.626422 -0.551179
vn -0.430998 -0.902353 0.000000
vn -0.779484 -0.626422 0.000000
vn -0.304761 -0.902353 0.304762
vn -0.551178 -0.626422 0.551179
vn 0.000000 -0.902353 0.430998
vn 0.000000 -0.626422 0.779484
vn 0.304762 -0.902353 0.304762
vn 0.551179 -0.626421 0.551179
vn 0.430998 -0.902353 -0.000000
vn 0.779485 -0.626421 -0.000000
vn -0.000000 -0.224077 -0.974572
vn 0.689126 -0.224077 -0.689126
vn -0.689126 -0.224077 -0.689126
vn -0.974572 -0.224076 0.000000
vn -0.689126 -0.224077 0.689126
vn 0.000000 -0.224077 0.974571
vn 0.689126 -0.224076 0.689126
vn 0.974572 -0.224076 -0.000000
vn -0.000000 0.224077 -0.974571
vn 0.689126 0.224077 -0.689126
vn -0.689126 0.224077 -0.689126
vn -0.974572 0.224076 0.000000
vn -0.689126 0.224077 0.689126
vn 0.000000 0.224077 0.974571
vn 0.689126 0.224077 0.689126
vn 0.974572 0.224077 -0.000000
vn -0.000000 0.626422 -0.779484
vn 0.551178 0.626422 -0.551179
vn -0.551179 0.626421 -0.551179
vn -0.779485 0.626421 0.000000
vn -0.551179 0.626422 0.551179
vn 0.000000 0.626422 0.779484
vn 0.551179 0.626422 0.551179
vn 0.779484 0.626422 -0.000000
vn -0.000000 0.902353 -0.430998
vn 0.304761 0.902353 -0.304762
vn -0.304762 0.902353 -0.304762
vn -0.430998 0.902353 -0.000000
vn -0.304762 0.902353 0.304762
vn -0.000000 0.902353 0.430998
vn 0.304761 0.902353 0.304762
vn 0.430998 0.902353 -0.000000
vn 0.000000 -1.000000 -0.000000
vn -0.000000 1.000000 -0.000000
s 1
g pSphere12 group41
usemtl plateWall1
f 1/49/1 2/44/2 10/45/3 9/3/4
f 2/1/2 3/4/5 11/5/6 10/2/3
f 3/4/5 4/6/7 12/7/8 11/5/6
f 4/6/7 5/8/9 13/9/10 12/7/8
f 5/8/9 6/50/11 14/10/12 13/9/10
f 6/50/11 7/51/13 15/11/14 14/10/12
f 7/51/13 8/53/15 16/12/16 15/11/14
f 8/53/15 1/49/1 9/3/4 16/12/16
f 9/3/4 10/45/3 18/46/17 17/14/18
f 10/2/3 11/5/6 19/15/19 18/13/17
f 11/5/6 12/7/8 20/16/20 19/15/19
f 12/7/8 13/9/10 21/17/21 20/16/20
f 13/9/10 14/10/12 22/18/22 21/17/21
f 14/10/12 15/11/14 23/19/23 22/18/22
f 15/11/14 16/12/16 24/20/24 23/19/23
f 16/12/16 9/3/4 17/14/18 24/20/24
f 17/60/18 18/76/17 26/77/25 25/63/26
f 18/61/17 19/64/19 27/65/27 26/62/25
f 19/64/19 20/66/20 28/67/28 27/65/27
f 20/66/20 21/68/21 29/69/29 28/67/28
f 21/68/21 22/70/22 30/71/30 29/69/29
f 22/70/22 23/72/23 31/73/31 30/71/30
f 23/72/23 24/74/24 32/75/32 31/73/31
f 24/74/24 17/60/18 25/63/26 32/75/32
f 25/22/26 26/47/25 34/48/33 33/30/34
f 26/21/25 27/23/27 35/31/35 34/29/33
f 27/23/27 28/24/28 36/32/36 35/31/35
f 28/24/28 29/25/29 37/33/37 36/32/36
f 29/25/29 30/26/30 38/34/38 37/33/37
f 30/26/30 31/27/31 39/35/39 38/34/38
f 31/27/31 32/28/32 40/36/40 39/35/39
f 32/28/32 25/22/26 33/30/34 40/36/40
f 33/30/34 34/48/33 42/54/41 41/58/42
f 34/29/33 35/31/35 43/38/43 42/37/41
f 35/31/35 36/32/36 44/39/44 43/38/43
f 36/32/36 37/33/37 45/40/45 44/39/44
f 37/33/37 38/34/38 46/41/46 45/40/45
f 38/34/38 39/35/39 47/55/47 46/41/46
f 39/35/39 40/36/40 48/57/48 47/55/47
f 40/36/40 33/30/34 41/58/42 48/57/48
usemtl composite
f 2/42/2 1/43/1 49/52/49
f 3/56/5 2/42/2 49/52/49
f 4/59/7 3/56/5 49/52/49
f 5/78/9 4/59/7 49/52/49
f 6/79/11 5/78/9 49/52/49
f 7/80/13 6/79/11 49/52/49
f 8/81/15 7/80/13 49/52/49
f 1/43/1 8/81/15 49/52/49
f 41/82/42 42/83/41 50/84/50
f 42/83/41 43/85/43 50/84/50
f 43/85/43 44/86/44 50/84/50
f 44/86/44 45/87/45 50/84/50
f 45/87/45 46/88/46 50/84/50
f 46/88/46 47/89/47 50/84/50
f 47/89/47 48/90/48 50/84/50
f 48/90/48 41/82/42 50/84/50
g default
v 13.197077 8.776471 -8.659254
v 12.164422 8.776471 -9.086993
v 11.131767 8.776471 -8.659254
v 10.704027 8.776471 -7.626599
v 11.131767 8.776471 -6.593943
v 12.164422 8.776471 -6.166204
v 13.197077 8.776471 -6.593943
v 13.624817 8.776471 -7.626599
v 12.897800 9.701341 -8.359976
v 12.164422 9.701341 -8.663751
v 11.431044 9.701341 -8.359976
v 11.127269 9.701341 -7.626599
v 11.431044 9.701341 -6.893221
v 12.164422 9.701341 -6.589446
v 12.897800 9.701341 -6.893221
v 13.201575 9.701341 -7.626599
v 12.164422 8.776471 -7.626599
v 12.164422 9.701341 -7.626599
vt 0.642619 0.438397
vt 0.431673 0.438397
vt 0.431673 0.514595
vt 0.642619 0.514595
vt 0.220726 0.438397
vt 0.220726 0.514595
vt 0.133349 0.438397
vt 0.133349 0.514595
vt 0.220726 0.438397
vt 0.220726 0.514595
vt 0.431673 0.438397
vt 0.431673 0.514595
vt 0.642619 0.438397
vt 0.642619 0.514595
vt 0.729996 0.438397
vt 0.729996 0.514595
vt 0.368491 0.302417
vt 0.481615 0.277401
vt 0.368491 0.217007
vt 0.255367 0.277401
vt 0.208509 0.217007
vt 0.255367 0.156613
vt 0.368491 0.131597
vt 0.481615 0.156613
vt 0.528472 0.217007
vt 0.481615 0.277401
vt 0.368491 0.302417
vt 0.368491 0.217007
vt 0.255367 0.277401
vt 0.208509 0.217007
vt 0.255367 0.156613
vt 0.368491 0.131597
vt 0.481615 0.156613
vt 0.528472 0.217007
vn 0.642979 0.416121 -0.642979
vn 0.000000 0.416121 -0.909309
vn 0.000000 0.416121 -0.909309
vn 0.642979 0.416121 -0.642979
vn -0.642979 0.416121 -0.642979
vn -0.642979 0.416121 -0.642979
vn -0.909309 0.416121 -0.000000
vn -0.909309 0.416121 -0.000000
vn -0.642979 0.416121 0.642979
vn -0.642979 0.416121 0.642979
vn 0.000000 0.416121 0.909309
vn 0.000000 0.416121 0.909309
vn 0.642979 0.416121 0.642979
vn 0.642979 0.416121 0.642979
vn 0.909309 0.416121 0.000000
vn 0.909309 0.416121 0.000000
vn -0.000000 -1.000000 0.000000
vn -0.000000 -1.000000 0.000000
vn -0.000000 -1.000000 0.000000
vn -0.000000 -1.000000 0.000000
vn -0.000000 -1.000000 0.000000
vn -0.000000 -1.000000 0.000000
vn -0.000000 -1.000000 0.000000
vn -0.000000 -1.000000 0.000000
vn -0.000000 -1.000000 0.000000
vn 0.000000 1.000000 0.000000
vn 0.000000 1.000000 0.000000
vn 0.000000 1.000000 0.000000
vn 0.000000 1.000000 0.000000
vn 0.000000 1.000000 0.000000
vn 0.000000 1.000000 -0.000000
vn 0.000000 1.000000 0.000000
vn 0.000000 1.000000 0.000000
vn 0.000000 1.000000 0.000000
s 1
g group41 pCylinder33
usemtl platewall2
f 51/91/51 52/92/52 60/93/53 59/94/54
f 52/92/52 53/95/55 61/96/56 60/93/53
f 53/95/55 54/97/57 62/98/58 61/96/56
f 54/97/57 55/99/59 63/100/60 62/98/58
f 55/99/59 56/101/61 64/102/62 63/100/60
f 56/101/61 57/103/63 65/104/64 64/102/62
f 57/103/63 58/105/65 66/106/66 65/104/64
f 58/105/65 51/91/51 59/94/54 66/106/66
s 2
f 52/107/67 51/108/68 67/109/69
f 53/110/70 52/107/67 67/109/69
f 54/111/71 53/110/70 67/109/69
f 55/112/72 54/111/71 67/109/69
f 56/113/73 55/112/72 67/109/69
f 57/114/74 56/113/73 67/109/69
f 58/115/75 57/114/74 67/109/69
f 51/108/68 58/115/75 67/109/69
s 3
f 59/116/76 60/117/77 68/118/78
f 60/117/77 61/119/79 68/118/78
f 61/119/79 62/120/80 68/118/78
f 62/120/80 63/121/81 68/118/78
f 63/121/81 64/122/82 68/118/78
f 64/122/82 65/123/83 68/118/78
f 65/123/83 66/124/84 68/118/78
f 66/124/84 59/116/76 68/118/78
g default
v 12.717834 8.858119 -7.973693
v 12.518305 8.858119 -8.078547
v 11.662448 8.858119 -8.076002
v 11.463842 8.858119 -7.626599
v 11.662448 8.858119 -7.177196
v 12.518305 8.858119 -7.174650
v 12.717834 8.858119 -7.279504
v 12.809968 8.858119 -7.626599
v 12.717834 13.890311 -7.973693
v 12.518305 13.890311 -8.078547
v 11.662448 13.890311 -8.076002
v 11.463842 13.890311 -7.626599
v 11.662448 13.890311 -7.177196
v 12.518305 13.890311 -7.174650
v 12.717834 13.890311 -7.279504
v 12.809968 13.890311 -7.626599
v 12.141927 8.858119 -7.626599
v 12.141927 13.890311 -7.626599
vt 0.111239 -0.002965
vt 0.111239 0.005241
vt 1.005233 0.005241
vt 1.005233 -0.002965
vt 0.111239 0.056654
vt 1.005233 0.056654
vt 0.111239 0.088240
vt 1.005233 0.088240
vt 0.111239 0.056654
vt 1.005233 0.056654
vt 0.111239 0.005241
vt 1.005233 0.005241
vt 0.111239 -0.002965
vt 1.005233 -0.002965
vt 0.111239 -0.033520
vt 1.005233 -0.033520
vt 0.111239 0.027851
vt 1.005233 0.027851
vn 0.775489 0.000000 -0.631361
vn 0.236347 0.000000 -0.971669
vn 0.236347 0.000000 -0.971669
vn 0.775489 0.000000 -0.631361
vn -0.532079 0.000000 -0.846695
vn -0.532079 0.000000 -0.846695
vn -1.000000 0.000000 0.000000
vn -1.000000 0.000000 0.000000
vn -0.532079 0.000000 0.846695
vn -0.532079 0.000000 0.846695
vn 0.236346 0.000000 0.971669
vn 0.236346 0.000000 0.971669
vn 0.775489 0.000000 0.631361
vn 0.775489 0.000000 0.631361
vn 1.000000 0.000000 -0.000000
vn 1.000000 0.000000 -0.000000
vn 0.000000 -1.000000 -0.000001
vn 0.000000 -1.000000 0.000000
vn 0.000000 -1.000000 -0.000000
vn 0.000000 -1.000000 0.000000
vn 0.000000 -1.000000 0.000000
vn 0.000000 -1.000000 -0.000000
vn 0.000000 -1.000000 0.000000
vn 0.000000 -1.000000 -0.000001
vn 0.000000 -1.000000 0.000000
vn 0.000000 1.000000 0.000000
vn 0.000000 1.000000 0.000000
vn 0.000000 1.000000 0.000000
vn 0.000000 1.000000 0.000000
vn 0.000000 1.000000 0.000000
vn 0.000000 1.000000 0.000000
vn 0.000000 1.000000 0.000000
vn 0.000000 1.000000 0.000000
vn 0.000000 1.000000 0.000000
s 1
g group41 pCylinder34
usemtl platewall2
f 69/125/85 70/126/86 78/127/87 77/128/88
f 70/126/86 71/129/89 79/130/90 78/127/87
f 71/129/89 72/131/91 80/132/92 79/130/90
f 72/131/91 73/133/93 81/134/94 80/132/92
f 73/133/93 74/135/95 82/136/96 81/134/94
f 74/135/95 75/137/97 83/138/98 82/136/96
f 75/137/97 76/139/99 84/140/100 83/138/98
f 76/139/99 69/125/85 77/128/88 84/140/100
s 2
f 70/126/101 69/125/102 85/141/103
f 71/129/104 70/126/101 85/141/103
f 72/131/105 71/129/104 85/141/103
f 73/133/106 72/131/105 85/141/103
f 74/135/107 73/133/106 85/141/103
f 75/137/108 74/135/107 85/141/103
f 76/139/109 75/137/108 85/141/103
f 69/125/102 76/139/109 85/141/103
s 3
f 77/128/110 78/127/111 86/142/112
f 78/127/111 79/130/113 86/142/112
f 79/130/113 80/132/114 86/142/112
f 80/132/114 81/134/115 86/142/112
f 81/134/115 82/136/116 86/142/112
f 82/136/116 83/138/117 86/142/112
f 83/138/117 84/140/118 86/142/112
f 84/140/118 77/128/110 86/142/112
