# This file uses centimeters as units for non-parametric coordinates.

mtllib telescope.mtl
g default
v 12.827667 14.540530 5.243578
v 12.016383 14.644756 5.243578
v 11.369019 14.144790 5.243578
v 11.264793 13.333506 5.243578
v 11.764759 12.686142 5.243578
v 12.576043 12.581916 5.243578
v 13.223406 13.081882 5.243578
v 13.327632 13.893167 5.243578
v 13.253860 15.284080 5.927043
v 11.791977 15.471888 5.927042
v 10.625468 14.570982 5.927042
v 10.437660 13.109100 5.927042
v 11.338566 11.942592 5.927042
v 12.800449 11.754785 5.927042
v 13.966957 12.655691 5.927043
v 14.154766 14.117573 5.927043
v 13.490378 15.696721 6.914672
v 11.667441 15.930915 6.914671
v 10.212829 14.807502 6.914671
v 9.978635 12.984563 6.914671
v 11.102047 11.529952 6.914671
v 12.924985 11.295758 6.914671
v 14.379597 12.419171 6.914672
v 14.613790 14.242109 6.914675
v 13.490378 15.696721 8.010863
v 11.667441 15.930915 8.010862
v 10.212829 14.807502 8.010862
v 9.978635 12.984563 8.010861
v 11.102047 11.529952 8.010862
v 12.924985 11.295758 8.010862
v 14.379597 12.419171 8.010863
v 14.613790 14.242109 8.010866
v 13.253860 15.284080 8.998492
v 11.791977 15.471888 8.998491
v 10.625468 14.570982 8.998491
v 10.437660 13.109100 8.998490
v 11.338566 11.942592 8.998491
v 12.800449 11.754785 8.998491
v 13.966957 12.655691 8.998492
v 14.154766 14.117573 8.998492
v 12.827667 14.540530 9.681956
v 12.016383 14.644756 9.681955
v 11.369019 14.144790 9.681955
v 11.264793 13.333506 9.681955
v 11.764759 12.686142 9.681955
v 12.576043 12.581916 9.681955
v 13.223406 13.081882 9.681956
v 13.327632 13.893167 9.681956
v 12.296213 13.613336 4.999653
v 12.296213 13.613336 9.925880
vt 0.217142 0.758873
vt 0.217142 0.816968
vt 0.833353 0.816968
vt 0.305172 0.758873
vt 0.305172 0.816968
vt 0.393202 0.758873
vt 0.393202 0.816968
vt 0.481232 0.758873
vt 0.481232 0.816968
vt 0.569262 0.816968
vt 0.657292 0.816968
vt 0.745323 0.816968
vt 0.217142 0.900917
vt 0.833353 0.900917
vt 0.305172 0.900917
vt 0.393202 0.900917
vt 0.481232 0.900917
vt 0.569262 0.900917
vt 0.657292 0.900917
vt 0.745323 0.900917
vt 0.938661 0.901000
vt 0.310218 0.901000
vt 0.848883 0.901000
vt 0.759106 0.901000
vt 0.669328 0.901000
vt 0.579551 0.901000
vt 0.489773 0.901000
vt 0.399995 0.901000
vt 0.938661 0.817050
vt 0.310218 0.817051
vt 0.848883 0.817051
vt 0.759106 0.817051
vt 0.669328 0.817050
vt 0.579551 0.817051
vt 0.489773 0.817051
vt 0.399995 0.817051
vt 0.938661 0.758955
vt 0.848883 0.758955
vt 0.759106 0.758955
vt 0.669328 0.758955
vt 0.579551 0.758955
vt 0.835282 0.885989
vt 0.774819 0.847434
vt 0.921383 0.758873
vt 0.921383 0.816968
vt 0.921383 0.900917
vt 0.220440 0.901000
vt 0.220440 0.817051
vt 0.833353 0.758873
vt 0.569262 0.758873
vt 0.657292 0.758873
vt 0.835282 0.754351
vt 0.745323 0.758873
vt 0.220440 0.758955
vt 0.489773 0.758955
vt 0.895744 0.847434
vt 0.399995 0.758955
vt 0.310218 0.758955
vt 0.920789 0.754351
vt 0.799401 0.007773
vt 0.095767 0.007773
vt 0.095767 0.089898
vt 0.799401 0.089898
vt 0.196286 0.007773
vt 0.196286 0.089898
vt 0.296805 0.007773
vt 0.296805 0.089898
vt 0.397324 0.007773
vt 0.397324 0.089898
vt 0.497844 0.007773
vt 0.497844 0.089898
vt 0.598363 0.007773
vt 0.598363 0.089898
vt 0.698882 0.007773
vt 0.698882 0.089898
vt 0.899921 0.007773
vt 0.899921 0.089898
vt 0.895744 0.661269
vt 0.835282 0.622712
vt 0.774819 0.661269
vt 0.749775 0.754351
vt 0.774819 0.847434
vt 0.835282 0.885989
vt 0.835282 0.754351
vt 0.895744 0.847434
vt 0.920789 0.754351
vt 0.895744 0.661269
vt 0.835282 0.622712
vt 0.774819 0.661269
vt 0.749775 0.754351
vn 0.214330 0.373928 -0.902353
vn -0.112853 0.415961 -0.902353
vn -0.204100 0.752289 -0.626422
vn 0.387628 0.676270 -0.626421
vn -0.373927 0.214330 -0.902353
vn -0.676269 0.387628 -0.626422
vn -0.415961 -0.112852 -0.902353
vn -0.752289 -0.204100 -0.626422
vn -0.214329 -0.373928 -0.902353
vn -0.387628 -0.676270 -0.626422
vn 0.112853 -0.415961 -0.902353
vn 0.204101 -0.752289 -0.626422
vn 0.373928 -0.214330 -0.902353
vn 0.676270 -0.387628 -0.626421
vn 0.415961 0.112853 -0.902353
vn 0.752290 0.204101 -0.626421
vn -0.255182 0.940570 -0.224077
vn 0.484643 0.845524 -0.224076
vn -0.845524 0.484642 -0.224077
vn -0.940570 -0.255182 -0.224076
vn -0.484642 -0.845524 -0.224077
vn 0.255182 -0.940570 -0.224077
vn 0.845525 -0.484642 -0.224076
vn 0.940570 0.255182 -0.224076
vn -0.255182 0.940570 0.224077
vn 0.484642 0.845524 0.224077
vn -0.845524 0.484642 0.224077
vn -0.940570 -0.255182 0.224076
vn -0.484642 -0.845524 0.224077
vn 0.255182 -0.940570 0.224077
vn 0.845524 -0.484642 0.224077
vn 0.940570 0.255182 0.224077
vn -0.204101 0.752289 0.626422
vn 0.387628 0.676270 0.626422
vn -0.676270 0.387628 0.626421
vn -0.752289 -0.204100 0.626421
vn -0.387628 -0.676270 0.626422
vn 0.204101 -0.752289 0.626422
vn 0.676269 -0.387628 0.626422
vn 0.752289 0.204100 0.626422
vn -0.112853 0.415961 0.902353
vn 0.214330 0.373928 0.902353
vn -0.373928 0.214330 0.902353
vn -0.415961 -0.112853 0.902353
vn -0.214330 -0.373928 0.902353
vn 0.112852 -0.415961 0.902353
vn 0.373927 -0.214330 0.902353
vn 0.415961 0.112853 0.902353
vn 0.000000 0.000000 -1.000000
vn -0.000000 -0.000000 1.000000
s 1
g pSphere12 group32
usemtl plateWall1
f 1/49/1 2/44/2 10/45/3 9/3/4
f 2/1/2 3/4/5 11/5/6 10/2/3
f 3/4/5 4/6/7 12/7/8 11/5/6
f 4/6/7 5/8/9 13/9/10 12/7/8
f 5/8/9 6/50/11 14/10/12 13/9/10
f 6/50/11 7/51/13 15/11/14 14/10/12
f 7/51/13 8/53/15 16/12/16 15/11/14
f 8/53/15 1/49/1 9/3/4 16/12/16
f 9/3/4 10/45/3 18/46/17 17/14/18
f 10/2/3 11/5/6 19/15/19 18/13/17
f 11/5/6 12/7/8 20/16/20 19/15/19
f 12/7/8 13/9/10 21/17/21 20/16/20
f 13/9/10 14/10/12 22/18/22 21/17/21
f 14/10/12 15/11/14 23/19/23 22/18/22
f 15/11/14 16/12/16 24/20/24 23/19/23
f 16/12/16 9/3/4 17/14/18 24/20/24
f 17/60/18 18/76/17 26/77/25 25/63/26
f 18/61/17 19/64/19 27/65/27 26/62/25
f 19/64/19 20/66/20 28/67/28 27/65/27
f 20/66/20 21/68/21 29/69/29 28/67/28
f 21/68/21 22/70/22 30/71/30 29/69/29
f 22/70/22 23/72/23 31/73/31 30/71/30
f 23/72/23 24/74/24 32/75/32 31/73/31
f 24/74/24 17/60/18 25/63/26 32/75/32
f 25/22/26 26/47/25 34/48/33 33/30/34
f 26/21/25 27/23/27 35/31/35 34/29/33
f 27/23/27 28/24/28 36/32/36 35/31/35
f 28/24/28 29/25/29 37/33/37 36/32/36
f 29/25/29 30/26/30 38/34/38 37/33/37
f 30/26/30 31/27/31 39/35/39 38/34/38
f 31/27/31 32/28/32 40/36/40 39/35/39
f 32/28/32 25/22/26 33/30/34 40/36/40
f 33/30/34 34/48/33 42/54/41 41/58/42
f 34/29/33 35/31/35 43/38/43 42/37/41
f 35/31/35 36/32/36 44/39/44 43/38/43
f 36/32/36 37/33/37 45/40/45 44/39/44
f 37/33/37 38/34/38 46/41/46 45/40/45
f 38/34/38 39/35/39 47/55/47 46/41/46
f 39/35/39 40/36/40 48/57/48 47/55/47
f 40/36/40 33/30/34 41/58/42 48/57/48
usemtl composite
f 2/42/2 1/43/1 49/52/49
f 3/56/5 2/42/2 49/52/49
f 4/59/7 3/56/5 49/52/49
f 5/78/9 4/59/7 49/52/49
f 6/79/11 5/78/9 49/52/49
f 7/80/13 6/79/11 49/52/49
f 8/81/15 7/80/13 49/52/49
f 1/43/1 8/81/15 49/52/49
f 41/82/42 42/83/41 50/84/50
f 42/83/41 43/85/43 50/84/50
f 43/85/43 44/86/44 50/84/50
f 44/86/44 45/87/45 50/84/50
f 45/87/45 46/88/46 50/84/50
f 46/88/46 47/89/47 50/84/50
f 47/89/47 48/90/48 50/84/50
f 48/90/48 41/82/42 50/84/50
g default
v 13.698099 13.568259 7.022175
v 13.582735 13.993478 6.839677
v 13.467370 14.418697 7.022175
v 13.419585 14.594829 7.462766
v 13.467370 14.418697 7.903357
v 13.582735 13.993478 8.085856
v 13.698099 13.568259 7.903357
v 13.745884 13.392127 7.462766
v 18.475361 14.864358 7.022175
v 18.359997 15.289577 6.839677
v 18.244632 15.714796 7.022175
v 18.196847 15.890927 7.462766
v 18.244632 15.714796 7.903357
v 18.359997 15.289577 8.085856
v 18.475361 14.864358 7.903357
v 18.523146 14.688226 7.462766
v 13.582735 13.993478 7.462766
v 18.359997 15.289577 7.462766
vt 0.565488 0.062889
vt 0.565488 0.039889
vt -0.017928 0.039889
vt -0.017928 0.062889
vt 0.565488 0.016889
vt -0.017928 0.016889
vt 0.565488 0.035815
vt -0.017928 0.035815
vt 0.565488 0.016889
vt -0.017928 0.016889
vt 0.565488 0.039889
vt -0.017928 0.039889
vt 0.565488 0.062889
vt -0.017928 0.062889
vt 0.565488 0.043963
vt -0.017928 0.043963
vt 0.565488 0.039889
vt -0.017928 0.039889
vn 0.185149 -0.682437 -0.707107
vn -0.000000 0.000000 -1.000000
vn -0.000000 0.000000 -1.000000
vn 0.185149 -0.682437 -0.707107
vn -0.185149 0.682437 -0.707107
vn -0.185149 0.682437 -0.707107
vn -0.261840 0.965111 -0.000000
vn -0.261840 0.965111 -0.000000
vn -0.185149 0.682437 0.707107
vn -0.185149 0.682437 0.707107
vn -0.000000 0.000000 1.000000
vn -0.000000 0.000000 1.000000
vn 0.185149 -0.682437 0.707107
vn 0.185149 -0.682437 0.707107
vn 0.261840 -0.965111 0.000000
vn 0.261840 -0.965111 0.000000
vn -0.965111 -0.261840 -0.000000
vn -0.965111 -0.261840 -0.000001
vn -0.965111 -0.261840 -0.000000
vn -0.965111 -0.261840 0.000001
vn -0.965111 -0.261840 -0.000000
vn -0.965111 -0.261840 -0.000001
vn -0.965111 -0.261840 -0.000000
vn -0.965111 -0.261840 -0.000000
vn -0.965111 -0.261840 -0.000001
vn 0.965111 0.261840 0.000000
vn 0.965111 0.261840 0.000000
vn 0.965111 0.261840 0.000000
vn 0.965111 0.261840 0.000000
vn 0.965111 0.261840 0.000000
vn 0.965111 0.261840 0.000000
vn 0.965111 0.261840 0.000000
vn 0.965111 0.261840 -0.000000
vn 0.965111 0.261840 0.000000
s 1
g pSphere12 group32 pCylinder32
usemtl plateWall1
f 51/91/51 52/92/52 60/93/53 59/94/54
f 52/92/52 53/95/55 61/96/56 60/93/53
f 53/95/55 54/97/57 62/98/58 61/96/56
f 54/97/57 55/99/59 63/100/60 62/98/58
f 55/99/59 56/101/61 64/102/62 63/100/60
f 56/101/61 57/103/63 65/104/64 64/102/62
f 57/103/63 58/105/65 66/106/66 65/104/64
f 58/105/65 51/91/51 59/94/54 66/106/66
s 2
f 52/92/67 51/91/68 67/107/69
f 53/95/70 52/92/67 67/107/69
f 54/97/71 53/95/70 67/107/69
f 55/99/72 54/97/71 67/107/69
f 56/101/73 55/99/72 67/107/69
f 57/103/74 56/101/73 67/107/69
f 58/105/75 57/103/74 67/107/69
f 51/91/68 58/105/75 67/107/69
s 3
f 59/94/76 60/93/77 68/108/78
f 60/93/77 61/96/79 68/108/78
f 61/96/79 62/98/80 68/108/78
f 62/98/80 63/100/81 68/108/78
f 63/100/81 64/102/82 68/108/78
f 64/102/82 65/104/83 68/108/78
f 65/104/83 66/106/84 68/108/78
f 66/106/84 59/94/76 68/108/78
g default
v 21.944431 17.039255 6.707803
v 22.142110 16.310631 6.395087
v 22.339790 15.582008 6.707803
v 22.421672 15.280202 7.462766
v 22.339790 15.582008 8.217730
v 22.142110 16.310631 8.530446
v 21.944431 17.039255 8.217730
v 21.862549 17.341061 7.462766
v 19.300126 16.321840 6.707803
v 19.497806 15.593216 6.395087
v 19.695486 14.864593 6.707803
v 19.777368 14.562787 7.462766
v 19.695486 14.864593 8.217730
v 19.497806 15.593216 8.530446
v 19.300126 16.321840 8.217730
v 19.218245 16.623646 7.462766
v 22.481441 16.402694 7.462766
v 19.497806 15.593216 7.462766
vt 0.997761 0.845298
vt 0.997761 0.783367
vt 0.830637 0.783367
vt 0.830637 0.845298
vt 0.997761 0.721437
vt 0.830637 0.721437
vt 0.997761 0.695785
vt 0.830637 0.695785
vt 0.997761 0.721437
vt 0.830637 0.721437
vt 0.997761 0.783367
vt 0.830637 0.783367
vt 0.997761 0.845298
vt 0.830637 0.845298
vt 0.997761 0.884086
vt 0.830637 0.884086
vt 0.932324 0.500002
vt 0.830637 0.783367
vt 0.805700 0.821055
vt 0.500000 0.500002
vt 0.805700 0.178949
vt 0.500000 0.045964
vt 0.194300 0.178949
vt 0.067676 0.500002
vt 0.194300 0.821055
vt 0.500000 0.954038
vn -0.185149 0.682437 -0.707107
vn 0.000000 -0.000000 -1.000000
vn 0.000000 -0.000000 -1.000000
vn -0.185149 0.682437 -0.707107
vn 0.185149 -0.682437 -0.707107
vn 0.185149 -0.682437 -0.707107
vn 0.261840 -0.965111 -0.000000
vn 0.261840 -0.965111 -0.000000
vn 0.185149 -0.682437 0.707107
vn 0.185149 -0.682437 0.707107
vn -0.000000 0.000000 1.000000
vn -0.000000 0.000000 1.000000
vn -0.185149 0.682437 0.707107
vn -0.185149 0.682437 0.707107
vn -0.261840 0.965111 -0.000000
vn -0.261840 0.965111 -0.000000
vn 0.916685 0.248702 -0.312786
vn 0.858773 0.462159 -0.221173
vn 0.965111 0.261840 0.000000
vn 0.974598 0.035245 -0.221173
vn 0.998585 -0.053171 0.000000
vn 0.974598 0.035245 0.221173
vn 0.916685 0.248702 0.312786
vn 0.858773 0.462159 0.221173
vn 0.834785 0.550575 0.000000
vn -0.965111 -0.261840 -0.000000
vn -0.965111 -0.261840 -0.000000
vn -0.965111 -0.261840 -0.000000
vn -0.965111 -0.261840 -0.000000
vn -0.965111 -0.261840 -0.000000
vn -0.965111 -0.261840 -0.000000
vn -0.965111 -0.261840 -0.000000
vn -0.965111 -0.261840 -0.000000
vn -0.965111 -0.261840 -0.000000
s 1
g pSphere12 group32 pCylinder32 pCylinder35
usemtl plateWall1
f 69/109/85 70/110/86 78/111/87 77/112/88
f 70/110/86 71/113/89 79/114/90 78/111/87
f 71/113/89 72/115/91 80/116/92 79/114/90
f 72/115/91 73/117/93 81/118/94 80/116/92
f 73/117/93 74/119/95 82/120/96 81/118/94
f 74/119/95 75/121/97 83/122/98 82/120/96
f 75/121/97 76/123/99 84/124/100 83/122/98
f 76/123/99 69/109/85 77/112/88 84/124/100
s 2
usemtl lens
f 70/125/101 69/127/102 85/128/103
f 71/129/104 70/125/101 85/128/103
f 72/130/105 71/129/104 85/128/103
f 73/131/106 72/130/105 85/128/103
f 74/132/107 73/131/106 85/128/103
f 75/133/108 74/132/107 85/128/103
f 76/134/109 75/133/108 85/128/103
f 69/127/102 76/134/109 85/128/103
s 3
usemtl plateWall1
f 77/112/110 78/111/111 86/126/112
f 78/111/111 79/114/113 86/126/112
f 79/114/113 80/116/114 86/126/112
f 80/116/114 81/118/115 86/126/112
f 81/118/115 82/120/116 86/126/112
f 82/120/116 83/122/117 86/126/112
f 83/122/117 84/124/118 86/126/112
f 84/124/118 77/112/110 86/126/112
g default
v 19.577201 16.250108 6.849581
v 19.737757 15.658316 6.595592
v 19.898314 15.066525 6.849581
v 19.964819 14.821397 7.462766
v 19.898314 15.066525 8.075951
v 19.737757 15.658316 8.329940
v 19.577201 16.250108 8.075951
v 19.510696 16.495236 7.462766
v 16.097782 15.306121 6.849581
v 16.258338 14.714330 6.595592
v 16.418895 14.122538 6.849581
v 16.485399 13.877410 7.462766
v 16.418895 14.122538 8.075951
v 16.258338 14.714330 8.329940
v 16.097782 15.306121 8.075951
v 16.031277 15.551249 7.462766
v 19.737757 15.658316 7.462766
v 16.258338 14.714330 7.462766
vt 0.691383 0.342375
vt 0.691383 0.280445
vt 0.238113 0.280445
vt 0.238113 0.342375
vt 0.691383 0.218514
vt 0.238113 0.218514
vt 0.691383 0.192862
vt 0.238113 0.192862
vt 0.691383 0.218514
vt 0.238113 0.218514
vt 0.691383 0.280445
vt 0.238113 0.280445
vt 0.691383 0.342375
vt 0.238113 0.342375
vt 0.691383 0.381163
vt 0.238113 0.381163
vt 0.262552 0.613214
vt 0.238113 0.280445
vt 0.228655 0.694908
vt 0.146823 0.613214
vt 0.228655 0.531521
vt 0.146823 0.497682
vt 0.228104 0.531521
vt 0.263160 0.613214
vt 0.228104 0.694908
vt 0.146823 0.728746
vn -0.185149 0.682437 -0.707107
vn 0.000000 -0.000000 -1.000000
vn 0.000000 -0.000000 -1.000000
vn -0.185149 0.682437 -0.707107
vn 0.185149 -0.682437 -0.707107
vn 0.185149 -0.682437 -0.707107
vn 0.261840 -0.965111 0.000000
vn 0.261840 -0.965111 0.000000
vn 0.185149 -0.682437 0.707107
vn 0.185149 -0.682437 0.707107
vn 0.000000 -0.000000 1.000000
vn 0.000000 -0.000000 1.000000
vn -0.185149 0.682437 0.707107
vn -0.185149 0.682437 0.707107
vn -0.261840 0.965111 -0.000000
vn -0.261840 0.965111 -0.000000
vn 0.965111 0.261840 0.000000
vn 0.965111 0.261840 0.000000
vn 0.965111 0.261840 0.000000
vn 0.965111 0.261840 0.000000
vn 0.965111 0.261840 0.000000
vn 0.965111 0.261840 0.000000
vn 0.965111 0.261840 0.000000
vn 0.965111 0.261840 0.000000
vn 0.965111 0.261840 0.000000
vn -0.965111 -0.261840 -0.000000
vn -0.965111 -0.261840 -0.000000
vn -0.965111 -0.261840 0.000000
vn -0.965111 -0.261840 -0.000000
vn -0.965111 -0.261840 -0.000000
vn -0.965111 -0.261840 -0.000000
vn -0.965111 -0.261840 -0.000000
vn -0.965111 -0.261840 0.000000
vn -0.965111 -0.261840 0.000000
s 1
g pSphere12 group32 pCylinder32 pCylinder31
usemtl plateWall1
f 87/135/119 88/136/120 96/137/121 95/138/122
f 88/136/120 89/139/123 97/140/124 96/137/121
f 89/139/123 90/141/125 98/142/126 97/140/124
f 90/141/125 91/143/127 99/144/128 98/142/126
f 91/143/127 92/145/129 100/146/130 99/144/128
f 92/145/129 93/147/131 101/148/132 100/146/130
f 93/147/131 94/149/133 102/150/134 101/148/132
f 94/149/133 87/135/119 95/138/122 102/150/134
s 2
usemtl machinery
f 88/151/135 87/153/136 103/154/137
f 89/155/138 88/151/135 103/154/137
f 90/156/139 89/155/138 103/154/137
f 91/157/140 90/156/139 103/154/137
f 92/158/141 91/157/140 103/154/137
f 93/159/142 92/158/141 103/154/137
f 94/160/143 93/159/142 103/154/137
f 87/153/136 94/160/143 103/154/137
s 3
usemtl plateWall1
f 95/138/144 96/137/145 104/152/146
f 96/137/145 97/140/147 104/152/146
f 97/140/147 98/142/148 104/152/146
f 98/142/148 99/144/149 104/152/146
f 99/144/149 100/146/150 104/152/146
f 100/146/150 101/148/151 104/152/146
f 101/148/151 102/150/152 104/152/146
f 102/150/152 95/138/144 104/152/146
g default
v 13.530509 8.770699 6.248071
v 12.315813 8.770699 5.744928
v 11.101118 8.770699 6.248071
v 10.597975 8.770699 7.462766
v 11.101118 8.770699 8.677461
v 12.315813 8.770699 9.180604
v 13.530509 8.770699 8.677461
v 14.033652 8.770699 7.462766
v 13.178473 9.858609 6.600106
v 12.315813 9.858609 6.242781
v 11.453153 9.858609 6.600106
v 11.095828 9.858609 7.462766
v 11.453153 9.858609 8.325426
v 12.315813 9.858609 8.682752
v 13.178473 9.858609 8.325426
v 13.535799 9.858609 7.462766
v 12.315813 8.770699 7.462766
v 12.315813 9.858609 7.462766
vt 0.642619 0.438397
vt 0.431673 0.438397
vt 0.431673 0.514595
vt 0.642619 0.514595
vt 0.220726 0.438397
vt 0.220726 0.514595
vt 0.133349 0.438397
vt 0.133349 0.514595
vt 0.220726 0.438397
vt 0.220726 0.514595
vt 0.431673 0.438397
vt 0.431673 0.514595
vt 0.642619 0.438397
vt 0.642619 0.514595
vt 0.729996 0.438397
vt 0.729996 0.514595
vt 0.368491 0.302417
vt 0.481615 0.277401
vt 0.368491 0.217007
vt 0.255367 0.277401
vt 0.208509 0.217007
vt 0.255367 0.156613
vt 0.368491 0.131597
vt 0.481615 0.156613
vt 0.528472 0.217007
vt 0.481615 0.277401
vt 0.368491 0.302417
vt 0.368491 0.217007
vt 0.255367 0.277401
vt 0.208509 0.217007
vt 0.255367 0.156613
vt 0.368491 0.131597
vt 0.481615 0.156613
vt 0.528472 0.217007
vn 0.642979 0.416121 -0.642979
vn 0.000000 0.416121 -0.909309
vn 0.000000 0.416121 -0.909309
vn 0.642979 0.416121 -0.642979
vn -0.642979 0.416121 -0.642979
vn -0.642979 0.416121 -0.642979
vn -0.909309 0.416121 -0.000000
vn -0.909309 0.416121 -0.000000
vn -0.642979 0.416121 0.642979
vn -0.642979 0.416121 0.642979
vn 0.000000 0.416121 0.909309
vn 0.000000 0.416121 0.909309
vn 0.642979 0.416121 0.642979
vn 0.642979 0.416121 0.642979
vn 0.909309 0.416121 0.000000
vn 0.909309 0.416121 0.000000
vn -0.000000 -1.000000 0.000000
vn -0.000000 -1.000000 0.000000
vn -0.000000 -1.000000 0.000000
vn -0.000000 -1.000000 0.000000
vn -0.000000 -1.000000 0.000000
vn -0.000000 -1.000000 0.000000
vn -0.000000 -1.000000 0.000000
vn -0.000000 -1.000000 0.000000
vn -0.000000 -1.000000 0.000000
vn 0.000000 1.000000 0.000000
vn 0.000000 1.000000 0.000000
vn 0.000000 1.000000 0.000000
vn 0.000000 1.000000 0.000000
vn 0.000000 1.000000 0.000000
vn 0.000000 1.000000 -0.000000
vn 0.000000 1.000000 0.000000
vn 0.000000 1.000000 0.000000
vn 0.000000 1.000000 0.000000
s 1
g group32 pCylinder33
usemtl platewall2
f 105/161/153 106/162/154 114/163/155 113/164/156
f 106/162/154 107/165/157 115/166/158 114/163/155
f 107/165/157 108/167/159 116/168/160 115/166/158
f 108/167/159 109/169/161 117/170/162 116/168/160
f 109/169/161 110/171/163 118/172/164 117/170/162
f 110/171/163 111/173/165 119/174/166 118/172/164
f 111/173/165 112/175/167 120/176/168 119/174/166
f 112/175/167 105/161/153 113/164/156 120/176/168
s 2
f 106/177/169 105/178/170 121/179/171
f 107/180/172 106/177/169 121/179/171
f 108/181/173 107/180/172 121/179/171
f 109/182/174 108/181/173 121/179/171
f 110/183/175 109/182/174 121/179/171
f 111/184/176 110/183/175 121/179/171
f 112/185/177 111/184/176 121/179/171
f 105/178/170 112/185/177 121/179/171
s 3
f 113/186/178 114/187/179 122/188/180
f 114/187/179 115/189/181 122/188/180
f 115/189/181 116/190/182 122/188/180
f 116/190/182 117/191/183 122/188/180
f 117/191/183 118/192/184 122/188/180
f 118/192/184 119/193/185 122/188/180
f 119/193/185 120/194/186 122/188/180
f 120/194/186 113/186/178 122/188/180
g default
v 12.966782 8.866740 7.054485
v 12.732080 8.866740 6.931147
v 11.725350 8.866740 6.934141
v 11.491732 8.866740 7.462766
v 11.725350 8.866740 7.991391
v 12.732080 8.866740 7.994385
v 12.966783 8.866740 7.871048
v 13.075158 8.866740 7.462766
v 12.966782 14.786024 7.054485
v 12.732080 14.786024 6.931147
v 11.725350 14.786024 6.934141
v 11.491732 14.786024 7.462766
v 11.725350 14.786024 7.991391
v 12.732080 14.786024 7.994385
v 12.966782 14.786024 7.871048
v 13.075158 14.786024 7.462766
v 12.289353 8.866740 7.462766
v 12.289353 14.786024 7.462766
vt 0.111239 -0.002965
vt 0.111239 0.005241
vt 1.005233 0.005241
vt 1.005233 -0.002965
vt 0.111239 0.056654
vt 1.005233 0.056654
vt 0.111239 0.088240
vt 1.005233 0.088240
vt 0.111239 0.056654
vt 1.005233 0.056654
vt 0.111239 0.005241
vt 1.005233 0.005241
vt 0.111239 -0.002965
vt 1.005233 -0.002965
vt 0.111239 -0.033520
vt 1.005233 -0.033520
vt 0.111239 0.027851
vt 1.005233 0.027851
vn 0.775489 0.000000 -0.631361
vn 0.236347 0.000000 -0.971669
vn 0.236347 0.000000 -0.971669
vn 0.775489 0.000000 -0.631361
vn -0.532079 0.000000 -0.846695
vn -0.532079 0.000000 -0.846695
vn -1.000000 0.000000 0.000000
vn -1.000000 0.000000 0.000000
vn -0.532079 0.000000 0.846695
vn -0.532079 0.000000 0.846695
vn 0.236346 0.000000 0.971669
vn 0.236346 0.000000 0.971669
vn 0.775489 0.000000 0.631361
vn 0.775489 0.000000 0.631361
vn 1.000000 0.000000 -0.000000
vn 1.000000 0.000000 -0.000000
vn 0.000000 -1.000000 -0.000001
vn 0.000000 -1.000000 0.000000
vn 0.000000 -1.000000 -0.000000
vn 0.000000 -1.000000 0.000000
vn 0.000000 -1.000000 0.000000
vn 0.000000 -1.000000 -0.000000
vn 0.000000 -1.000000 0.000000
vn 0.000000 -1.000000 -0.000001
vn 0.000000 -1.000000 0.000000
vn 0.000000 1.000000 0.000000
vn 0.000000 1.000000 0.000000
vn 0.000000 1.000000 0.000000
vn 0.000000 1.000000 0.000000
vn 0.000000 1.000000 0.000000
vn 0.000000 1.000000 0.000000
vn 0.000000 1.000000 0.000000
vn 0.000000 1.000000 0.000000
vn 0.000000 1.000000 0.000000
s 1
g group32 pCylinder34
usemtl platewall2
f 123/195/187 124/196/188 132/197/189 131/198/190
f 124/196/188 125/199/191 133/200/192 132/197/189
f 125/199/191 126/201/193 134/202/194 133/200/192
f 126/201/193 127/203/195 135/204/196 134/202/194
f 127/203/195 128/205/197 136/206/198 135/204/196
f 128/205/197 129/207/199 137/208/200 136/206/198
f 129/207/199 130/209/201 138/210/202 137/208/200
f 130/209/201 123/195/187 131/198/190 138/210/202
s 2
f 124/196/203 123/195/204 139/211/205
f 125/199/206 124/196/203 139/211/205
f 126/201/207 125/199/206 139/211/205
f 127/203/208 126/201/207 139/211/205
f 128/205/209 127/203/208 139/211/205
f 129/207/210 128/205/209 139/211/205
f 130/209/211 129/207/210 139/211/205
f 123/195/204 130/209/211 139/211/205
s 3
f 131/198/212 132/197/213 140/212/214
f 132/197/213 133/200/215 140/212/214
f 133/200/215 134/202/216 140/212/214
f 134/202/216 135/204/217 140/212/214
f 135/204/217 136/206/218 140/212/214
f 136/206/218 137/208/219 140/212/214
f 137/208/219 138/210/220 140/212/214
f 138/210/220 131/198/212 140/212/214
