# Max2Obj Version 4.0 Mar 10th, 2001
#
# object GeoSphere01 to come ...
#
v  1.092606 -47.379505 62.198467
v  63.997238 -47.379501 -0.706160
v  1.092606 136.185730 -0.706153
v  -61.812023 -47.379501 -0.706160
v  1.092606 -69.699516 -0.706163
v  1.092606 -47.379498 -63.610794
v  45.572899 -47.379509 43.774128
v  1.092606 21.406330 43.774128
v  -43.387684 -47.379509 43.774128
v  1.092606 -63.790951 43.774132
v  37.881943 -47.379501 -41.970291
v  1.092606 0.439493 -45.186455
v  -43.387684 -47.379498 -45.186455
v  1.092606 -63.790943 -45.186451
v  45.572899 21.406332 -0.706158
v  -43.387684 21.406332 -0.706158
v  -43.387684 -63.790939 -0.706162
v  45.572899 -63.790939 -0.706162
v  6.805260 46.441151 98.891296
v  35.481335 88.212860 61.243717
v  -62.050667 79.099312 66.689064
v  -92.280823 43.735535 11.294699
v  2.809988 39.408337 -90.477158
v  63.042480 81.811600 -62.656033
v  91.321358 45.246979 -12.834869
v  -57.104862 79.099312 -62.656033
# 26 vertices

vt  0.375000 1.000000 61.588783
vt  0.500000 0.500000 61.588783
vt  0.750000 0.500000 61.588787
vt  1.000000 0.500000 61.588783
vt  0.250000 0.500000 61.588783
vt  0.375000 0.000000 61.588783
vt  0.500000 0.750000 61.588783
vt  0.750000 0.750000 61.588783
vt  1.000000 0.750000 61.588783
vt  0.250000 0.750000 61.588783
vt  0.500000 0.250000 61.588783
vt  0.750000 0.250000 61.588783
vt  1.000000 0.250000 61.588783
vt  0.250000 0.250000 61.588783
vt  0.625000 0.500000 61.588783
vt  0.875000 0.500000 61.588783
vt  0.125000 0.500000 61.588783
vt  0.375000 0.500000 61.588783
vt  0.625000 1.000000 61.588783
vt  0.875000 1.000000 61.588783
vt  0.125000 1.000000 61.588783
vt  0.000000 0.750000 61.588783
vt  0.000000 0.750000 61.588783
vt  0.000000 0.500000 61.588783
vt  0.000000 0.750000 61.588783
vt  0.625000 0.000000 61.588783
vt  0.875000 0.000000 61.588783
vt  0.125000 0.000000 61.588783
vt  0.000000 0.250000 61.588783
vt  0.000000 0.250000 61.588783
vt  0.000000 0.250000 61.588783
vt  0.000000 0.500000 61.588783
vt  0.625000 0.833333 61.588787
vt  0.541667 0.583333 61.588787
vt  0.625000 0.666667 61.588787
vt  0.875000 0.833333 61.588787
vt  0.875000 0.666667 61.588787
vt  0.958333 0.583333 61.588787
vt  0.625000 0.166667 61.588787
vt  0.625000 0.333333 61.588787
vt  0.541667 0.416667 61.588787
vt  0.875000 0.166667 61.588787
vt  0.958333 0.416667 61.588787
vt  0.875000 0.333333 61.588787
# 44 texture vertices

vn  -0.001432 -0.567065 0.841270
vn  0.858055 -0.537441 -0.074901
vn  -0.000000 0.993092 -0.119841
vn  -0.854952 -0.547093 -0.002788
vn  0.000000 -1.000000 -0.000000
vn  0.062874 -0.539362 -0.857764
vn  0.681097 -0.316166 0.689213
vn  -0.054912 0.821417 0.579919
vn  -0.647849 -0.379225 0.688082
vn  0.000000 -0.917906 0.405275
vn  0.668305 -0.348929 -0.685234
vn  0.023494 0.838474 -0.556088
vn  -0.704389 -0.329969 -0.658362
vn  0.032138 -0.911327 -0.419248
vn  0.515687 0.863143 0.007880
vn  -0.536368 0.847043 -0.083829
vn  -0.405275 -0.917906 -0.000000
vn  0.418679 -0.911418 -0.036564
vn  -0.029771 0.279694 0.980149
vn  0.256245 0.648574 0.733969
vn  -0.441321 0.760125 0.495661
vn  -0.965488 0.320312 -0.063154
vn  0.160709 0.628692 -0.777841
vn  0.333343 0.495570 -0.822115
vn  0.938634 0.393195 -0.029555
vn  -0.272341 0.637189 -0.738562
# 26 vertex normals

g GeoSphere01
f 1/21/1 9/22/9 10/10/10
f 9/23/9 4/24/4 17/17/17
f 9/25/9 17/17/17 10/10/10
f 10/10/10 17/17/17 5/5/5
f 1/1/1 10/10/10 7/7/7
f 10/10/10 5/5/5 18/18/18
f 10/10/10 18/18/18 7/7/7
f 7/7/7 18/18/18 2/2/2
f 6/28/6 14/14/14 13/29/13
f 14/14/14 5/5/5 17/17/17
f 14/14/14 17/17/17 13/30/13
f 13/31/13 17/17/17 4/32/4
f 6/6/6 11/11/11 14/14/14
f 11/11/11 2/2/2 18/18/18
f 11/11/11 18/18/18 14/14/14
f 14/14/14 18/18/18 5/5/5
f 1/19/1 7/7/7 19/33/19
f 7/7/7 8/8/8 19/33/19
f 7/7/7 2/2/2 25/34/25
f 15/15/15 7/7/7 25/34/25
f 7/7/7 15/15/15 20/35/20
f 15/15/15 8/8/8 20/35/20
f 8/8/8 7/7/7 20/35/20
f 8/8/8 15/15/15 3/3/3
f 8/8/8 9/9/9 19/36/19
f 9/9/9 1/20/1 19/36/19
f 16/16/16 8/8/8 3/3/3
f 8/8/8 16/16/16 21/37/21
f 16/16/16 9/9/9 21/37/21
f 9/9/9 8/8/8 21/37/21
f 9/9/9 16/16/16 22/38/22
f 4/4/4 9/9/9 22/38/22
f 12/12/12 11/11/11 23/39/23
f 11/11/11 6/26/6 23/39/23
f 15/15/15 12/12/12 3/3/3
f 12/12/12 15/15/15 24/40/24
f 15/15/15 11/11/11 24/40/24
f 11/11/11 12/12/12 24/40/24
f 11/11/11 15/15/15 25/41/25
f 2/2/2 11/11/11 25/41/25
f 6/27/6 13/13/13 23/42/23
f 13/13/13 12/12/12 23/42/23
f 13/13/13 4/4/4 22/43/22
f 16/16/16 13/13/13 22/43/22
f 13/13/13 16/16/16 26/44/26
f 16/16/16 12/12/12 26/44/26
f 12/12/12 13/13/13 26/44/26
f 12/12/12 16/16/16 3/3/3
# 48 faces

g
